AnekTamil-Bold.ufo
<glyph name="exclam" format="2">
  <advance width="517.1933333333334"/>
  <unicode hex="0021"/>
  <outline>
    <contour>
      <point x="387.2733333333333" y="422.9" type="line"/>
      <point x="422.81333333333333" y="1278.0" type="line"/>
      <point x="94.38" y="1278.0" type="line"/>
      <point x="130.61666666666667" y="422.9" type="line"/>
    </contour>
    <contour>
      <point x="259.99" y="-27.27" type="curve" smooth="yes"/>
      <point x="371.73333333333335" y="-27.27"/>
      <point x="425.06" y="34.45"/>
      <point x="425.06" y="138.22666666666666" type="curve" smooth="yes"/>
      <point x="425.06" y="148.92333333333335" type="line" smooth="yes"/>
      <point x="425.06" y="251.7"/>
      <point x="371.73333333333335" y="314.1166666666667"/>
      <point x="259.99" y="314.1166666666667" type="curve" smooth="yes"/>
      <point x="147.24666666666667" y="314.1166666666667"/>
      <point x="95.61666666666667" y="251.7"/>
      <point x="95.61666666666667" y="148.92333333333335" type="curve" smooth="yes"/>
      <point x="95.61666666666667" y="138.22666666666666" type="line" smooth="yes"/>
      <point x="95.61666666666667" y="34.45"/>
      <point x="147.24666666666667" y="-27.27"/>
    </contour>
  </outline>
</glyph>
<glyph name="numbersign" format="2">
  <advance width="1185.5733333333333"/>
  <unicode hex="0023"/>
  <outline>
    <contour>
      <point x="162.2" y="0.0" type="line"/>
      <point x="399.92333333333335" y="0.0" type="line"/>
      <point x="569.5866666666667" y="1278.0" type="line"/>
      <point x="331.86333333333334" y="1278.0" type="line"/>
    </contour>
    <contour>
      <point x="47.763333333333335" y="276.50333333333333" type="line"/>
      <point x="1079.4166666666667" y="276.50333333333333" type="line"/>
      <point x="1079.4166666666667" y="491.95666666666665" type="line"/>
      <point x="47.763333333333335" y="491.95666666666665" type="line"/>
    </contour>
    <contour>
      <point x="623.0766666666667" y="0.0" type="line"/>
      <point x="862.4966666666667" y="0.0" type="line"/>
      <point x="1026.7666666666667" y="1278.0" type="line"/>
      <point x="788.0433333333333" y="1278.0" type="line"/>
    </contour>
    <contour>
      <point x="108.46000000000001" y="784.1666666666666" type="line"/>
      <point x="1138.1133333333332" y="784.1666666666666" type="line"/>
      <point x="1138.1133333333332" y="999.62" type="line"/>
      <point x="108.46000000000001" y="999.62" type="line"/>
    </contour>
  </outline>
</glyph>
<glyph name="dollar" format="2">
  <advance width="1079.6533333333334"/>
  <unicode hex="0024"/>
  <anchor x="531.3266666666667" y="0.0" name="bottom"/>
  <anchor x="531.3266666666667" y="1278.0" name="top"/>
  <outline>
    <contour>
      <point x="663.43" y="1144.84" type="line"/>
      <point x="663.43" y="1477.9433333333334" type="line"/>
      <point x="403.74" y="1477.9433333333334" type="line"/>
      <point x="403.74" y="1144.84" type="line"/>
    </contour>
    <contour>
      <point x="663.43" y="-204.24666666666667" type="line"/>
      <point x="663.43" y="147.13666666666666" type="line"/>
      <point x="403.74" y="147.13666666666666" type="line"/>
      <point x="403.74" y="-204.24666666666667" type="line"/>
    </contour>
    <component base="S"/>
  </outline>
</glyph>
<glyph name="percent" format="2">
  <advance width="1571.0366666666666"/>
  <unicode hex="0025"/>
  <outline>
    <contour>
      <point x="265.33666666666664" y="0.0" type="line"/>
      <point x="518.2166666666667" y="0.0" type="line"/>
      <point x="1306.9133333333334" y="1278.0" type="line"/>
      <point x="1056.82" y="1278.0" type="line"/>
    </contour>
    <contour>
      <point x="1203.25" y="-32.269999999999996" type="curve" smooth="yes"/>
      <point x="1399.79" y="-32.269999999999996"/>
      <point x="1508.4533333333334" y="76.91"/>
      <point x="1508.4533333333334" y="273.54" type="curve" smooth="yes"/>
      <point x="1508.4533333333334" y="343.73" type="line" smooth="yes"/>
      <point x="1508.4533333333334" y="541.0566666666666"/>
      <point x="1399.79" y="648.2366666666667"/>
      <point x="1203.25" y="648.2366666666667" type="curve" smooth="yes"/>
      <point x="1006.3166666666666" y="648.2366666666667"/>
      <point x="898.6533333333333" y="540.45"/>
      <point x="898.6533333333333" y="343.73" type="curve" smooth="yes"/>
      <point x="898.6533333333333" y="273.54" type="line" smooth="yes"/>
      <point x="898.6533333333333" y="75.51666666666667"/>
      <point x="1006.0133333333333" y="-32.269999999999996"/>
    </contour>
    <contour>
      <point x="1203.25" y="141.74333333333334" type="curve" smooth="yes"/>
      <point x="1139.97" y="141.74333333333334"/>
      <point x="1107.8133333333333" y="182.29333333333332"/>
      <point x="1107.8133333333333" y="261.87666666666667" type="curve" smooth="yes"/>
      <point x="1107.8133333333333" y="354.3933333333333" type="line" smooth="yes"/>
      <point x="1107.8133333333333" y="433.9766666666667"/>
      <point x="1139.6666666666667" y="474.52666666666664"/>
      <point x="1203.25" y="474.52666666666664" type="curve" smooth="yes"/>
      <point x="1266.8333333333333" y="474.52666666666664"/>
      <point x="1298.6866666666667" y="433.9766666666667"/>
      <point x="1298.6866666666667" y="354.3933333333333" type="curve" smooth="yes"/>
      <point x="1298.6866666666667" y="261.87666666666667" type="line" smooth="yes"/>
      <point x="1298.6866666666667" y="182.29333333333332"/>
      <point x="1267.1366666666668" y="141.74333333333334"/>
    </contour>
    <contour>
      <point x="366.87666666666667" y="628.6733333333333" type="curve" smooth="yes"/>
      <point x="563.4166666666666" y="628.6733333333333"/>
      <point x="672.08" y="737.8533333333334"/>
      <point x="672.08" y="933.8766666666667" type="curve" smooth="yes"/>
      <point x="672.08" y="1004.37" type="line" smooth="yes"/>
      <point x="672.08" y="1201.09"/>
      <point x="563.4166666666666" y="1308.5733333333333"/>
      <point x="366.87666666666667" y="1308.5733333333333" type="curve" smooth="yes"/>
      <point x="169.64" y="1308.5733333333333"/>
      <point x="61.97666666666667" y="1201.09"/>
      <point x="61.97666666666667" y="1004.37" type="curve" smooth="yes"/>
      <point x="61.97666666666667" y="933.8766666666667" type="line" smooth="yes"/>
      <point x="61.97666666666667" y="736.1566666666666"/>
      <point x="169.64" y="628.6733333333333"/>
    </contour>
    <contour>
      <point x="366.87666666666667" y="802.3833333333333" type="curve" smooth="yes"/>
      <point x="303.5966666666667" y="802.3833333333333"/>
      <point x="271.44" y="842.63"/>
      <point x="271.44" y="922.2133333333334" type="curve" smooth="yes"/>
      <point x="271.44" y="1015.0333333333333" type="line" smooth="yes"/>
      <point x="271.44" y="1094.3133333333333"/>
      <point x="303.29333333333335" y="1135.1666666666667"/>
      <point x="366.87666666666667" y="1135.1666666666667" type="curve" smooth="yes"/>
      <point x="430.46" y="1135.1666666666667"/>
      <point x="462.31333333333333" y="1094.3133333333333"/>
      <point x="462.31333333333333" y="1015.0333333333333" type="curve" smooth="yes"/>
      <point x="462.31333333333333" y="922.2133333333334" type="line" smooth="yes"/>
      <point x="462.31333333333333" y="842.63"/>
      <point x="430.46" y="802.3833333333333"/>
    </contour>
  </outline>
</glyph>
<glyph name="ampersand" format="2">
  <advance width="1347.5766666666666"/>
  <unicode hex="0026"/>
  <outline>
    <contour>
      <point x="1043.3133333333333" y="0.6966666666666667" type="curve"/>
      <point x="1376.7233333333334" y="0.6966666666666667" type="line"/>
      <point x="1376.7233333333334" y="25.056666666666665" type="line"/>
      <point x="1259.4866666666667" y="156.74333333333334"/>
      <point x="1160.6666666666667" y="257.26"/>
      <point x="1042.9466666666667" y="377.94666666666666" type="curve"/>
      <point x="969.8666666666667" y="455.02666666666664" type="line"/>
      <point x="598.9033333333333" y="812.26" type="line" smooth="yes"/>
      <point x="537.23" y="871.63"/>
      <point x="506.8933333333333" y="910.2133333333334"/>
      <point x="506.8933333333333" y="956.92" type="curve" smooth="yes"/>
      <point x="506.8933333333333" y="960.5266666666666" type="line" smooth="yes"/>
      <point x="506.8933333333333" y="1018.57"/>
      <point x="545.78" y="1053.4566666666667"/>
      <point x="650.7666666666667" y="1053.4566666666667" type="curve" smooth="yes"/>
      <point x="763.8333333333334" y="1053.4566666666667"/>
      <point x="881.1033333333334" y="1025.8166666666666"/>
      <point x="972.98" y="990.48" type="curve"/>
      <point x="944.9233333333333" y="1239.8433333333332" type="line"/>
      <point x="859.4733333333334" y="1276.0566666666666"/>
      <point x="743.2033333333334" y="1305.4833333333333"/>
      <point x="581.0233333333333" y="1305.4833333333333" type="curve" smooth="yes"/>
      <point x="318.09" y="1305.4833333333333"/>
      <point x="183.15666666666667" y="1184.6066666666666"/>
      <point x="183.15666666666667" y="993.6966666666667" type="curve" smooth="yes"/>
      <point x="183.15666666666667" y="985.3033333333333" type="line" smooth="yes"/>
      <point x="183.15666666666667" y="877.6966666666667"/>
      <point x="224.55" y="802.82"/>
      <point x="316.73" y="711.82" type="curve"/>
      <point x="368.0233333333333" y="658.7066666666667" type="line"/>
      <point x="796.7066666666667" y="258.63" type="line"/>
      <point x="839.82" y="208.64" type="line"/>
      <point x="883.3933333333333" y="163.28"/>
      <point x="993.65" y="51.056666666666665"/>
    </contour>
    <contour>
      <point x="535.3266666666667" y="-28.876666666666665" type="curve" smooth="yes"/>
      <point x="747.3266666666667" y="-28.876666666666665"/>
      <point x="877.9333333333333" y="42.55"/>
      <point x="985.4166666666666" y="163.31333333333333" type="curve"/>
      <point x="1083.3066666666666" y="257.63" type="line"/>
      <point x="1207.78" y="411.77666666666664"/>
      <point x="1267.7466666666667" y="592.81"/>
      <point x="1293.14" y="805.7533333333333" type="curve"/>
      <point x="997.3366666666667" y="805.7533333333333" type="line"/>
      <point x="984.4266666666666" y="664.8333333333334"/>
      <point x="953.2133333333334" y="537.5533333333333"/>
      <point x="892.4833333333333" y="427.52" type="curve"/>
      <point x="809.1333333333333" y="329.08" type="line"/>
      <point x="753.6733333333333" y="262.00333333333333"/>
      <point x="679.18" y="221.02666666666667"/>
      <point x="570.0466666666666" y="221.02666666666667" type="curve" smooth="yes"/>
      <point x="437.00333333333333" y="221.02666666666667"/>
      <point x="370.42" y="285.7"/>
      <point x="370.42" y="404.47333333333336" type="curve" smooth="yes"/>
      <point x="370.42" y="421.93333333333334" type="line" smooth="yes"/>
      <point x="370.42" y="518.64"/>
      <point x="400.6666666666667" y="569.2233333333334"/>
      <point x="474.2833333333333" y="603.6833333333334" type="curve"/>
      <point x="308.28" y="783.4833333333333" type="line"/>
      <point x="136.67333333333335" y="692.8766666666667"/>
      <point x="66.49333333333334" y="576.6066666666667"/>
      <point x="66.49333333333334" y="397.5733333333333" type="curve" smooth="yes"/>
      <point x="66.49333333333334" y="376.72" type="line" smooth="yes"/>
      <point x="66.49333333333334" y="120.96666666666667"/>
      <point x="217.85333333333332" y="-28.876666666666665"/>
    </contour>
  </outline>
</glyph>
<glyph name="quotesingle" format="2">
  <advance width="420.37333333333333"/>
  <unicode hex="0027"/>
  <outline>
    <contour>
      <point x="325.00333333333333" y="803.1333333333333" type="line"/>
      <point x="356.15" y="1320.5166666666667" type="line"/>
      <point x="64.22333333333333" y="1320.5166666666667" type="line"/>
      <point x="93.67333333333333" y="803.1333333333333" type="line"/>
    </contour>
  </outline>
</glyph>
<glyph name="parenleft" format="2">
  <advance width="651.34"/>
  <unicode hex="0028"/>
  <outline>
    <contour>
      <point x="394.93666666666667" y="580.83" type="line" smooth="yes"/>
      <point x="394.93666666666667" y="889.0666666666667"/>
      <point x="473.51" y="1124.37"/>
      <point x="636.42" y="1351.0" type="curve"/>
      <point x="332.70666666666665" y="1351.0" type="line"/>
      <point x="186.37" y="1153.4833333333333"/>
      <point x="102.83" y="915.82"/>
      <point x="102.83" y="592.1" type="curve" smooth="yes"/>
      <point x="102.83" y="509.63" type="line" smooth="yes"/>
      <point x="102.83" y="185.0"/>
      <point x="184.76333333333332" y="-52.36"/>
      <point x="330.01" y="-249.57333333333332" type="curve"/>
      <point x="636.42" y="-249.57333333333332" type="line"/>
      <point x="473.51" y="-22.336666666666666"/>
      <point x="394.93666666666667" y="212.66333333333333"/>
      <point x="394.93666666666667" y="521.2033333333334" type="curve" smooth="yes"/>
    </contour>
  </outline>
</glyph>
<glyph name="parenright" format="2">
  <advance width="651.9466666666667"/>
  <unicode hex="0029"/>
  <outline>
    <contour>
      <point x="257.01" y="580.83" type="curve" smooth="yes"/>
      <point x="257.01" y="521.2033333333334" type="line" smooth="yes"/>
      <point x="257.01" y="212.66333333333333"/>
      <point x="178.43666666666667" y="-22.336666666666666"/>
      <point x="15.526666666666667" y="-249.57333333333332" type="curve"/>
      <point x="321.93666666666667" y="-249.57333333333332" type="line"/>
      <point x="467.18333333333334" y="-52.36"/>
      <point x="549.1166666666667" y="185.0"/>
      <point x="549.1166666666667" y="509.63" type="curve" smooth="yes"/>
      <point x="549.1166666666667" y="592.1" type="line" smooth="yes"/>
      <point x="549.1166666666667" y="915.82"/>
      <point x="465.57666666666665" y="1153.4833333333333"/>
      <point x="319.24" y="1351.0" type="curve"/>
      <point x="15.526666666666667" y="1351.0" type="line"/>
      <point x="178.43666666666667" y="1124.37"/>
      <point x="257.01" y="889.0666666666667"/>
    </contour>
  </outline>
</glyph>
<glyph name="asterisk" format="2">
  <advance width="792.6866666666667"/>
  <unicode hex="002A"/>
  <outline>
    <contour>
      <point x="274.6533333333333" y="593.84" type="line"/>
      <point x="393.14666666666665" y="785.9966666666667" type="line"/>
      <point x="399.2366666666667" y="785.9966666666667" type="line"/>
      <point x="518.73" y="593.84" type="line"/>
      <point x="708.8566666666667" y="726.2466666666667" type="line"/>
      <point x="551.0033333333333" y="883.7733333333333" type="line"/>
      <point x="552.0033333333333" y="889.8633333333333" type="line"/>
      <point x="758.62" y="921.2333333333333" type="line"/>
      <point x="702.9" y="1147.2933333333333" type="line"/>
      <point x="495.1933333333333" y="1060.3833333333334" type="line"/>
      <point x="491.49666666666667" y="1063.7766666666666" type="line"/>
      <point x="521.8566666666667" y="1278.0" type="line"/>
      <point x="270.83" y="1278.0" type="line"/>
      <point x="301.19" y="1063.7766666666666" type="line"/>
      <point x="296.7966666666667" y="1060.3833333333334" type="line"/>
      <point x="89.78666666666666" y="1147.2933333333333" type="line"/>
      <point x="34.06666666666666" y="921.2333333333333" type="line"/>
      <point x="240.38" y="889.8633333333333" type="line"/>
      <point x="242.07666666666665" y="883.7733333333333" type="line"/>
      <point x="83.52666666666667" y="726.2466666666667" type="line"/>
    </contour>
  </outline>
</glyph>
<glyph name="plus" format="2">
  <advance width="1020.72"/>
  <unicode hex="002B"/>
  <outline>
    <contour>
      <point x="639.6433333333333" y="188.24666666666667" type="line"/>
      <point x="639.6433333333333" y="1049.5733333333333" type="line"/>
      <point x="381.7733333333333" y="1049.5733333333333" type="line"/>
      <point x="381.7733333333333" y="188.24666666666667" type="line"/>
    </contour>
    <contour>
      <point x="88.55" y="497.41333333333336" type="line"/>
      <point x="932.17" y="497.41333333333336" type="line"/>
      <point x="932.17" y="740.4066666666666" type="line"/>
      <point x="88.55" y="740.4066666666666" type="line"/>
    </contour>
  </outline>
</glyph>
<glyph name="comma" format="2">
  <advance width="461.78999999999996"/>
  <unicode hex="002C"/>
  <outline>
    <contour>
      <point x="372.33" y="326.49666666666667" type="curve"/>
      <point x="90.28" y="326.49666666666667" type="line"/>
      <point x="94.58333333333333" y="278.92333333333335"/>
      <point x="96.58333333333333" y="240.92333333333335"/>
      <point x="96.58333333333333" y="194.13666666666666" type="curve" smooth="yes"/>
      <point x="96.58333333333333" y="39.26"/>
      <point x="64.58333333333333" y="-82.52666666666667"/>
      <point x="5.246666666666666" y="-193.22333333333333" type="curve"/>
      <point x="214.7" y="-242.28" type="line"/>
      <point x="333.75666666666666" y="-109.1"/>
      <point x="382.33" y="34.26"/>
      <point x="382.33" y="205.62" type="curve" smooth="yes"/>
      <point x="382.33" y="251.62"/>
      <point x="377.02666666666664" y="293.2266666666667"/>
    </contour>
  </outline>
</glyph>
<glyph name="hyphen" format="2">
  <advance width="754.11"/>
  <unicode hex="002D"/>
  <outline>
    <contour>
      <point x="89.61666666666667" y="390.44666666666666" type="line"/>
      <point x="664.4933333333333" y="390.44666666666666" type="line"/>
      <point x="664.4933333333333" y="634.0466666666666" type="line"/>
      <point x="89.61666666666667" y="634.0466666666666" type="line"/>
    </contour>
  </outline>
</glyph>
<glyph name="period" format="2">
  <advance width="475.15"/>
  <unicode hex="002E"/>
  <outline>
    <contour>
      <point x="237.92333333333335" y="-27.27" type="curve" smooth="yes"/>
      <point x="350.36333333333334" y="-27.27"/>
      <point x="404.38666666666666" y="35.14666666666667"/>
      <point x="404.38666666666666" y="140.31666666666666" type="curve" smooth="yes"/>
      <point x="404.38666666666666" y="151.01333333333332" type="line" smooth="yes"/>
      <point x="404.38666666666666" y="255.18333333333334"/>
      <point x="350.36333333333334" y="318.99333333333334"/>
      <point x="237.92333333333335" y="318.99333333333334" type="curve" smooth="yes"/>
      <point x="123.09" y="318.99333333333334"/>
      <point x="70.76333333333334" y="255.18333333333334"/>
      <point x="70.76333333333334" y="151.01333333333332" type="curve" smooth="yes"/>
      <point x="70.76333333333334" y="140.31666666666666" type="line" smooth="yes"/>
      <point x="70.76333333333334" y="35.14666666666667"/>
      <point x="123.09" y="-27.27"/>
    </contour>
  </outline>
</glyph>
<glyph name="slash" format="2">
  <advance width="916.1833333333334"/>
  <unicode hex="002F"/>
  <outline>
    <contour>
      <point x="-10.349999999999998" y="-248.96666666666667" type="line"/>
      <point x="259.43" y="-248.96666666666667" type="line"/>
      <point x="926.5333333333333" y="1348.5733333333333" type="line"/>
      <point x="657.0566666666666" y="1348.5733333333333" type="line"/>
    </contour>
  </outline>
</glyph>
<glyph name="zero" format="2">
  <advance width="1219.2733333333333"/>
  <unicode hex="0030"/>
  <outline>
    <contour>
      <point x="609.1366666666667" y="-28.09" type="curve" smooth="yes"/>
      <point x="957.5766666666667" y="-28.09"/>
      <point x="1137.3866666666668" y="158.96666666666667"/>
      <point x="1137.3866666666668" y="514.7433333333333" type="curve"/>
      <point x="1137.3866666666668" y="763.9533333333334" type="line"/>
      <point x="1137.3866666666668" y="1117.3366666666666"/>
      <point x="957.5766666666667" y="1305.3933333333334"/>
      <point x="609.1366666666667" y="1305.3933333333334" type="curve" smooth="yes"/>
      <point x="260.69666666666666" y="1305.3933333333334"/>
      <point x="81.88666666666667" y="1117.3366666666666"/>
      <point x="81.88666666666667" y="763.9533333333334" type="curve"/>
      <point x="81.88666666666667" y="514.7433333333333" type="line"/>
      <point x="81.88666666666667" y="158.96666666666667"/>
      <point x="261.69666666666666" y="-28.09"/>
    </contour>
    <contour>
      <point x="609.1366666666667" y="230.17333333333335" type="curve" smooth="yes"/>
      <point x="465.54333333333335" y="230.17333333333335"/>
      <point x="400.83666666666664" y="323.4866666666667"/>
      <point x="400.83666666666664" y="500.8666666666667" type="curve" smooth="yes"/>
      <point x="400.83666666666664" y="776.1333333333333" type="line" smooth="yes"/>
      <point x="400.83666666666664" y="953.8166666666666"/>
      <point x="463.8466666666667" y="1047.13"/>
      <point x="609.1366666666667" y="1047.13" type="curve" smooth="yes"/>
      <point x="754.4266666666666" y="1047.13"/>
      <point x="818.4366666666667" y="954.5133333333333"/>
      <point x="818.4366666666667" y="776.1333333333333" type="curve" smooth="yes"/>
      <point x="818.4366666666667" y="500.8666666666667" type="line" smooth="yes"/>
      <point x="818.4366666666667" y="323.4866666666667"/>
      <point x="754.4266666666666" y="230.17333333333335"/>
    </contour>
  </outline>
</glyph>
<glyph name="one" format="2">
  <advance width="735.16"/>
  <unicode hex="0031"/>
  <outline>
    <contour>
      <point x="310.47" y="0.0" type="line"/>
      <point x="621.24" y="0.0" type="line"/>
      <point x="621.24" y="1278.0" type="line"/>
      <point x="347.03333333333336" y="1278.0" type="line"/>
      <point x="43.03333333333333" y="1136.7433333333333" type="line"/>
      <point x="34.55" y="843.12" type="line"/>
      <point x="297.1666666666667" y="963.0166666666667" type="line"/>
      <point x="310.47" y="963.0166666666667" type="line"/>
    </contour>
  </outline>
</glyph>
<glyph name="two" format="2">
  <advance width="993.1933333333334"/>
  <unicode hex="0032"/>
  <outline>
    <contour>
      <point x="54.55" y="0.0" type="line"/>
      <point x="934.43" y="0.0" type="line"/>
      <point x="934.43" y="263.35333333333335" type="line"/>
      <point x="323.87" y="263.35333333333335" type="line"/>
      <point x="458.12" y="216.81333333333333" type="line"/>
      <point x="458.12" y="274.4433333333333" type="line"/>
      <point x="647.3866666666667" y="442.17" type="line" smooth="yes"/>
      <point x="834.8133333333333" y="606.5733333333334"/>
      <point x="921.3066666666666" y="721.0333333333333"/>
      <point x="921.3066666666666" y="909.9766666666667" type="curve" smooth="yes"/>
      <point x="921.3066666666666" y="923.9766666666667" type="line" smooth="yes"/>
      <point x="921.3066666666666" y="1163.73"/>
      <point x="768.98" y="1304.4833333333333"/>
      <point x="471.29333333333335" y="1304.4833333333333" type="curve" smooth="yes"/>
      <point x="303.0233333333333" y="1304.4833333333333"/>
      <point x="176.36" y="1263.1466666666668"/>
      <point x="91.39333333333333" y="1218.2366666666667" type="curve"/>
      <point x="64.33666666666667" y="947.9733333333334" type="line"/>
      <point x="150.24666666666667" y="991.9166666666666"/>
      <point x="265.85333333333335" y="1036.04"/>
      <point x="391.9766666666667" y="1036.04" type="curve" smooth="yes"/>
      <point x="546.1666666666666" y="1036.04"/>
      <point x="602.3566666666667" y="975.1533333333333"/>
      <point x="602.3566666666667" y="882.2566666666667" type="curve" smooth="yes"/>
      <point x="602.3566666666667" y="872.9533333333334" type="line" smooth="yes"/>
      <point x="602.3566666666667" y="767.5733333333334"/>
      <point x="525.2566666666667" y="691.44"/>
      <point x="367.67333333333335" y="553.7" type="curve" smooth="yes"/>
      <point x="54.55" y="281.74666666666667" type="line"/>
    </contour>
  </outline>
</glyph>
<glyph name="three" format="2">
  <advance width="1025.1366666666668"/>
  <unicode hex="0033"/>
  <outline>
    <contour>
      <point x="454.36" y="-27.18" type="curve" smooth="yes"/>
      <point x="800.62" y="-27.18"/>
      <point x="963.34" y="114.0"/>
      <point x="963.34" y="344.0" type="curve" smooth="yes"/>
      <point x="963.34" y="370.33666666666664" type="line" smooth="yes"/>
      <point x="963.34" y="542.1233333333333"/>
      <point x="888.25" y="635.3933333333333"/>
      <point x="686.08" y="664.2133333333334" type="curve"/>
      <point x="703.2266666666667" y="629.9766666666667" type="line"/>
      <point x="703.2266666666667" y="672.5166666666667" type="line"/>
      <point x="878.16" y="697.0333333333333"/>
      <point x="954.7333333333333" y="786.6733333333333"/>
      <point x="954.7333333333333" y="948.1233333333333" type="curve" smooth="yes"/>
      <point x="954.7333333333333" y="968.1233333333333" type="line" smooth="yes"/>
      <point x="954.7333333333333" y="1183.7866666666666"/>
      <point x="801.2266666666667" y="1304.4833333333333"/>
      <point x="483.75333333333333" y="1304.4833333333333" type="curve" smooth="yes"/>
      <point x="310.36" y="1304.4833333333333"/>
      <point x="182.57333333333332" y="1268.45"/>
      <point x="89.82" y="1226.3266666666666" type="curve"/>
      <point x="63.763333333333335" y="970.8166666666666" type="line"/>
      <point x="155.37" y="1006.58"/>
      <point x="284.7633333333333" y="1044.6133333333332"/>
      <point x="424.67333333333335" y="1044.6133333333332" type="curve" smooth="yes"/>
      <point x="585.8966666666666" y="1044.6133333333332"/>
      <point x="638.1766666666666" y="1001.9066666666666"/>
      <point x="638.1766666666666" y="914.83" type="curve" smooth="yes"/>
      <point x="638.1766666666666" y="906.4033333333333" type="line" smooth="yes"/>
      <point x="638.1766666666666" y="822.1466666666666"/>
      <point x="585.8066666666666" y="780.2266666666667"/>
      <point x="441.69666666666666" y="776.2266666666667" type="curve" smooth="yes"/>
      <point x="210.79666666666668" y="769.8333333333334" type="line"/>
      <point x="210.79666666666668" y="526.5366666666666" type="line"/>
      <point x="442.09" y="521.1433333333333" type="line" smooth="yes"/>
      <point x="589.8066666666666" y="517.84"/>
      <point x="641.6933333333334" y="478.3466666666667"/>
      <point x="641.6933333333334" y="387.84333333333336" type="curve" smooth="yes"/>
      <point x="641.6933333333334" y="376.50666666666666" type="line" smooth="yes"/>
      <point x="641.6933333333334" y="286.2166666666667"/>
      <point x="589.9866666666667" y="237.29666666666668"/>
      <point x="411.5833333333333" y="237.29666666666668" type="curve" smooth="yes"/>
      <point x="272.55" y="237.29666666666668"/>
      <point x="150.64" y="271.93666666666667"/>
      <point x="54.370000000000005" y="312.88" type="curve"/>
      <point x="81.03333333333333" y="39.46" type="line"/>
      <point x="159.78666666666666" y="7.8533333333333335"/>
      <point x="293.14666666666665" y="-27.18"/>
    </contour>
  </outline>
</glyph>
<glyph name="four" format="2">
  <advance width="1142.33"/>
  <unicode hex="0034"/>
  <outline>
    <contour>
      <point x="668.8533333333334" y="0.0" type="line"/>
      <point x="965.7466666666667" y="0.0" type="line"/>
      <point x="965.7466666666667" y="1278.0" type="line"/>
      <point x="473.42333333333335" y="1278.0" type="line"/>
      <point x="51.21333333333333" y="501.57666666666665" type="line"/>
      <point x="51.21333333333333" y="212.92000000000002" type="line"/>
      <point x="1108.5433333333333" y="212.92000000000002" type="line"/>
      <point x="1108.5433333333333" y="467.3066666666667" type="line"/>
      <point x="233.82333333333332" y="467.3066666666667" type="line"/>
      <point x="353.32" y="360.17" type="line"/>
      <point x="353.32" y="483.7" type="line"/>
      <point x="656.82" y="1063.76" type="line"/>
      <point x="681.4266666666666" y="1063.76" type="line"/>
      <point x="668.8533333333334" y="731.6566666666666" type="line"/>
    </contour>
  </outline>
</glyph>
<glyph name="five" format="2">
  <advance width="1095.4966666666667"/>
  <unicode hex="0035"/>
  <outline>
    <contour>
      <point x="508.36" y="-27.18" type="curve" smooth="yes"/>
      <point x="892.1833333333334" y="-27.18"/>
      <point x="1029.3066666666666" y="141.96666666666667"/>
      <point x="1029.3066666666666" y="411.08" type="curve" smooth="yes"/>
      <point x="1029.3066666666666" y="453.18" type="line" smooth="yes"/>
      <point x="1029.3066666666666" y="696.2366666666667"/>
      <point x="925.97" y="838.2366666666667"/>
      <point x="699.15" y="838.2366666666667" type="curve" smooth="yes"/>
      <point x="526.9133333333333" y="838.2366666666667"/>
      <point x="438.18333333333334" y="764.7533333333333"/>
      <point x="395.8466666666667" y="655.4266666666666" type="curve"/>
      <point x="385.75666666666666" y="655.4266666666666" type="line"/>
      <point x="388.75666666666666" y="818.55" type="line"/>
      <point x="388.75666666666666" y="1020.22" type="line"/>
      <point x="984.0366666666666" y="1020.22" type="line"/>
      <point x="984.0366666666666" y="1278.0" type="line"/>
      <point x="100.01" y="1278.0" type="line"/>
      <point x="100.01" y="526.4033333333333" type="line"/>
      <point x="366.57666666666665" y="484.56" type="line"/>
      <point x="407.94666666666666" y="549.66"/>
      <point x="470.8333333333333" y="598.6933333333334"/>
      <point x="569.2366666666667" y="598.6933333333334" type="curve" smooth="yes"/>
      <point x="679.3133333333333" y="598.6933333333334"/>
      <point x="726.2" y="545.1666666666666"/>
      <point x="726.2" y="445.09" type="curve" smooth="yes"/>
      <point x="726.2" y="416.56333333333333" type="line" smooth="yes"/>
      <point x="726.2" y="306.18333333333334"/>
      <point x="668.4933333333333" y="239.69"/>
      <point x="478.51666666666665" y="239.69" type="curve" smooth="yes"/>
      <point x="327.12333333333333" y="239.69"/>
      <point x="186.19" y="283.2966666666667"/>
      <point x="94.01" y="326.02666666666664" type="curve"/>
      <point x="120.97666666666666" y="46.55" type="line"/>
      <point x="196.24666666666667" y="12.64"/>
      <point x="335.48333333333335" y="-27.18"/>
    </contour>
  </outline>
</glyph>
<glyph name="six" format="2">
  <advance width="1159.3966666666668"/>
  <unicode hex="0036"/>
  <outline>
    <contour>
      <point x="597.35" y="-26.696666666666665" type="curve" smooth="yes"/>
      <point x="923.0933333333334" y="-26.696666666666665"/>
      <point x="1091.1166666666666" y="127.51666666666667"/>
      <point x="1091.1166666666666" y="400.8666666666667" type="curve" smooth="yes"/>
      <point x="1091.1166666666666" y="434.48333333333335" type="line" smooth="yes"/>
      <point x="1091.1166666666666" y="690.1466666666666"/>
      <point x="972.2966666666666" y="833.8433333333334"/>
      <point x="730.2966666666666" y="833.8433333333334" type="curve" smooth="yes"/>
      <point x="529.7233333333334" y="833.8433333333334"/>
      <point x="430.69" y="739.45"/>
      <point x="395.96" y="616.8433333333334" type="curve"/>
      <point x="346.24" y="616.8433333333334" type="line"/>
      <point x="379.74666666666667" y="455.29333333333335" type="line"/>
      <point x="416.17333333333335" y="543.65"/>
      <point x="502.39666666666665" y="599.9966666666667"/>
      <point x="611.3833333333333" y="599.9966666666667" type="curve" smooth="yes"/>
      <point x="742.9433333333334" y="599.9966666666667"/>
      <point x="787.2233333333334" y="534.7733333333333"/>
      <point x="787.2233333333334" y="428.0" type="curve" smooth="yes"/>
      <point x="787.2233333333334" y="403.8666666666667" type="line" smooth="yes"/>
      <point x="787.2233333333334" y="295.12666666666667"/>
      <point x="731.5166666666667" y="230.87"/>
      <point x="604.1366666666667" y="230.87" type="curve" smooth="yes"/>
      <point x="458.09333333333336" y="230.87"/>
      <point x="385.96" y="315.09333333333336"/>
      <point x="385.96" y="491.9" type="curve"/>
      <point x="385.96" y="718.8066666666666" type="line" smooth="yes"/>
      <point x="385.96" y="940.21"/>
      <point x="486.20666666666665" y="1043.7033333333334"/>
      <point x="699.8466666666667" y="1043.7033333333334" type="curve" smooth="yes"/>
      <point x="840.0933333333334" y="1043.7033333333334"/>
      <point x="943.8466666666667" y="1012.58"/>
      <point x="1033.6333333333332" y="972.2433333333333" type="curve"/>
      <point x="1003.88" y="1233.7533333333333" type="line"/>
      <point x="919.2166666666667" y="1271.36"/>
      <point x="795.98" y="1304.4833333333333"/>
      <point x="636.89" y="1304.4833333333333" type="curve" smooth="yes"/>
      <point x="266.0" y="1304.4833333333333"/>
      <point x="76.19" y="1095.55"/>
      <point x="76.19" y="726.8966666666666" type="curve" smooth="yes"/>
      <point x="76.19" y="502.36" type="line" smooth="yes"/>
      <point x="76.19" y="158.36"/>
      <point x="262.12333333333333" y="-26.696666666666665"/>
    </contour>
  </outline>
</glyph>
<glyph name="seven" format="2">
  <advance width="984.8566666666667"/>
  <unicode hex="0037"/>
  <outline>
    <contour>
      <point x="165.56" y="0.0" type="line"/>
      <point x="502.99333333333334" y="0.0" type="line"/>
      <point x="930.6433333333333" y="1009.2533333333333" type="line"/>
      <point x="930.6433333333333" y="1278.0" type="line"/>
      <point x="47.336666666666666" y="1278.0" type="line"/>
      <point x="47.336666666666666" y="1016.04" type="line"/>
      <point x="603.6033333333334" y="1016.04" type="line"/>
    </contour>
  </outline>
</glyph>
<glyph name="eight" format="2">
  <advance width="1166.5866666666666"/>
  <unicode hex="0038"/>
  <outline>
    <contour>
      <point x="581.5966666666667" y="-33.269999999999996" type="curve" smooth="yes"/>
      <point x="982.8466666666667" y="-33.269999999999996"/>
      <point x="1102.4866666666667" y="123.39333333333333"/>
      <point x="1102.4866666666667" y="332.87666666666667" type="curve" smooth="yes"/>
      <point x="1102.4866666666667" y="357.48333333333335" type="line" smooth="yes"/>
      <point x="1102.4866666666667" y="533.18"/>
      <point x="1015.2733333333333" y="627.3033333333333"/>
      <point x="845.16" y="663.91" type="curve"/>
      <point x="845.16" y="674.6066666666667" type="line"/>
      <point x="1003.9133333333333" y="703.0"/>
      <point x="1088.79" y="788.8533333333334"/>
      <point x="1088.79" y="946.2133333333334" type="curve" smooth="yes"/>
      <point x="1088.79" y="969.82" type="line" smooth="yes"/>
      <point x="1088.79" y="1177.6966666666667"/>
      <point x="937.43" y="1307.4833333333333"/>
      <point x="581.5966666666667" y="1307.4833333333333" type="curve" smooth="yes"/>
      <point x="230.85333333333332" y="1307.4833333333333"/>
      <point x="78.1" y="1177.6966666666667"/>
      <point x="78.1" y="969.82" type="curve" smooth="yes"/>
      <point x="78.1" y="946.2133333333334" type="line" smooth="yes"/>
      <point x="78.1" y="792.3366666666667"/>
      <point x="162.28" y="702.3033333333333"/>
      <point x="318.9433333333333" y="674.6066666666667" type="curve"/>
      <point x="318.9433333333333" y="663.91" type="line"/>
      <point x="152.61666666666667" y="629.0"/>
      <point x="64.40333333333334" y="530.6966666666667"/>
      <point x="64.40333333333334" y="357.48333333333335" type="curve" smooth="yes"/>
      <point x="64.40333333333334" y="332.87666666666667" type="line" smooth="yes"/>
      <point x="64.40333333333334" y="114.21333333333334"/>
      <point x="198.31333333333333" y="-33.269999999999996"/>
    </contour>
    <contour>
      <point x="585.99" y="213.15" type="curve" smooth="yes"/>
      <point x="429.8233333333333" y="213.15"/>
      <point x="373.99333333333334" y="271.98"/>
      <point x="373.99333333333334" y="364.0233333333333" type="curve" smooth="yes"/>
      <point x="373.99333333333334" y="374.48333333333335" type="line" smooth="yes"/>
      <point x="373.99333333333334" y="461.1333333333333"/>
      <point x="431.15999999999997" y="519.2333333333333"/>
      <point x="574.81" y="543.02" type="curve"/>
      <point x="728.9433333333334" y="519.5366666666666"/>
      <point x="792.8966666666666" y="468.01"/>
      <point x="792.8966666666666" y="374.48333333333335" type="curve" smooth="yes"/>
      <point x="792.8966666666666" y="364.0233333333333" type="line" smooth="yes"/>
      <point x="792.8966666666666" y="273.6766666666667"/>
      <point x="739.7633333333333" y="213.15"/>
    </contour>
    <contour>
      <point x="591.08" y="760.6533333333333" type="curve"/>
      <point x="444.53" y="777.3166666666666"/>
      <point x="380.20666666666665" y="831.7766666666666"/>
      <point x="380.20666666666665" y="923.0666666666667" type="curve" smooth="yes"/>
      <point x="380.20666666666665" y="931.7966666666666" type="line" smooth="yes"/>
      <point x="380.20666666666665" y="1016.93"/>
      <point x="438.61" y="1071.03"/>
      <point x="581.5966666666667" y="1071.03" type="curve" smooth="yes"/>
      <point x="728.9766666666667" y="1071.03"/>
      <point x="786.6833333333334" y="1016.93"/>
      <point x="786.6833333333334" y="930.4033333333333" type="curve" smooth="yes"/>
      <point x="786.6833333333334" y="921.6733333333333" type="line" smooth="yes"/>
      <point x="786.6833333333334" y="830.3833333333333"/>
      <point x="716.18" y="775.2266666666667"/>
    </contour>
  </outline>
</glyph>
<glyph name="nine" format="2">
  <advance width="1159.3966666666668"/>
  <unicode hex="0039"/>
  <outline>
    <contour>
      <point x="563.7433333333333" y="1304.0" type="curve" smooth="yes"/>
      <point x="239.39333333333335" y="1304.0"/>
      <point x="68.28" y="1147.6966666666667"/>
      <point x="68.28" y="877.1333333333333" type="curve" smooth="yes"/>
      <point x="68.28" y="825.46" type="line" smooth="yes"/>
      <point x="68.28" y="584.55"/>
      <point x="193.67333333333335" y="442.24666666666667"/>
      <point x="436.31333333333333" y="442.24666666666667" type="curve" smooth="yes"/>
      <point x="628.1" y="442.24666666666667"/>
      <point x="728.3133333333333" y="528.28"/>
      <point x="763.4366666666667" y="659.2466666666667" type="curve"/>
      <point x="839.63" y="659.2466666666667" type="line"/>
      <point x="778.9533333333334" y="817.3133333333333" type="line"/>
      <point x="740.3466666666667" y="728.9566666666667"/>
      <point x="660.6066666666667" y="676.0933333333334"/>
      <point x="559.3166666666666" y="676.0933333333334" type="curve" smooth="yes"/>
      <point x="428.02666666666664" y="676.0933333333334"/>
      <point x="372.17333333333335" y="737.44"/>
      <point x="372.17333333333335" y="846.7866666666666" type="curve" smooth="yes"/>
      <point x="372.17333333333335" y="870.65" type="line" smooth="yes"/>
      <point x="372.17333333333335" y="977.3"/>
      <point x="430.97" y="1046.4333333333334"/>
      <point x="560.44" y="1046.4333333333334" type="curve" smooth="yes"/>
      <point x="706.9433333333334" y="1046.4333333333334"/>
      <point x="773.4366666666667" y="964.21"/>
      <point x="773.4366666666667" y="791.92" type="curve"/>
      <point x="773.4366666666667" y="537.2266666666667" type="line" smooth="yes"/>
      <point x="773.4366666666667" y="330.7"/>
      <point x="668.6166666666667" y="233.6"/>
      <point x="438.4033333333333" y="233.6" type="curve" smooth="yes"/>
      <point x="306.33666666666664" y="233.6"/>
      <point x="208.37" y="266.1166666666667"/>
      <point x="128.24666666666667" y="304.75666666666666" type="curve"/>
      <point x="159.0" y="32.85333333333333" type="line"/>
      <point x="230.60666666666665" y="0.6400000000000006"/>
      <point x="341.27" y="-27.786666666666665"/>
      <point x="494.14666666666665" y="-27.786666666666665" type="curve" smooth="yes"/>
      <point x="885.52" y="-27.786666666666665"/>
      <point x="1083.2066666666667" y="170.36"/>
      <point x="1083.2066666666667" y="524.26" type="curve" smooth="yes"/>
      <point x="1083.2066666666667" y="762.1666666666666" type="line" smooth="yes"/>
      <point x="1083.2066666666667" y="1118.8533333333332"/>
      <point x="905.3966666666666" y="1304.0"/>
    </contour>
  </outline>
</glyph>
<glyph name="less" format="2">
  <advance width="1028.3033333333333"/>
  <unicode hex="003C"/>
  <outline>
    <contour>
      <point x="294.6433333333333" y="626.2133333333334" type="line"/>
      <point x="931.4733333333334" y="742.75" type="line"/>
      <point x="931.4733333333334" y="999.1366666666667" type="line"/>
      <point x="88.55" y="812.7" type="line"/>
      <point x="88.55" y="419.63666666666666" type="line"/>
      <point x="931.4733333333334" y="233.2" type="line"/>
      <point x="931.4733333333334" y="489.58666666666664" type="line"/>
      <point x="294.6433333333333" y="606.82" type="line"/>
    </contour>
  </outline>
</glyph>
<glyph name="equal" format="2">
  <advance width="1036.5733333333333"/>
  <unicode hex="003D"/>
  <outline>
    <contour>
      <point x="96.97666666666666" y="293.11" type="line"/>
      <point x="939.5966666666667" y="293.11" type="line"/>
      <point x="939.5966666666667" y="531.3166666666666" type="line"/>
      <point x="96.97666666666666" y="531.3166666666666" type="line"/>
    </contour>
    <contour>
      <point x="96.97666666666666" y="707.2" type="line"/>
      <point x="939.5966666666667" y="707.2" type="line"/>
      <point x="939.5966666666667" y="945.4066666666666" type="line"/>
      <point x="96.97666666666666" y="945.4066666666666" type="line"/>
    </contour>
  </outline>
</glyph>
<glyph name="greater" format="2">
  <advance width="1028.3033333333333"/>
  <unicode hex="003E"/>
  <outline>
    <contour>
      <point x="733.66" y="626.2133333333334" type="line"/>
      <point x="733.66" y="606.82" type="line"/>
      <point x="96.83" y="489.58666666666664" type="line"/>
      <point x="96.83" y="233.2" type="line"/>
      <point x="939.7533333333333" y="419.63666666666666" type="line"/>
      <point x="939.7533333333333" y="812.7" type="line"/>
      <point x="96.83" y="999.1366666666667" type="line"/>
      <point x="96.83" y="742.75" type="line"/>
    </contour>
  </outline>
</glyph>
<glyph name="question" format="2">
  <advance width="924.2933333333333"/>
  <unicode hex="003F"/>
  <outline>
    <contour>
      <point x="239.74" y="406.32666666666665" type="line"/>
      <point x="380.12333333333333" y="430.63" type="line" smooth="yes"/>
      <point x="700.4733333333334" y="486.36"/>
      <point x="864.89" y="607.2366666666667"/>
      <point x="864.89" y="881.3833333333333" type="curve" smooth="yes"/>
      <point x="864.89" y="922.0666666666667" type="line" smooth="yes"/>
      <point x="864.89" y="1169.6066666666666"/>
      <point x="719.08" y="1304.4833333333333"/>
      <point x="420.0" y="1304.4833333333333" type="curve" smooth="yes"/>
      <point x="269.96666666666664" y="1304.4833333333333"/>
      <point x="140.39333333333335" y="1267.8433333333332"/>
      <point x="64.51666666666667" y="1233.1133333333332" type="curve"/>
      <point x="31.37" y="973.5133333333333" type="line"/>
      <point x="134.73" y="1014.4566666666667"/>
      <point x="244.97666666666666" y="1044.22"/>
      <point x="358.3466666666667" y="1044.22" type="curve" smooth="yes"/>
      <point x="499.08666666666664" y="1044.22"/>
      <point x="551.6366666666667" y="993.9966666666667"/>
      <point x="551.6366666666667" y="897.4033333333333" type="curve" smooth="yes"/>
      <point x="551.6366666666667" y="872.1133333333333" type="line" smooth="yes"/>
      <point x="551.6366666666667" y="775.15"/>
      <point x="501.02" y="717.6566666666666"/>
      <point x="335.88666666666666" y="685.8033333333333" type="curve" smooth="yes"/>
      <point x="239.74" y="667.5" type="line"/>
    </contour>
    <contour>
      <point x="358.18" y="-27.27" type="curve" smooth="yes"/>
      <point x="469.92333333333335" y="-27.27"/>
      <point x="523.25" y="34.45"/>
      <point x="523.25" y="138.22666666666666" type="curve" smooth="yes"/>
      <point x="523.25" y="148.92333333333335" type="line" smooth="yes"/>
      <point x="523.25" y="251.7"/>
      <point x="469.92333333333335" y="314.1166666666667"/>
      <point x="358.18" y="314.1166666666667" type="curve" smooth="yes"/>
      <point x="245.43666666666667" y="314.1166666666667"/>
      <point x="193.80666666666667" y="251.7"/>
      <point x="193.80666666666667" y="148.92333333333335" type="curve" smooth="yes"/>
      <point x="193.80666666666667" y="138.22666666666666" type="line" smooth="yes"/>
      <point x="193.80666666666667" y="34.45"/>
      <point x="245.43666666666667" y="-27.27"/>
    </contour>
  </outline>
</glyph>
<glyph name="at" format="2">
  <advance width="1712.2933333333333"/>
  <unicode hex="0040"/>
  <outline>
    <contour>
      <point x="708.2233333333334" y="62.730000000000004" type="curve" smooth="yes"/>
      <point x="852.6166666666667" y="62.730000000000004"/>
      <point x="913.2566666666667" y="144.48333333333332"/>
      <point x="944.9866666666667" y="252.75333333333333" type="curve"/>
      <point x="1008.8866666666667" y="252.75333333333333" type="line"/>
      <point x="965.29" y="382.66333333333336" type="line"/>
      <point x="943.1666666666666" y="321.62"/>
      <point x="897.8533333333334" y="286.00333333333333"/>
      <point x="841.9" y="286.00333333333333" type="curve" smooth="yes"/>
      <point x="782.8566666666667" y="286.00333333333333"/>
      <point x="752.5766666666667" y="321.07"/>
      <point x="752.5766666666667" y="385.2366666666667" type="curve" smooth="yes"/>
      <point x="752.5766666666667" y="408.11333333333334"/>
      <point x="753.2733333333333" y="434.29333333333335"/>
      <point x="766.1833333333334" y="543.1233333333333" type="curve" smooth="yes"/>
      <point x="777.7" y="640.5933333333334"/>
      <point x="807.8" y="702.39"/>
      <point x="887.5733333333334" y="702.39" type="curve" smooth="yes"/>
      <point x="956.8866666666667" y="702.39"/>
      <point x="987.4133333333333" y="659.4133333333333"/>
      <point x="987.4133333333333" y="587.73" type="curve" smooth="yes"/>
      <point x="987.4133333333333" y="580.4266666666666"/>
      <point x="987.4133333333333" y="570.0333333333333"/>
      <point x="986.4133333333333" y="560.3366666666667" type="curve"/>
      <point x="1062.7066666666667" y="730.2466666666667" type="line"/>
      <point x="993.11" y="730.2466666666667" type="line"/>
      <point x="979.29" y="843.6066666666667"/>
      <point x="930.1333333333333" y="917.8766666666667"/>
      <point x="795.4366666666667" y="917.8766666666667" type="curve" smooth="yes"/>
      <point x="596.83" y="917.8766666666667"/>
      <point x="517.8866666666667" y="756.64"/>
      <point x="491.19" y="516.73" type="curve" smooth="yes"/>
      <point x="478.9766666666667" y="408.29333333333335"/>
      <point x="476.88666666666666" y="368.87666666666667"/>
      <point x="476.88666666666666" y="342.09" type="curve" smooth="yes"/>
      <point x="476.88666666666666" y="159.12333333333333"/>
      <point x="559.7066666666667" y="62.730000000000004"/>
    </contour>
    <contour>
      <point x="935.47" y="73.64" type="line"/>
      <point x="1190.98" y="110.27" type="line"/>
      <point x="1277.71" y="898.09" type="line"/>
      <point x="1017.5033333333333" y="898.09" type="line"/>
      <point x="1017.2" y="894.7533333333333" type="line"/>
      <point x="1000.2" y="700.9666666666667" type="line"/>
      <point x="996.8966666666666" y="665.3033333333333" type="line"/>
      <point x="956.5933333333334" y="330.87666666666667" type="line"/>
      <point x="959.5933333333334" y="292.91" type="line"/>
    </contour>
    <contour>
      <point x="1134.4733333333334" y="279.91333333333336" type="curve"/>
      <point x="935.47" y="73.64" type="line"/>
      <point x="990.83" y="65.64"/>
      <point x="1053.46" y="63.64"/>
      <point x="1108.2466666666667" y="65.33666666666667" type="curve" smooth="yes"/>
      <point x="1452.71" y="69.73"/>
      <point x="1597.61" y="193.60666666666665"/>
      <point x="1632.9133333333334" y="477.2033333333333" type="curve" smooth="yes"/>
      <point x="1646.7333333333333" y="586.6066666666667"/>
      <point x="1652.0366666666666" y="659.0566666666666"/>
      <point x="1654.0366666666666" y="708.8433333333334" type="curve" smooth="yes"/>
      <point x="1668.5533333333333" y="1118.5733333333333"/>
      <point x="1396.62" y="1341.36"/>
      <point x="926.5066666666667" y="1341.36" type="curve" smooth="yes"/>
      <point x="412.4266666666667" y="1341.36"/>
      <point x="149.67333333333335" y="1080.81"/>
      <point x="93.19" y="636.4866666666667" type="curve" smooth="yes"/>
      <point x="76.88666666666667" y="506.56666666666666"/>
      <point x="67.70666666666666" y="389.1933333333333"/>
      <point x="65.61666666666667" y="324.8233333333333" type="curve" smooth="yes"/>
      <point x="48.89666666666667" y="-125.33666666666667"/>
      <point x="319.49333333333334" y="-344.30333333333334"/>
      <point x="835.3833333333333" y="-344.30333333333334" type="curve" smooth="yes"/>
      <point x="1094.26" y="-344.30333333333334"/>
      <point x="1260.81" y="-297.18"/>
      <point x="1403.5966666666666" y="-240.20333333333332" type="curve"/>
      <point x="1441.1366666666668" y="-27.076666666666668" type="line"/>
      <point x="1297.7766666666666" y="-91.75"/>
      <point x="1108.6533333333334" y="-146.48000000000002"/>
      <point x="851.9566666666667" y="-146.48000000000002" type="curve" smooth="yes"/>
      <point x="465.08" y="-146.48000000000002"/>
      <point x="288.13666666666666" y="13.766666666666666"/>
      <point x="302.07" y="336.00333333333333" type="curve" smooth="yes"/>
      <point x="304.15999999999997" y="392.6766666666667"/>
      <point x="310.55333333333334" y="495.56666666666666"/>
      <point x="334.43" y="641.79" type="curve" smooth="yes"/>
      <point x="379.91333333333336" y="926.0433333333333"/>
      <point x="530.5633333333333" y="1144.84"/>
      <point x="914.9333333333333" y="1144.84" type="curve" smooth="yes"/>
      <point x="1265.5166666666667" y="1144.84"/>
      <point x="1430.7966666666666" y="975.56"/>
      <point x="1419.6733333333334" y="709.3266666666667" type="curve" smooth="yes"/>
      <point x="1417.6733333333334" y="667.9333333333333"/>
      <point x="1411.0666666666666" y="599.6866666666667"/>
      <point x="1396.1566666666668" y="489.77666666666664" type="curve" smooth="yes"/>
      <point x="1376.73" y="346.15999999999997"/>
      <point x="1322.0" y="273.43"/>
      <point x="1210.26" y="273.43" type="curve" smooth="yes"/>
      <point x="1175.5633333333333" y="273.43"/>
      <point x="1161.5633333333333" y="274.43"/>
    </contour>
  </outline>
</glyph>
<glyph name="A" format="2">
  <advance width="1245.88"/>
  <unicode hex="0041"/>
  <anchor x="623.44" y="0.0" name="bottom"/>
  <anchor x="1254.0266666666666" y="0.0" name="ogonek"/>
  <anchor x="623.44" y="1278.0" name="top"/>
  <outline>
    <contour>
      <point x="23.19" y="0.0" type="line"/>
      <point x="339.05" y="0.0" type="line"/>
      <point x="612.53" y="1072.2433333333333" type="line"/>
      <point x="636.1366666666667" y="1072.2433333333333" type="line"/>
      <point x="906.83" y="0.0" type="line"/>
      <point x="1222.69" y="0.0" type="line"/>
      <point x="859.2533333333333" y="1278.0" type="line"/>
      <point x="389.41333333333336" y="1278.0" type="line"/>
    </contour>
    <contour>
      <point x="334.2266666666667" y="301.26666666666665" type="line"/>
      <point x="909.6533333333333" y="301.26666666666665" type="line"/>
      <point x="909.6533333333333" y="543.9" type="line"/>
      <point x="334.2266666666667" y="543.9" type="line"/>
    </contour>
  </outline>
</glyph>
<glyph name="B" format="2">
  <advance width="1219.6766666666667"/>
  <unicode hex="0042"/>
  <anchor x="610.2933333333333" y="0.0" name="bottom"/>
  <anchor x="610.2933333333333" y="1278.0" name="top"/>
  <outline>
    <contour>
      <point x="338.8233333333333" y="0.0" type="line"/>
      <point x="714.26" y="0.0" type="line" smooth="yes"/>
      <point x="1023.5533333333333" y="0.0"/>
      <point x="1157.4866666666667" y="122.91"/>
      <point x="1157.4866666666667" y="362.81" type="curve" smooth="yes"/>
      <point x="1157.4866666666667" y="390.36" type="line" smooth="yes"/>
      <point x="1157.4866666666667" y="572.0233333333333"/>
      <point x="1074.0366666666666" y="673.08"/>
      <point x="885.53" y="698.0233333333333" type="curve"/>
      <point x="885.53" y="708.72" type="line"/>
      <point x="1055.8233333333333" y="720.36"/>
      <point x="1132.4866666666667" y="804.7533333333333"/>
      <point x="1132.4866666666667" y="956.6633333333333" type="curve" smooth="yes"/>
      <point x="1132.4866666666667" y="971.8766666666667" type="line" smooth="yes"/>
      <point x="1132.4866666666667" y="1173.27"/>
      <point x="1006.6433333333333" y="1278.0"/>
      <point x="698.4733333333334" y="1278.0" type="curve" smooth="yes"/>
      <point x="332.73333333333335" y="1278.0" type="line"/>
      <point x="332.73333333333335" y="1037.3666666666668" type="line"/>
      <point x="664.8433333333334" y="1037.3666666666668" type="line" smooth="yes"/>
      <point x="781.74" y="1037.3666666666668"/>
      <point x="823.5033333333333" y="992.9633333333334"/>
      <point x="823.5033333333333" y="907.83" type="curve" smooth="yes"/>
      <point x="823.5033333333333" y="898.1" type="line" smooth="yes"/>
      <point x="823.5033333333333" y="812.0566666666666"/>
      <point x="780.5266666666666" y="764.9566666666667"/>
      <point x="665.1466666666666" y="764.9566666666667" type="curve" smooth="yes"/>
      <point x="333.6433333333333" y="764.9566666666667" type="line"/>
      <point x="333.6433333333333" y="536.5933333333334" type="line"/>
      <point x="673.4166666666666" y="536.5933333333334" type="line" smooth="yes"/>
      <point x="797.0433333333333" y="536.5933333333334"/>
      <point x="842.7166666666667" y="490.5833333333333"/>
      <point x="842.7166666666667" y="399.93333333333334" type="curve" smooth="yes"/>
      <point x="842.7166666666667" y="382.8666666666667" type="line" smooth="yes"/>
      <point x="842.7166666666667" y="292.8233333333333"/>
      <point x="797.0433333333333" y="246.51"/>
      <point x="675.8433333333334" y="246.51" type="curve" smooth="yes"/>
      <point x="338.8233333333333" y="246.51" type="line"/>
    </contour>
    <contour>
      <point x="115.52666666666667" y="0.0" type="line"/>
      <point x="415.93666666666667" y="0.0" type="line"/>
      <point x="415.93666666666667" y="1278.0" type="line"/>
      <point x="115.52666666666667" y="1278.0" type="line"/>
    </contour>
  </outline>
</glyph>
<glyph name="C" format="2">
  <advance width="1042.5966666666666"/>
  <unicode hex="0043"/>
  <anchor x="565.09" y="0.0" name="bottom"/>
  <anchor x="565.09" y="1278.0" name="top"/>
  <outline>
    <contour>
      <point x="617.35" y="-27.786666666666665" type="curve" smooth="yes"/>
      <point x="765.08" y="-27.786666666666665"/>
      <point x="881.3833333333333" y="11.943333333333333"/>
      <point x="956.5633333333333" y="58.24666666666667" type="curve"/>
      <point x="979.53" y="332.24" type="line"/>
      <point x="901.62" y="287.0833333333333"/>
      <point x="808.5533333333333" y="250.44333333333333"/>
      <point x="688.6666666666666" y="250.44333333333333" type="curve" smooth="yes"/>
      <point x="484.6333333333333" y="250.44333333333333"/>
      <point x="396.74666666666667" y="358.24"/>
      <point x="396.74666666666667" y="541.2266666666667" type="curve" smooth="yes"/>
      <point x="396.74666666666667" y="743.47" type="line" smooth="yes"/>
      <point x="396.74666666666667" y="926.4566666666667"/>
      <point x="485.33" y="1033.95"/>
      <point x="677.0933333333334" y="1033.95" type="curve" smooth="yes"/>
      <point x="800.6766666666666" y="1033.95"/>
      <point x="891.9233333333333" y="997.4"/>
      <point x="969.53" y="955.5466666666666" type="curve"/>
      <point x="946.5633333333333" y="1223.8433333333332" type="line"/>
      <point x="869.99" y="1269.1466666666668"/>
      <point x="759.3833333333333" y="1305.7866666666666"/>
      <point x="614.5633333333333" y="1305.7866666666666" type="curve" smooth="yes"/>
      <point x="254.82" y="1305.7866666666666"/>
      <point x="77.1" y="1107.3366666666666"/>
      <point x="77.1" y="755.5266666666666" type="curve" smooth="yes"/>
      <point x="77.1" y="528.6533333333333" type="line" smooth="yes"/>
      <point x="77.1" y="171.36"/>
      <point x="252.73" y="-27.786666666666665"/>
    </contour>
  </outline>
</glyph>
<glyph name="D" format="2">
  <advance width="1243.7666666666667"/>
  <unicode hex="0044"/>
  <anchor x="605.0233333333333" y="0.0" name="bottom"/>
  <anchor x="624.81" y="639.0" name="center"/>
  <anchor x="605.0233333333333" y="1278.0" name="top"/>
  <outline>
    <contour>
      <point x="334.73333333333335" y="0.0" type="line"/>
      <point x="625.2266666666667" y="0.0" type="line" smooth="yes"/>
      <point x="990.0033333333333" y="0.0"/>
      <point x="1169.2733333333333" y="181.48333333333332"/>
      <point x="1169.2733333333333" y="511.84333333333336" type="curve" smooth="yes"/>
      <point x="1169.2733333333333" y="768.8533333333334" type="line" smooth="yes"/>
      <point x="1169.2733333333333" y="1097.5166666666667"/>
      <point x="988.3066666666666" y="1278.0"/>
      <point x="625.2266666666667" y="1278.0" type="curve" smooth="yes"/>
      <point x="334.43" y="1278.0" type="line"/>
      <point x="334.43" y="1019.04" type="line"/>
      <point x="614.0466666666666" y="1019.04" type="line" smooth="yes"/>
      <point x="774.5833333333334" y="1019.04"/>
      <point x="853.7166666666667" y="930.6033333333334"/>
      <point x="853.7166666666667" y="768.55" type="curve" smooth="yes"/>
      <point x="853.7166666666667" y="512.8433333333334" type="line" smooth="yes"/>
      <point x="853.7166666666667" y="351.09333333333336"/>
      <point x="774.5833333333334" y="261.65666666666664"/>
      <point x="614.0466666666666" y="261.65666666666664" type="curve" smooth="yes"/>
      <point x="334.73333333333335" y="261.65666666666664" type="line"/>
    </contour>
    <contour>
      <point x="115.52666666666667" y="0.0" type="line"/>
      <point x="424.2966666666667" y="0.0" type="line"/>
      <point x="424.2966666666667" y="1278.0" type="line"/>
      <point x="115.52666666666667" y="1278.0" type="line"/>
    </contour>
  </outline>
</glyph>
<glyph name="E" format="2">
  <advance width="1091.9233333333334"/>
  <unicode hex="0045"/>
  <anchor x="565.7533333333333" y="0.0" name="bottom"/>
  <anchor x="1016.26" y="0.0" name="ogonek"/>
  <anchor x="565.7533333333333" y="1278.0" name="top"/>
  <anchor x="20.0" y="1278.0" name="topleft"/>
  <outline>
    <contour>
      <point x="115.52666666666667" y="0.0" type="line"/>
      <point x="421.51" y="0.0" type="line"/>
      <point x="421.51" y="1278.0" type="line"/>
      <point x="115.52666666666667" y="1278.0" type="line"/>
    </contour>
    <contour>
      <point x="206.57333333333332" y="0.0" type="line"/>
      <point x="1010.7666666666667" y="0.0" type="line"/>
      <point x="1010.7666666666667" y="260.65666666666664" type="line"/>
      <point x="206.57333333333332" y="260.65666666666664" type="line"/>
    </contour>
    <contour>
      <point x="295.0133333333333" y="523.4133333333333" type="line"/>
      <point x="986.6766666666666" y="523.4133333333333" type="line"/>
      <point x="986.6766666666666" y="773.71" type="line"/>
      <point x="295.0133333333333" y="773.71" type="line"/>
    </contour>
    <contour>
      <point x="206.27" y="1019.7366666666667" type="line"/>
      <point x="1002.3733333333333" y="1019.7366666666667" type="line"/>
      <point x="1002.3733333333333" y="1278.0" type="line"/>
      <point x="206.27" y="1278.0" type="line"/>
    </contour>
  </outline>
</glyph>
<glyph name="F" format="2">
  <advance width="1041.7433333333333"/>
  <unicode hex="0046"/>
  <anchor x="521.72" y="0.0" name="bottom"/>
  <anchor x="521.72" y="1278.0" name="top"/>
  <outline>
    <contour>
      <point x="115.52666666666667" y="0.0" type="line"/>
      <point x="426.99333333333334" y="0.0" type="line"/>
      <point x="426.99333333333334" y="1278.0" type="line"/>
      <point x="115.52666666666667" y="1278.0" type="line"/>
    </contour>
    <contour>
      <point x="295.0133333333333" y="445.03" type="line"/>
      <point x="957.8" y="445.03" type="line"/>
      <point x="957.8" y="707.7766666666666" type="line"/>
      <point x="295.0133333333333" y="707.7766666666666" type="line"/>
    </contour>
    <contour>
      <point x="206.27" y="1014.5566666666666" type="line"/>
      <point x="973.4966666666667" y="1014.5566666666666" type="line"/>
      <point x="973.4966666666667" y="1278.0" type="line"/>
      <point x="206.27" y="1278.0" type="line"/>
    </contour>
  </outline>
</glyph>
<glyph name="G" format="2">
  <advance width="1255.9133333333334"/>
  <unicode hex="0047"/>
  <anchor x="628.7433333333333" y="0.0" name="bottom"/>
  <anchor x="628.7433333333333" y="1278.0" name="top"/>
  <outline>
    <contour>
      <point x="517.7066666666667" y="-28.09" type="curve" smooth="yes"/>
      <point x="735.28" y="-28.09"/>
      <point x="813.2233333333334" y="75.21333333333334"/>
      <point x="844.83" y="212.84333333333333" type="curve"/>
      <point x="1151.1166666666666" y="212.54" type="line"/>
      <point x="1151.1166666666666" y="750.4733333333334" type="line"/>
      <point x="646.3833333333333" y="750.4733333333334" type="line"/>
      <point x="646.3833333333333" y="508.5366666666667" type="line"/>
      <point x="891.7633333333333" y="509.93" type="line"/>
      <point x="851.3133333333333" y="601.5266666666666" type="line"/>
      <point x="851.3133333333333" y="357.8666666666667" type="line"/>
      <point x="819.3133333333333" y="291.7"/>
      <point x="753.6066666666667" y="237.95999999999998"/>
      <point x="641.2266666666667" y="237.95999999999998" type="curve" smooth="yes"/>
      <point x="472.75666666666666" y="237.95999999999998"/>
      <point x="396.05" y="333.88"/>
      <point x="396.05" y="502.2033333333333" type="curve" smooth="yes"/>
      <point x="396.05" y="712.3566666666667" type="line" smooth="yes"/>
      <point x="396.05" y="937.5133333333333"/>
      <point x="501.20666666666665" y="1039.7366666666667"/>
      <point x="736.4533333333334" y="1039.7366666666667" type="curve" smooth="yes"/>
      <point x="896.7566666666667" y="1039.7366666666667"/>
      <point x="1018.6666666666666" y="998.4"/>
      <point x="1119.6333333333332" y="953.1533333333333" type="curve"/>
      <point x="1093.2733333333333" y="1217.1466666666668" type="line"/>
      <point x="997.1266666666667" y="1265.45"/>
      <point x="854.3733333333333" y="1305.7866666666666"/>
      <point x="674.6766666666666" y="1305.7866666666666" type="curve" smooth="yes"/>
      <point x="283.48333333333335" y="1305.7866666666666"/>
      <point x="77.1" y="1106.0333333333333"/>
      <point x="77.1" y="730.29" type="curve" smooth="yes"/>
      <point x="77.1" y="504.68666666666667" type="line" smooth="yes"/>
      <point x="77.1" y="168.05666666666667"/>
      <point x="225.40333333333334" y="-28.09"/>
    </contour>
    <contour>
      <point x="857.5266666666666" y="262.6066666666667" type="line"/>
      <point x="847.83" y="0.0" type="line"/>
      <point x="1151.1166666666666" y="0.0" type="line"/>
      <point x="1151.1166666666666" y="262.6066666666667" type="line"/>
    </contour>
  </outline>
</glyph>
<glyph name="H" format="2">
  <advance width="1306.25"/>
  <unicode hex="0048"/>
  <anchor x="653.4733333333334" y="0.0" name="bottom"/>
  <anchor x="653.4733333333334" y="639.0" name="center"/>
  <anchor x="653.4733333333334" y="1278.0" name="top"/>
  <anchor x="20.0" y="1278.0" name="topleft"/>
  <outline>
    <contour>
      <point x="429.38666666666666" y="0.0" type="line"/>
      <point x="429.38666666666666" y="1278.0" type="line"/>
      <point x="115.52666666666667" y="1278.0" type="line"/>
      <point x="115.52666666666667" y="0.0" type="line"/>
    </contour>
    <contour>
      <point x="1190.7233333333334" y="0.0" type="line"/>
      <point x="1190.7233333333334" y="1278.0" type="line"/>
      <point x="876.8633333333333" y="1278.0" type="line"/>
      <point x="876.8633333333333" y="0.0" type="line"/>
    </contour>
    <contour>
      <point x="296.0133333333333" y="784.4966666666667" type="line"/>
      <point x="296.0133333333333" y="523.1433333333333" type="line"/>
      <point x="994.5733333333334" y="523.1433333333333" type="line"/>
      <point x="994.5733333333334" y="784.4966666666667" type="line"/>
    </contour>
  </outline>
</glyph>
<glyph name="I" format="2">
  <advance width="545.52"/>
  <unicode hex="0049"/>
  <anchor x="272.95666666666665" y="0.0" name="bottom"/>
  <anchor x="459.93666666666667" y="0.0" name="ogonek"/>
  <anchor x="273.6533333333333" y="1278.0" name="top"/>
  <anchor x="20.0" y="1278.0" name="topleft"/>
  <outline>
    <contour>
      <point x="429.69" y="0.0" type="line"/>
      <point x="429.69" y="1278.0" type="line"/>
      <point x="115.83" y="1278.0" type="line"/>
      <point x="115.83" y="0.0" type="line"/>
    </contour>
  </outline>
</glyph>
<glyph name="J" format="2">
  <advance width="833.1466666666666"/>
  <unicode hex="004A"/>
  <anchor x="421.0566666666667" y="0.0" name="bottom"/>
  <anchor x="566.7966666666666" y="1278.0" name="top"/>
  <outline>
    <contour>
      <point x="298.64" y="-19.786666666666665" type="curve" smooth="yes"/>
      <point x="607.3833333333333" y="-19.786666666666665"/>
      <point x="725.9233333333333" y="131.45"/>
      <point x="725.9233333333333" y="423.8" type="curve" smooth="yes"/>
      <point x="725.9233333333333" y="1278.0" type="line"/>
      <point x="412.06333333333333" y="1278.0" type="line"/>
      <point x="412.06333333333333" y="442.76666666666665" type="line" smooth="yes"/>
      <point x="412.06333333333333" y="311.33"/>
      <point x="371.99666666666667" y="248.95999999999998"/>
      <point x="225.98666666666668" y="248.95999999999998" type="curve" smooth="yes"/>
      <point x="162.04333333333332" y="248.95999999999998"/>
      <point x="101.79666666666667" y="261.87"/>
      <point x="40.370000000000005" y="283.20666666666665" type="curve"/>
      <point x="63.03333333333333" y="18.82" type="line"/>
      <point x="130.03333333333333" y="-6.786666666666667"/>
      <point x="215.73" y="-19.786666666666665"/>
    </contour>
  </outline>
</glyph>
<glyph name="K" format="2">
  <advance width="1208.2166666666667"/>
  <unicode hex="004B"/>
  <anchor x="615.9566666666667" y="0.0" name="bottom"/>
  <anchor x="615.9566666666667" y="1278.0" name="top"/>
  <outline>
    <contour>
      <point x="839.8066666666666" y="0.0" type="line"/>
      <point x="1202.9933333333333" y="0.0" type="line"/>
      <point x="736.0966666666667" y="705.81" type="line"/>
      <point x="736.4" y="635.5166666666667" type="line"/>
      <point x="1189.2966666666666" y="1278.0" type="line"/>
      <point x="835.2" y="1278.0" type="line"/>
      <point x="473.2366666666667" y="747.63" type="line"/>
      <point x="394.57666666666665" y="747.63" type="line"/>
      <point x="394.57666666666665" y="560.0666666666667" type="line"/>
      <point x="473.2366666666667" y="560.0666666666667" type="line"/>
    </contour>
    <contour>
      <point x="115.52666666666667" y="0.0" type="line"/>
      <point x="425.99333333333334" y="0.0" type="line"/>
      <point x="425.99333333333334" y="1278.0" type="line"/>
      <point x="115.52666666666667" y="1278.0" type="line"/>
    </contour>
  </outline>
</glyph>
<glyph name="L" format="2">
  <advance width="1013.8333333333334"/>
  <unicode hex="004C"/>
  <anchor x="528.09" y="0.0" name="bottom"/>
  <anchor x="458.12333333333333" y="641.1233333333333" name="center"/>
  <anchor x="272.95666666666665" y="1278.0" name="top"/>
  <anchor x="653.9433333333334" y="1278.0" name="topright"/>
  <outline>
    <contour>
      <point x="429.38666666666666" y="0.0" type="line"/>
      <point x="429.38666666666666" y="1278.0" type="line"/>
      <point x="115.52666666666667" y="1278.0" type="line"/>
      <point x="115.52666666666667" y="0.0" type="line"/>
    </contour>
    <contour>
      <point x="293.8" y="263.35333333333335" type="line"/>
      <point x="293.8" y="0.0" type="line"/>
      <point x="961.71" y="0.0" type="line"/>
      <point x="961.71" y="263.35333333333335" type="line"/>
    </contour>
  </outline>
</glyph>
<glyph name="M" format="2">
  <advance width="1590.51"/>
  <unicode hex="004D"/>
  <anchor x="795.4066666666666" y="0.0" name="bottom"/>
  <anchor x="795.4066666666666" y="1278.0" name="top"/>
  <outline>
    <contour>
      <point x="101.79666666666667" y="0.0" type="line"/>
      <point x="404.78" y="0.0" type="line"/>
      <point x="412.51" y="418.04" type="line"/>
      <point x="421.24" y="929.06" type="line"/>
      <point x="437.24" y="929.06" type="line"/>
      <point x="656.09" y="150.09" type="line"/>
      <point x="934.42" y="150.09" type="line"/>
      <point x="1152.5733333333333" y="929.06" type="line"/>
      <point x="1167.8766666666668" y="929.06" type="line"/>
      <point x="1177.0" y="419.04" type="line"/>
      <point x="1185.73" y="0.0" type="line"/>
      <point x="1488.7133333333334" y="0.0" type="line"/>
      <point x="1448.9833333333333" y="1278.0" type="line"/>
      <point x="1013.01" y="1278.0" type="line"/>
      <point x="802.1033333333334" y="516.2533333333333" type="line"/>
      <point x="789.1033333333334" y="516.2533333333333" type="line"/>
      <point x="578.1966666666667" y="1278.0" type="line"/>
      <point x="141.52666666666667" y="1278.0" type="line"/>
    </contour>
  </outline>
</glyph>
<glyph name="N" format="2">
  <advance width="1306.25"/>
  <unicode hex="004E"/>
  <anchor x="657.8666666666667" y="0.0" name="bottom"/>
  <anchor x="657.8666666666667" y="1278.0" name="top"/>
  <outline>
    <contour>
      <point x="547.1966666666667" y="1278.6966666666667" type="line"/>
      <point x="115.52666666666667" y="1278.6966666666667" type="line"/>
      <point x="115.52666666666667" y="0.0" type="line"/>
      <point x="413.6333333333333" y="0.0" type="line"/>
      <point x="413.6333333333333" y="407.13" type="line"/>
      <point x="400.06" y="959.14" type="line"/>
      <point x="413.4533333333333" y="959.14" type="line"/>
      <point x="771.6266666666667" y="0.0" type="line"/>
      <point x="1190.7233333333334" y="0.0" type="line"/>
      <point x="1190.7233333333334" y="1278.6966666666667" type="line"/>
      <point x="893.3133333333333" y="1278.6966666666667" type="line"/>
      <point x="893.3133333333333" y="880.77" type="line"/>
      <point x="906.8866666666667" y="341.31" type="line"/>
      <point x="893.4933333333333" y="341.31" type="line"/>
    </contour>
  </outline>
</glyph>
<glyph name="O" format="2">
  <advance width="1269.7333333333333"/>
  <unicode hex="004F"/>
  <anchor x="634.8666666666667" y="0.0" name="bottom"/>
  <anchor x="634.8666666666667" y="639.0" name="center"/>
  <anchor x="956.8133333333333" y="5.0" name="ogonek"/>
  <anchor x="634.8666666666667" y="1278.0" name="top"/>
  <anchor x="5.303333333333334" y="1278.0" name="topleft"/>
  <anchor x="1181.6133333333332" y="1278.0" name="topright"/>
  <outline>
    <contour>
      <point x="634.8666666666667" y="-30.876666666666665" type="curve" smooth="yes"/>
      <point x="1006.1833333333334" y="-30.876666666666665"/>
      <point x="1192.6333333333332" y="161.30333333333334"/>
      <point x="1192.6333333333332" y="512.2366666666667" type="curve" smooth="yes"/>
      <point x="1192.6333333333332" y="754.92" type="line" smooth="yes"/>
      <point x="1192.6333333333332" y="1106.9433333333334"/>
      <point x="1004.0933333333334" y="1306.09"/>
      <point x="634.8666666666667" y="1306.09" type="curve" smooth="yes"/>
      <point x="265.33666666666664" y="1306.09"/>
      <point x="77.1" y="1106.9433333333334"/>
      <point x="77.1" y="754.92" type="curve" smooth="yes"/>
      <point x="77.1" y="512.2366666666667" type="line" smooth="yes"/>
      <point x="77.1" y="161.30333333333334"/>
      <point x="263.24666666666667" y="-30.876666666666665"/>
    </contour>
    <contour>
      <point x="634.8666666666667" y="227.38666666666666" type="curve" smooth="yes"/>
      <point x="473.6666666666667" y="227.38666666666666"/>
      <point x="396.05" y="325.12666666666667"/>
      <point x="396.05" y="497.27" type="curve" smooth="yes"/>
      <point x="396.05" y="770.5833333333334" type="line" smooth="yes"/>
      <point x="396.05" y="949.9966666666667"/>
      <point x="473.6666666666667" y="1049.22"/>
      <point x="634.8666666666667" y="1049.22" type="curve" smooth="yes"/>
      <point x="795.0666666666667" y="1049.22"/>
      <point x="873.6833333333334" y="949.9966666666667"/>
      <point x="873.6833333333334" y="770.5833333333334" type="curve" smooth="yes"/>
      <point x="873.6833333333334" y="497.27" type="line" smooth="yes"/>
      <point x="873.6833333333334" y="325.12666666666667"/>
      <point x="795.0666666666667" y="227.38666666666666"/>
    </contour>
  </outline>
</glyph>
<glyph name="P" format="2">
  <advance width="1182.07"/>
  <unicode hex="0050"/>
  <anchor x="590.7766666666666" y="0.0" name="bottom"/>
  <anchor x="590.7766666666666" y="1278.0" name="top"/>
  <outline>
    <contour>
      <point x="325.55333333333334" y="363.3233333333333" type="line"/>
      <point x="654.2933333333333" y="363.3233333333333" type="line" smooth="yes"/>
      <point x="977.25" y="363.3233333333333"/>
      <point x="1124.2733333333333" y="509.8066666666667"/>
      <point x="1124.2733333333333" y="779.9766666666667" type="curve" smooth="yes"/>
      <point x="1124.2733333333333" y="860.9533333333334" type="line" smooth="yes"/>
      <point x="1124.2733333333333" y="1129.4266666666667"/>
      <point x="977.5533333333333" y="1278.0"/>
      <point x="653.2033333333334" y="1278.0" type="curve" smooth="yes"/>
      <point x="325.25" y="1278.0" type="line"/>
      <point x="325.25" y="1025.9166666666667" type="line"/>
      <point x="629.6966666666667" y="1025.9166666666667" type="line" smooth="yes"/>
      <point x="759.83" y="1025.9166666666667"/>
      <point x="814.2" y="968.9066666666666"/>
      <point x="814.2" y="851.7733333333333" type="curve" smooth="yes"/>
      <point x="814.2" y="789.8533333333334" type="line" smooth="yes"/>
      <point x="814.2" y="673.63"/>
      <point x="759.83" y="616.4066666666666"/>
      <point x="629.09" y="616.4066666666666" type="curve" smooth="yes"/>
      <point x="325.55333333333334" y="616.4066666666666" type="line"/>
    </contour>
    <contour>
      <point x="115.52666666666667" y="0.0" type="line"/>
      <point x="423.6" y="0.0" type="line"/>
      <point x="423.6" y="402.86333333333334" type="line"/>
      <point x="421.9033333333333" y="545.1133333333333" type="line"/>
      <point x="421.9033333333333" y="1278.0" type="line"/>
      <point x="115.52666666666667" y="1278.0" type="line"/>
    </contour>
  </outline>
</glyph>
<glyph name="Q" format="2">
  <advance width="1270.34"/>
  <unicode hex="0051"/>
  <anchor x="635.8666666666667" y="0.0" name="bottom"/>
  <anchor x="635.8666666666667" y="1278.0" name="top"/>
  <outline>
    <contour>
      <point x="1263.98" y="-53.843333333333334" type="line"/>
      <point x="1263.98" y="213.81333333333333" type="line"/>
      <point x="911.42" y="201.72333333333333" type="line"/>
      <point x="911.42" y="213.81333333333333" type="line"/>
      <point x="1084.2066666666667" y="243.11666666666667"/>
      <point x="1191.9366666666667" y="359.51"/>
      <point x="1191.9366666666667" y="583.9466666666667" type="curve" smooth="yes"/>
      <point x="1191.9366666666667" y="757.01" type="line" smooth="yes"/>
      <point x="1191.9366666666667" y="1107.64"/>
      <point x="1003.3966666666666" y="1306.09"/>
      <point x="634.8666666666667" y="1306.09" type="curve" smooth="yes"/>
      <point x="265.33666666666664" y="1306.09"/>
      <point x="77.1" y="1107.64"/>
      <point x="77.1" y="755.6166666666667" type="curve" smooth="yes"/>
      <point x="77.1" y="524.08" type="line" smooth="yes"/>
      <point x="77.1" y="166.09"/>
      <point x="260.46" y="-13.303333333333333"/>
      <point x="709.53" y="-31.573333333333334" type="curve" smooth="yes"/>
    </contour>
    <contour>
      <point x="663.08" y="229.78" type="line" smooth="yes"/>
      <point x="498.24" y="235.29666666666668"/>
      <point x="396.05" y="331.39666666666665"/>
      <point x="396.05" y="511.2033333333333" type="curve" smooth="yes"/>
      <point x="396.05" y="769.19" type="line" smooth="yes"/>
      <point x="396.05" y="948.6033333333334"/>
      <point x="473.6666666666667" y="1047.8266666666666"/>
      <point x="634.8666666666667" y="1047.8266666666666" type="curve" smooth="yes"/>
      <point x="795.0666666666667" y="1047.8266666666666"/>
      <point x="873.6833333333334" y="948.6033333333334"/>
      <point x="873.6833333333334" y="769.19" type="curve" smooth="yes"/>
      <point x="873.6833333333334" y="525.1366666666667" type="line" smooth="yes"/>
      <point x="873.6833333333334" y="352.1166666666667"/>
      <point x="798.3033333333333" y="260.87"/>
      <point x="696.1366666666667" y="228.78" type="curve"/>
    </contour>
  </outline>
</glyph>
<glyph name="R" format="2">
  <advance width="1209.6766666666667"/>
  <unicode hex="0052"/>
  <anchor x="614.99" y="0.0" name="bottom"/>
  <anchor x="605.6866666666667" y="1278.0" name="top"/>
  <outline>
    <contour>
      <point x="833.7166666666667" y="0.0" type="line"/>
      <point x="1154.5766666666666" y="0.0" type="line"/>
      <point x="1117.8466666666666" y="277.51666666666665" type="line" smooth="yes"/>
      <point x="1089.9366666666667" y="489.75333333333333"/>
      <point x="1031.2733333333333" y="597.8766666666667"/>
      <point x="798.8233333333334" y="614.5733333333334" type="curve"/>
      <point x="863.3166666666666" y="572.3366666666667" type="line"/>
      <point x="863.3166666666666" y="616.45" type="line"/>
      <point x="1043.2833333333333" y="629.2133333333334"/>
      <point x="1130.0933333333332" y="725.7633333333333"/>
      <point x="1130.0933333333332" y="898.91" type="curve" smooth="yes"/>
      <point x="1130.0933333333332" y="924.64" type="line" smooth="yes"/>
      <point x="1130.0933333333332" y="1152.7866666666666"/>
      <point x="992.16" y="1278.0"/>
      <point x="678.2033333333334" y="1278.0" type="curve" smooth="yes"/>
      <point x="331.0366666666667" y="1278.0" type="line"/>
      <point x="331.0366666666667" y="1028.0066666666667" type="line"/>
      <point x="632.7866666666666" y="1028.0066666666667" type="line" smooth="yes"/>
      <point x="765.65" y="1028.0066666666667"/>
      <point x="818.4133333333333" y="971.6033333333334"/>
      <point x="818.4133333333333" y="858.29" type="curve" smooth="yes"/>
      <point x="818.4133333333333" y="837.9533333333334" type="line" smooth="yes"/>
      <point x="818.4133333333333" y="723.73"/>
      <point x="764.56" y="665.81"/>
      <point x="634.0" y="665.81" type="curve" smooth="yes"/>
      <point x="332.94666666666666" y="664.81" type="line"/>
      <point x="332.94666666666666" y="425.99666666666667" type="line"/>
      <point x="622.0566666666666" y="424.99666666666667" type="line" smooth="yes"/>
      <point x="752.4366666666667" y="424.6933333333333"/>
      <point x="796.74" y="367.9533333333333"/>
      <point x="809.47" y="240.88666666666666" type="curve" smooth="yes"/>
    </contour>
    <contour>
      <point x="115.52666666666667" y="0.0" type="line"/>
      <point x="421.51" y="0.0" type="line"/>
      <point x="421.51" y="463.05333333333334" type="line"/>
      <point x="419.81333333333333" y="579.1566666666666" type="line"/>
      <point x="419.81333333333333" y="1278.0" type="line"/>
      <point x="115.52666666666667" y="1278.0" type="line"/>
    </contour>
  </outline>
</glyph>
<glyph name="S" format="2">
  <advance width="1079.6533333333334"/>
  <unicode hex="0053"/>
  <anchor x="531.3266666666667" y="0.0" name="bottom"/>
  <anchor x="531.3266666666667" y="1278.0" name="top"/>
  <outline>
    <contour>
      <point x="513.27" y="-27.483333333333334" type="curve" smooth="yes"/>
      <point x="853.71" y="-27.483333333333334"/>
      <point x="1017.8566666666667" y="101.78666666666666"/>
      <point x="1017.8566666666667" y="358.68666666666667" type="curve" smooth="yes"/>
      <point x="1017.8566666666667" y="374.50666666666666" type="line" smooth="yes"/>
      <point x="1017.8566666666667" y="609.5633333333333"/>
      <point x="888.1366666666667" y="682.6866666666667"/>
      <point x="622.98" y="761.0466666666666" type="curve" smooth="yes"/>
      <point x="424.51" y="819.35"/>
      <point x="376.35333333333335" y="857.2366666666667"/>
      <point x="376.35333333333335" y="930.2233333333334" type="curve" smooth="yes"/>
      <point x="376.35333333333335" y="933.5266666666666" type="line" smooth="yes"/>
      <point x="376.35333333333335" y="1003.21"/>
      <point x="423.06" y="1043.5233333333333"/>
      <point x="579.1033333333334" y="1043.5233333333333" type="curve" smooth="yes"/>
      <point x="727.35" y="1043.5233333333333"/>
      <point x="858.53" y="1006.0966666666667"/>
      <point x="962.4966666666667" y="955.67" type="curve"/>
      <point x="935.44" y="1224.36" type="line"/>
      <point x="840.99" y="1268.36"/>
      <point x="709.9" y="1305.4833333333333"/>
      <point x="525.81" y="1305.4833333333333" type="curve" smooth="yes"/>
      <point x="219.21333333333334" y="1305.4833333333333"/>
      <point x="58.79666666666667" y="1178.91"/>
      <point x="58.79666666666667" y="947.4933333333333" type="curve" smooth="yes"/>
      <point x="58.79666666666667" y="934.01" type="line" smooth="yes"/>
      <point x="58.79666666666667" y="706.7733333333333"/>
      <point x="190.60666666666665" y="615.3466666666667"/>
      <point x="459.9766666666667" y="535.8966666666666" type="curve" smooth="yes"/>
      <point x="638.3566666666667" y="483.59333333333336"/>
      <point x="698.9066666666666" y="452.31333333333333"/>
      <point x="698.9066666666666" y="370.0233333333333" type="curve" smooth="yes"/>
      <point x="698.9066666666666" y="362.68666666666667" type="line" smooth="yes"/>
      <point x="698.9066666666666" y="279.4866666666667"/>
      <point x="638.29" y="241.17333333333335"/>
      <point x="482.64" y="241.17333333333335" type="curve" smooth="yes"/>
      <point x="321.4266666666667" y="241.17333333333335"/>
      <point x="171.85333333333332" y="291.38666666666666"/>
      <point x="66.76333333333334" y="341.33" type="curve"/>
      <point x="94.12333333333333" y="53.06666666666666" type="line"/>
      <point x="188.96666666666667" y="13.55"/>
      <point x="335.45" y="-27.483333333333334"/>
    </contour>
  </outline>
</glyph>
<glyph name="T" format="2">
  <advance width="1121.98"/>
  <unicode hex="0054"/>
  <anchor x="560.99" y="0.0" name="bottom"/>
  <anchor x="560.99" y="639.0" name="center"/>
  <anchor x="560.99" y="1278.0" name="top"/>
  <outline>
    <contour>
      <point x="404.56" y="0.0" type="line"/>
      <point x="718.42" y="0.0" type="line"/>
      <point x="718.42" y="1217.92" type="line"/>
      <point x="404.56" y="1217.92" type="line"/>
    </contour>
    <contour>
      <point x="51.55" y="1017.3433333333334" type="line"/>
      <point x="1070.43" y="1017.3433333333334" type="line"/>
      <point x="1070.43" y="1278.0" type="line"/>
      <point x="51.55" y="1278.0" type="line"/>
    </contour>
  </outline>
</glyph>
<glyph name="U" format="2">
  <advance width="1286.25"/>
  <unicode hex="0055"/>
  <anchor x="643.4733333333334" y="0.0" name="bottom"/>
  <anchor x="947.06" y="5.0" name="ogonek"/>
  <anchor x="643.4733333333334" y="1278.0" name="top"/>
  <anchor x="1275.7" y="1278.0" name="topright"/>
  <outline>
    <contour>
      <point x="643.4733333333334" y="-30.876666666666665" type="curve" smooth="yes"/>
      <point x="1009.9133333333333" y="-30.876666666666665"/>
      <point x="1180.0266666666666" y="148.87666666666667"/>
      <point x="1180.0266666666666" y="489.68666666666667" type="curve" smooth="yes"/>
      <point x="1180.0266666666666" y="1278.0" type="line"/>
      <point x="866.1666666666666" y="1278.0" type="line"/>
      <point x="866.1666666666666" y="484.3833333333333" type="line" smooth="yes"/>
      <point x="866.1666666666666" y="318.09333333333336"/>
      <point x="797.7966666666666" y="232.78"/>
      <point x="643.4733333333334" y="232.78" type="curve" smooth="yes"/>
      <point x="488.4533333333333" y="232.78"/>
      <point x="420.0833333333333" y="318.09333333333336"/>
      <point x="420.0833333333333" y="484.3833333333333" type="curve" smooth="yes"/>
      <point x="420.0833333333333" y="1278.0" type="line"/>
      <point x="106.22333333333333" y="1278.0" type="line"/>
      <point x="106.22333333333333" y="489.68666666666667" type="line" smooth="yes"/>
      <point x="106.22333333333333" y="148.87666666666667"/>
      <point x="277.33666666666664" y="-30.876666666666665"/>
    </contour>
  </outline>
</glyph>
<glyph name="V" format="2">
  <advance width="1219.0033333333333"/>
  <unicode hex="0056"/>
  <anchor x="609.6533333333333" y="0.0" name="bottom"/>
  <anchor x="609.6533333333333" y="1278.0" name="top"/>
  <outline>
    <contour>
      <point x="373.23333333333335" y="0.0" type="line"/>
      <point x="846.77" y="0.0" type="line"/>
      <point x="1195.8133333333333" y="1278.0" type="line"/>
      <point x="872.9533333333334" y="1278.0" type="line"/>
      <point x="621.35" y="232.51" type="line"/>
      <point x="597.6533333333333" y="232.51" type="line"/>
      <point x="346.74666666666667" y="1278.0" type="line"/>
      <point x="23.19" y="1278.0" type="line"/>
    </contour>
  </outline>
</glyph>
<glyph name="W" format="2">
  <advance width="1719.88"/>
  <unicode hex="0057"/>
  <anchor x="860.44" y="0.0" name="bottom"/>
  <anchor x="860.44" y="1278.0" name="top"/>
  <outline>
    <contour>
      <point x="262.5366666666667" y="0.0" type="line"/>
      <point x="707.9033333333333" y="0.0" type="line"/>
      <point x="817.4866666666667" y="766.6666666666666" type="line"/>
      <point x="852.44" y="991.5233333333333" type="line"/>
      <point x="868.44" y="991.5233333333333" type="line"/>
      <point x="902.6966666666667" y="766.6666666666666" type="line"/>
      <point x="1013.9766666666667" y="0.0" type="line"/>
      <point x="1459.04" y="0.0" type="line"/>
      <point x="1681.3866666666668" y="1278.0" type="line"/>
      <point x="1366.6166666666666" y="1278.0" type="line"/>
      <point x="1243.9333333333334" y="400.75333333333333" type="line"/>
      <point x="1222.1366666666668" y="261.35333333333335" type="line"/>
      <point x="1204.44" y="261.35333333333335" type="line"/>
      <point x="1181.8566666666666" y="401.45" type="line"/>
      <point x="1051.7233333333334" y="1249.4833333333333" type="line"/>
      <point x="669.1566666666666" y="1249.4833333333333" type="line"/>
      <point x="538.0233333333333" y="401.45" type="line"/>
      <point x="515.44" y="261.35333333333335" type="line"/>
      <point x="498.0466666666667" y="261.35333333333335" type="line"/>
      <point x="476.94666666666666" y="401.45" type="line"/>
      <point x="355.65666666666664" y="1278.0" type="line"/>
      <point x="38.49333333333333" y="1278.0" type="line"/>
    </contour>
  </outline>
</glyph>
<glyph name="X" format="2">
  <advance width="1202.7333333333333"/>
  <unicode hex="0058"/>
  <anchor x="601.8666666666667" y="0.0" name="bottom"/>
  <anchor x="601.8666666666667" y="1278.0" name="top"/>
  <outline>
    <contour>
      <point x="23.403333333333332" y="0.0" type="line"/>
      <point x="362.4433333333333" y="0.0" type="line"/>
      <point x="592.7766666666666" y="486.6933333333333" type="line"/>
      <point x="609.5633333333333" y="486.6933333333333" type="line"/>
      <point x="840.29" y="0.0" type="line"/>
      <point x="1179.33" y="0.0" type="line"/>
      <point x="828.0733333333334" y="697.54" type="line"/>
      <point x="828.0733333333334" y="631.64" type="line"/>
      <point x="1166.8466666666666" y="1278.0" type="line"/>
      <point x="834.5933333333334" y="1278.0" type="line"/>
      <point x="609.5633333333333" y="823.52" type="line"/>
      <point x="593.08" y="823.52" type="line"/>
      <point x="368.4433333333333" y="1278.0" type="line"/>
      <point x="36.19" y="1278.0" type="line"/>
      <point x="374.26666666666665" y="631.64" type="line"/>
      <point x="374.26666666666665" y="697.54" type="line"/>
    </contour>
  </outline>
</glyph>
<glyph name="Y" format="2">
  <advance width="1171.2166666666667"/>
  <unicode hex="0059"/>
  <anchor x="585.26" y="0.0" name="bottom"/>
  <anchor x="585.26" y="1278.0" name="top"/>
  <anchor x="20.0" y="1278.0" name="topleft"/>
  <outline>
    <contour>
      <point x="446.31333333333333" y="334.38" type="line"/>
      <point x="725.9033333333333" y="334.38" type="line"/>
      <point x="1161.42" y="1278.0" type="line"/>
      <point x="834.47" y="1278.0" type="line"/>
      <point x="673.2033333333334" y="893.1166666666667" type="line"/>
      <point x="593.6533333333333" y="684.2066666666667" type="line"/>
      <point x="577.8666666666667" y="684.2066666666667" type="line"/>
      <point x="498.31666666666666" y="893.1166666666667" type="line"/>
      <point x="336.05" y="1278.0" type="line"/>
      <point x="9.100000000000001" y="1278.0" type="line"/>
    </contour>
    <contour>
      <point x="432.22333333333336" y="0.0" type="line"/>
      <point x="739.9933333333333" y="0.0" type="line"/>
      <point x="739.9933333333333" y="615.1266666666667" type="line"/>
      <point x="432.22333333333336" y="615.1266666666667" type="line"/>
    </contour>
  </outline>
</glyph>
<glyph name="Z" format="2">
  <advance width="1078.1366666666668"/>
  <unicode hex="005A"/>
  <anchor x="539.72" y="0.0" name="bottom"/>
  <anchor x="539.72" y="639.0" name="center"/>
  <anchor x="539.72" y="1278.0" name="top"/>
  <outline>
    <contour>
      <point x="1015.8566666666667" y="261.65666666666664" type="line"/>
      <point x="424.1633333333333" y="261.65666666666664" type="line"/>
      <point x="1005.7666666666667" y="1034.22" type="line"/>
      <point x="1005.7666666666667" y="1278.0" type="line"/>
      <point x="70.67333333333333" y="1278.0" type="line"/>
      <point x="70.67333333333333" y="1017.6466666666666" type="line"/>
      <point x="642.0966666666667" y="1017.6466666666666" type="line"/>
      <point x="61.88666666666667" y="245.78" type="line"/>
      <point x="61.88666666666667" y="0.0" type="line"/>
      <point x="1015.8566666666667" y="0.0" type="line"/>
    </contour>
  </outline>
</glyph>
<glyph name="bracketleft" format="2">
  <advance width="640.2933333333333"/>
  <unicode hex="005B"/>
  <outline>
    <contour>
      <point x="117.22333333333333" y="-249.57333333333332" type="line"/>
      <point x="590.17" y="-249.57333333333332" type="line"/>
      <point x="590.17" y="-28.423333333333332" type="line"/>
      <point x="399.54333333333335" y="-28.423333333333332" type="line"/>
      <point x="399.54333333333335" y="1129.85" type="line"/>
      <point x="590.17" y="1129.85" type="line"/>
      <point x="590.17" y="1351.0" type="line"/>
      <point x="117.22333333333333" y="1351.0" type="line"/>
    </contour>
  </outline>
</glyph>
<glyph name="backslash" format="2">
  <advance width="916.1833333333334"/>
  <unicode hex="005C"/>
  <outline>
    <contour>
      <point x="926.5333333333333" y="-248.96666666666667" type="line"/>
      <point x="259.12666666666667" y="1348.5733333333333" type="line"/>
      <point x="-10.349999999999998" y="1348.5733333333333" type="line"/>
      <point x="656.7533333333333" y="-248.96666666666667" type="line"/>
    </contour>
  </outline>
</glyph>
<glyph name="bracketright" format="2">
  <advance width="640.2933333333333"/>
  <unicode hex="005D"/>
  <outline>
    <contour>
      <point x="523.07" y="-249.57333333333332" type="line"/>
      <point x="523.07" y="1351.0" type="line"/>
      <point x="50.123333333333335" y="1351.0" type="line"/>
      <point x="50.123333333333335" y="1129.85" type="line"/>
      <point x="240.75" y="1129.85" type="line"/>
      <point x="240.75" y="-28.423333333333332" type="line"/>
      <point x="50.123333333333335" y="-28.423333333333332" type="line"/>
      <point x="50.123333333333335" y="-249.57333333333332" type="line"/>
    </contour>
  </outline>
</glyph>
<glyph name="asciicircum" format="2">
  <advance width="910.6433333333333"/>
  <unicode hex="005E"/>
  <outline>
    <contour>
      <point x="257.89666666666665" y="1278.0" type="line"/>
      <point x="26.403333333333332" y="608.5166666666667" type="line"/>
      <point x="284.88" y="608.5166666666667" type="line"/>
      <point x="448.8666666666667" y="1112.6266666666666" type="line"/>
      <point x="462.8666666666667" y="1112.6266666666666" type="line"/>
      <point x="626.46" y="608.5166666666667" type="line"/>
      <point x="884.24" y="608.5166666666667" type="line"/>
      <point x="652.4433333333334" y="1278.0" type="line"/>
    </contour>
  </outline>
</glyph>
<glyph name="underscore" format="2">
  <advance width="882.9766666666667"/>
  <unicode hex="005F"/>
  <outline>
    <contour>
      <point x="35.370000000000005" y="-275.94666666666666" type="line"/>
      <point x="847.6066666666667" y="-275.94666666666666" type="line"/>
      <point x="847.6066666666667" y="-39.650000000000006" type="line"/>
      <point x="35.370000000000005" y="-39.650000000000006" type="line"/>
    </contour>
  </outline>
</glyph>
<glyph name="grave" format="2">
  <advance width="688.3533333333334"/>
  <unicode hex="0060"/>
  <anchor x="464.76666666666665" y="982.8766666666667" name="_top"/>
  <anchor x="463.8566666666667" y="1358.7766666666666" name="top"/>
  <outline>
    <contour>
      <point x="425.5566666666667" y="1373.5733333333333" type="line"/>
      <point x="107.84333333333333" y="1373.5733333333333" type="line"/>
      <point x="107.84333333333333" y="1369.8766666666668" type="line"/>
      <point x="348.50666666666666" y="1080.46" type="line"/>
      <point x="600.6233333333333" y="1080.46" type="line"/>
      <point x="600.6233333333333" y="1083.46" type="line"/>
    </contour>
  </outline>
</glyph>
<glyph name="a" format="2">
  <advance width="1054.25"/>
  <unicode hex="0061"/>
  <anchor x="523.9566666666667" y="0.0" name="bottom"/>
  <anchor x="996.79" y="0.0" name="ogonek"/>
  <anchor x="523.9566666666667" y="982.8766666666667" name="top"/>
  <outline>
    <contour>
      <point x="664.8633333333333" y="0.0" type="line"/>
      <point x="965.7566666666667" y="0.0" type="line"/>
      <point x="965.7566666666667" y="592.74" type="line" smooth="yes"/>
      <point x="965.7566666666667" y="838.7633333333333"/>
      <point x="856.97" y="1007.9666666666667"/>
      <point x="512.9" y="1007.9666666666667" type="curve" smooth="yes"/>
      <point x="350.9" y="1007.9666666666667"/>
      <point x="218.84333333333333" y="967.3266666666667"/>
      <point x="125.60666666666667" y="922.72" type="curve"/>
      <point x="99.94333333333333" y="685.57" type="line"/>
      <point x="204.39333333333335" y="728.6033333333334"/>
      <point x="323.7866666666667" y="767.6366666666667"/>
      <point x="455.51666666666665" y="767.6366666666667" type="curve" smooth="yes"/>
      <point x="605.7066666666667" y="767.6366666666667"/>
      <point x="665.47" y="717.4466666666667"/>
      <point x="665.47" y="607.8533333333334" type="curve"/>
      <point x="667.2566666666667" y="567.91" type="line"/>
      <point x="667.2566666666667" y="261.30333333333334" type="line"/>
      <point x="674.2566666666667" y="245.93333333333334" type="line"/>
    </contour>
    <contour>
      <point x="351.9766666666667" y="-23.393333333333334" type="curve" smooth="yes"/>
      <point x="555.7066666666667" y="-23.393333333333334"/>
      <point x="631.9533333333334" y="75.42666666666666"/>
      <point x="662.56" y="205.48333333333332" type="curve"/>
      <point x="713.19" y="205.48333333333332" type="line"/>
      <point x="670.1666666666666" y="328.82" type="line"/>
      <point x="644.1666666666666" y="261.8333333333333"/>
      <point x="579.3366666666667" y="206.48666666666668"/>
      <point x="468.2266666666667" y="206.48666666666668" type="curve" smooth="yes"/>
      <point x="382.39666666666665" y="206.48666666666668"/>
      <point x="346.20666666666665" y="243.94666666666666"/>
      <point x="346.20666666666665" y="303.68666666666667" type="curve" smooth="yes"/>
      <point x="346.20666666666665" y="310.72" type="line" smooth="yes"/>
      <point x="346.20666666666665" y="372.55"/>
      <point x="379.39666666666665" y="402.01"/>
      <point x="474.68666666666667" y="415.43666666666667" type="curve" smooth="yes"/>
      <point x="708.6166666666667" y="449.1666666666667" type="line"/>
      <point x="690.65" y="632.9666666666667" type="line"/>
      <point x="426.6066666666667" y="597.9333333333333" type="line" smooth="yes"/>
      <point x="166.06666666666666" y="563.63"/>
      <point x="52.97666666666667" y="482.2366666666667"/>
      <point x="52.97666666666667" y="288.5733333333333" type="curve" smooth="yes"/>
      <point x="52.97666666666667" y="262.0566666666667" type="line" smooth="yes"/>
      <point x="52.97666666666667" y="79.78666666666666"/>
      <point x="156.19" y="-23.393333333333334"/>
    </contour>
  </outline>
</glyph>
<glyph name="b" format="2">
  <advance width="1131.98"/>
  <unicode hex="0062"/>
  <anchor x="576.7766666666666" y="0.0" name="bottom"/>
  <anchor x="576.7766666666666" y="1320.5166666666667" name="top"/>
  <outline>
    <contour>
      <point x="703.3633333333333" y="-23.393333333333334" type="curve" smooth="yes"/>
      <point x="944.06" y="-23.393333333333334"/>
      <point x="1062.3966666666668" y="133.48333333333332"/>
      <point x="1062.3966666666668" y="436.29333333333335" type="curve" smooth="yes"/>
      <point x="1062.3966666666668" y="556.46" type="line" smooth="yes"/>
      <point x="1062.3966666666668" y="854.8766666666667"/>
      <point x="942.2733333333333" y="1006.27"/>
      <point x="713.4533333333334" y="1006.27" type="curve" smooth="yes"/>
      <point x="522.33" y="1006.27"/>
      <point x="440.9033333333333" y="902.09"/>
      <point x="412.0833333333333" y="770.0333333333333" type="curve"/>
      <point x="327.52" y="770.0333333333333" type="line"/>
      <point x="396.99333333333334" y="629.0666666666667" type="line"/>
      <point x="420.51" y="703.75"/>
      <point x="490.52" y="761.58"/>
      <point x="586.0233333333333" y="761.58" type="curve" smooth="yes"/>
      <point x="698.01" y="761.58"/>
      <point x="754.6266666666667" y="696.57"/>
      <point x="754.6266666666667" y="566.19" type="curve" smooth="yes"/>
      <point x="754.6266666666667" y="427.08" type="line" smooth="yes"/>
      <point x="754.6266666666667" y="295.88"/>
      <point x="695.92" y="229.47666666666666"/>
      <point x="585.2366666666667" y="229.47666666666666" type="curve" smooth="yes"/>
      <point x="473.07" y="229.47666666666666"/>
      <point x="405.6" y="297.24"/>
      <point x="402.0833333333333" y="418.74333333333334" type="curve"/>
      <point x="329.06" y="212.84333333333333" type="line"/>
      <point x="407.99333333333334" y="212.84333333333333" type="line"/>
      <point x="438.1166666666667" y="69.48333333333333"/>
      <point x="526.2733333333333" y="-23.393333333333334"/>
    </contour>
    <contour>
      <point x="101.70666666666666" y="0.0" type="line"/>
      <point x="406.38666666666666" y="0.0" type="line"/>
      <point x="396.99333333333334" y="248.50666666666666" type="line"/>
      <point x="402.0833333333333" y="308.4166666666667" type="line"/>
      <point x="402.0833333333333" y="685.1566666666666" type="line"/>
      <point x="401.0833333333333" y="712.19" type="line"/>
      <point x="406.0833333333333" y="1027.3266666666666" type="line"/>
      <point x="406.0833333333333" y="1320.5166666666667" type="line"/>
      <point x="101.70666666666666" y="1320.5166666666667" type="line"/>
    </contour>
  </outline>
</glyph>
<glyph name="c" format="2">
  <advance width="893.9"/>
  <unicode hex="0063"/>
  <anchor x="491.87666666666667" y="0.0" name="bottom"/>
  <anchor x="491.87666666666667" y="982.8766666666667" name="top"/>
  <outline>
    <contour>
      <point x="526.1466666666666" y="-25.786666666666665" type="curve" smooth="yes"/>
      <point x="646.36" y="-25.786666666666665"/>
      <point x="751.0233333333333" y="3.1566666666666663"/>
      <point x="820.3833333333333" y="40.06666666666666" type="curve"/>
      <point x="844.35" y="293.6666666666667" type="line"/>
      <point x="773.26" y="257.02666666666664"/>
      <point x="698.71" y="230.78"/>
      <point x="601.0366666666666" y="230.78" type="curve" smooth="yes"/>
      <point x="445.72333333333336" y="230.78"/>
      <point x="374.2633333333333" y="310.88"/>
      <point x="374.2633333333333" y="454.6533333333333" type="curve" smooth="yes"/>
      <point x="374.2633333333333" y="539.9766666666667" type="line" smooth="yes"/>
      <point x="374.2633333333333" y="681.48"/>
      <point x="439.4533333333333" y="758.1866666666667"/>
      <point x="594.07" y="758.1866666666667" type="curve" smooth="yes"/>
      <point x="692.8333333333334" y="758.1866666666667"/>
      <point x="769.9566666666667" y="729.85"/>
      <point x="834.6533333333333" y="693.21" type="curve"/>
      <point x="809.99" y="945.5066666666667" type="line"/>
      <point x="743.63" y="980.72"/>
      <point x="643.0566666666666" y="1009.6633333333333"/>
      <point x="525.45" y="1009.6633333333333" type="curve" smooth="yes"/>
      <point x="214.55" y="1009.6633333333333"/>
      <point x="66.49333333333334" y="837.1233333333333"/>
      <point x="66.49333333333334" y="545.37" type="curve" smooth="yes"/>
      <point x="66.49333333333334" y="443.3833333333333" type="line" smooth="yes"/>
      <point x="66.49333333333334" y="145.66333333333333"/>
      <point x="213.55" y="-25.786666666666665"/>
    </contour>
  </outline>
</glyph>
<glyph name="d" format="2">
  <advance width="1131.98"/>
  <unicode hex="0064"/>
  <anchor x="555.2033333333334" y="0.0" name="bottom"/>
  <anchor x="555.2033333333334" y="492.09" name="center"/>
  <anchor x="555.2033333333334" y="1320.5166666666667" name="top"/>
  <anchor x="1132.26" y="1320.5166666666667" name="topright"/>
  <outline>
    <contour>
      <point x="418.52666666666664" y="-23.393333333333334" type="curve" smooth="yes"/>
      <point x="612.0433333333333" y="-23.393333333333334"/>
      <point x="694.47" y="80.78666666666666"/>
      <point x="723.9866666666667" y="212.84333333333333" type="curve"/>
      <point x="809.55" y="212.84333333333333" type="line"/>
      <point x="734.9866666666667" y="360.5966666666667" type="line"/>
      <point x="710.0766666666667" y="283.8233333333333"/>
      <point x="645.64" y="229.47666666666666"/>
      <point x="552.53" y="229.47666666666666" type="curve" smooth="yes"/>
      <point x="436.75666666666666" y="229.47666666666666"/>
      <point x="377.35333333333335" y="295.18333333333334"/>
      <point x="377.35333333333335" y="425.26" type="curve" smooth="yes"/>
      <point x="377.35333333333335" y="566.28" type="line" smooth="yes"/>
      <point x="377.35333333333335" y="695.8733333333333"/>
      <point x="437.06" y="761.58"/>
      <point x="549.0466666666666" y="761.58" type="curve" smooth="yes"/>
      <point x="660.4266666666666" y="761.58"/>
      <point x="726.6833333333334" y="692.6033333333334"/>
      <point x="729.8966666666666" y="572.3133333333333" type="curve"/>
      <point x="802.3133333333333" y="770.0333333333333" type="line"/>
      <point x="719.2" y="770.0333333333333" type="line"/>
      <point x="689.7733333333333" y="913.3933333333333"/>
      <point x="602.6166666666667" y="1006.27"/>
      <point x="427.92" y="1006.27" type="curve" smooth="yes"/>
      <point x="187.31333333333333" y="1006.27"/>
      <point x="69.58333333333333" y="849.3933333333333"/>
      <point x="69.58333333333333" y="546.5833333333334" type="curve" smooth="yes"/>
      <point x="69.58333333333333" y="426.4166666666667" type="line" smooth="yes"/>
      <point x="69.58333333333333" y="128.0"/>
      <point x="189.70666666666668" y="-23.393333333333334"/>
    </contour>
    <contour>
      <point x="725.5933333333334" y="0.0" type="line"/>
      <point x="1030.2733333333333" y="0.0" type="line"/>
      <point x="1030.2733333333333" y="1320.5166666666667" type="line"/>
      <point x="725.8966666666666" y="1320.5166666666667" type="line"/>
      <point x="725.8966666666666" y="1027.3266666666666" type="line"/>
      <point x="730.2" y="741.9666666666667" type="line"/>
      <point x="729.8966666666666" y="699.09" type="line"/>
      <point x="729.8966666666666" y="301.45" type="line"/>
      <point x="734.9866666666667" y="248.50666666666666" type="line"/>
    </contour>
  </outline>
</glyph>
<glyph name="e" format="2">
  <advance width="1060.07"/>
  <unicode hex="0065"/>
  <anchor x="543.6866666666667" y="0.0" name="bottom"/>
  <anchor x="926.1733333333333" y="9.393333333333333" name="ogonek"/>
  <anchor x="542.4733333333334" y="982.8766666666667" name="top"/>
  <outline>
    <contour>
      <point x="589.9233333333333" y="-25.09" type="curve" smooth="yes"/>
      <point x="739.2833333333333" y="-25.09"/>
      <point x="865.6433333333333" y="3.336666666666667"/>
      <point x="956.43" y="50.46" type="curve"/>
      <point x="981.3966666666666" y="280.15999999999997" type="line"/>
      <point x="877.8233333333334" y="239.39666666666668"/>
      <point x="765.34" y="215.15"/>
      <point x="645.2166666666667" y="215.15" type="curve" smooth="yes"/>
      <point x="416.55333333333334" y="215.15"/>
      <point x="359.72333333333336" y="298.8233333333333"/>
      <point x="359.72333333333336" y="400.93333333333334" type="curve" smooth="yes"/>
      <point x="359.72333333333336" y="470.51666666666665" type="line"/>
      <point x="358.02666666666664" y="503.96666666666664" type="line"/>
      <point x="358.02666666666664" y="593.8766666666667" type="line" smooth="yes"/>
      <point x="358.02666666666664" y="714.6833333333334"/>
      <point x="412.8233333333333" y="783.6933333333334"/>
      <point x="535.3833333333333" y="783.6933333333334" type="curve" smooth="yes"/>
      <point x="658.2466666666667" y="783.6933333333334"/>
      <point x="713.9533333333334" y="717.38"/>
      <point x="713.9533333333334" y="595.7866666666666" type="curve" smooth="yes"/>
      <point x="713.9533333333334" y="540.6066666666667"/>
      <point x="712.2566666666667" y="470.24666666666667"/>
      <point x="708.1666666666666" y="392.88666666666666" type="curve"/>
      <point x="983.61" y="392.88666666666666" type="line"/>
      <point x="992.0033333333333" y="437.9766666666667"/>
      <point x="996.7" y="493.33666666666664"/>
      <point x="996.7" y="544.2133333333334" type="curve" smooth="yes"/>
      <point x="996.7" y="577.0333333333333" type="line" smooth="yes"/>
      <point x="996.7" y="848.6633333333333"/>
      <point x="842.16" y="1011.6633333333333"/>
      <point x="535.3833333333333" y="1011.6633333333333" type="curve" smooth="yes"/>
      <point x="229.12333333333333" y="1011.6633333333333"/>
      <point x="66.49333333333334" y="846.6966666666667"/>
      <point x="66.49333333333334" y="544.92" type="curve" smooth="yes"/>
      <point x="66.49333333333334" y="442.74333333333334" type="line" smooth="yes"/>
      <point x="66.49333333333334" y="137.66333333333333"/>
      <point x="232.64" y="-25.09"/>
    </contour>
    <contour>
      <point x="228.31666666666666" y="392.88666666666666" type="line"/>
      <point x="922.0133333333333" y="392.88666666666666" type="line"/>
      <point x="922.0133333333333" y="582.3833333333333" type="line"/>
      <point x="228.31666666666666" y="582.3833333333333" type="line"/>
    </contour>
  </outline>
</glyph>
<glyph name="f" format="2">
  <advance width="767.4166666666666"/>
  <unicode hex="0066"/>
  <anchor x="385.5733333333333" y="0.0" name="bottom"/>
  <anchor x="385.5733333333333" y="1313.0" name="top"/>
  <outline>
    <contour>
      <point x="456.30333333333334" y="1353.3933333333334" type="curve" smooth="yes"/>
      <point x="220.49333333333334" y="1353.3933333333334"/>
      <point x="111.52666666666667" y="1269.45"/>
      <point x="111.52666666666667" y="1126.6633333333334" type="curve" smooth="yes"/>
      <point x="111.52666666666667" y="1121.6633333333334" type="line" smooth="yes"/>
      <point x="111.52666666666667" y="1030.5166666666667"/>
      <point x="167.24666666666667" y="973.5166666666667"/>
      <point x="237.45" y="946.6966666666667" type="curve"/>
      <point x="237.45" y="916.0333333333333" type="line"/>
      <point x="435.02666666666664" y="922.82" type="line"/>
      <point x="420.72333333333336" y="945.46"/>
      <point x="410.20666666666665" y="969.83"/>
      <point x="410.20666666666665" y="1001.6833333333334" type="curve" smooth="yes"/>
      <point x="410.20666666666665" y="1004.29" type="line" smooth="yes"/>
      <point x="410.20666666666665" y="1068.9066666666668"/>
      <point x="443.4866666666667" y="1110.58"/>
      <point x="571.16" y="1110.58" type="curve" smooth="yes"/>
      <point x="641.4066666666666" y="1110.58"/>
      <point x="699.62" y="1099.0633333333333"/>
      <point x="754.26" y="1084.3333333333333" type="curve"/>
      <point x="727.5966666666667" y="1310.18" type="line"/>
      <point x="658.5066666666667" y="1334.3933333333334"/>
      <point x="563.5733333333334" y="1353.3933333333334"/>
    </contour>
    <contour>
      <point x="145.22333333333333" y="0.0" type="line"/>
      <point x="449.6" y="0.0" type="line"/>
      <point x="449.6" y="853.1333333333333" type="line"/>
      <point x="145.22333333333333" y="853.1333333333333" type="line"/>
    </contour>
    <contour>
      <point x="12.82" y="698.4" type="line"/>
      <point x="727.6866666666667" y="698.4" type="line"/>
      <point x="753.0466666666666" y="939.3933333333333" type="line"/>
      <point x="392.88" y="939.3933333333333" type="line"/>
      <point x="276.6533333333333" y="937.0" type="line"/>
      <point x="12.82" y="939.3933333333333" type="line"/>
    </contour>
  </outline>
</glyph>
<glyph name="g" format="2">
  <advance width="1062.17"/>
  <unicode hex="0067"/>
  <anchor x="531.2366666666667" y="-345.51666666666665" name="bottom"/>
  <anchor x="530.9333333333333" y="984.09" name="top"/>
  <outline>
    <contour>
      <point x="536.5066666666667" y="305.75333333333333" type="curve"/>
      <point x="839.16" y="305.75333333333333"/>
      <point x="980.16" y="405.2133333333333"/>
      <point x="980.16" y="587.92" type="curve" smooth="yes"/>
      <point x="980.16" y="595.4366666666667" type="line" smooth="yes"/>
      <point x="980.16" y="717.1666666666666"/>
      <point x="916.6766666666666" y="783.7166666666667"/>
      <point x="782.8666666666667" y="805.66" type="curve"/>
      <point x="782.8666666666667" y="815.9633333333334" type="line"/>
      <point x="1043.72" y="808.84" type="line"/>
      <point x="1043.72" y="1025.2366666666667" type="line"/>
      <point x="519.0" y="1000.5733333333334" type="line" smooth="yes"/>
      <point x="202.24666666666667" y="985.6966666666667"/>
      <point x="62.43666666666667" y="870.2366666666667"/>
      <point x="62.43666666666667" y="654.4833333333333" type="curve" smooth="yes"/>
      <point x="62.43666666666667" y="641.27" type="line" smooth="yes"/>
      <point x="62.43666666666667" y="429.84333333333336"/>
      <point x="220.40333333333334" y="305.75333333333333"/>
    </contour>
    <contour>
      <point x="521.54" y="-158.99666666666667" type="line" smooth="yes"/>
      <point x="379.62" y="-158.99666666666667"/>
      <point x="316.4533333333333" y="-128.08666666666667"/>
      <point x="316.4533333333333" y="-65.74000000000001" type="curve" smooth="yes"/>
      <point x="316.4533333333333" y="-63.74" type="line" smooth="yes"/>
      <point x="316.4533333333333" y="-12.91"/>
      <point x="355.2833333333333" y="15.64"/>
      <point x="413.66333333333336" y="26.763333333333335" type="curve"/>
      <point x="346.55" y="22.673333333333332" type="line"/>
      <point x="636.91" y="-5.719999999999999" type="line" smooth="yes"/>
      <point x="715.5033333333333" y="-13.236666666666666"/>
      <point x="754.7166666666667" y="-29.606666666666666"/>
      <point x="754.7166666666667" y="-76.01" type="curve" smooth="yes"/>
      <point x="754.7166666666667" y="-78.31333333333333" type="line" smooth="yes"/>
      <point x="754.7166666666667" y="-132.96333333333334"/>
      <point x="694.64" y="-158.99666666666667"/>
      <point x="552.1133333333333" y="-158.99666666666667" type="curve" smooth="yes"/>
    </contour>
    <contour>
      <point x="506.75333333333333" y="-382.5733333333333" type="curve" smooth="yes"/>
      <point x="545.3266666666667" y="-382.5733333333333" type="line" smooth="yes"/>
      <point x="854.8" y="-382.5733333333333"/>
      <point x="1032.7666666666667" y="-288.03333333333336"/>
      <point x="1032.7666666666667" y="-83.01" type="curve" smooth="yes"/>
      <point x="1032.7666666666667" y="-76.61666666666667" type="line" smooth="yes"/>
      <point x="1032.7666666666667" y="101.71000000000001"/>
      <point x="923.44" y="178.19333333333333"/>
      <point x="696.72" y="204.67666666666668" type="curve" smooth="yes"/>
      <point x="463.5966666666667" y="232.07" type="line" smooth="yes"/>
      <point x="392.8233333333333" y="240.58666666666667"/>
      <point x="363.97" y="249.62"/>
      <point x="363.97" y="279.17" type="curve" smooth="yes"/>
      <point x="363.97" y="280.17" type="line" smooth="yes"/>
      <point x="363.97" y="303.0233333333333"/>
      <point x="381.3066666666667" y="316.0566666666667"/>
      <point x="427.56333333333333" y="316.36" type="curve"/>
      <point x="494.2033333333333" y="315.45" type="line"/>
      <point x="268.0" y="372.4166666666667" type="line"/>
      <point x="268.0" y="338.5733333333333" type="line"/>
      <point x="151.85333333333332" y="333.45"/>
      <point x="88.61666666666667" y="286.36"/>
      <point x="88.61666666666667" y="196.42666666666668" type="curve" smooth="yes"/>
      <point x="88.61666666666667" y="194.73" type="line" smooth="yes"/>
      <point x="88.61666666666667" y="111.28"/>
      <point x="146.06666666666666" y="67.37"/>
      <point x="249.33666666666667" y="48.06666666666666" type="curve"/>
      <point x="249.33666666666667" y="38.06666666666666" type="line"/>
      <point x="121.61666666666667" y="26.64"/>
      <point x="41.79666666666667" y="-32.663333333333334"/>
      <point x="41.79666666666667" y="-146.36" type="curve" smooth="yes"/>
      <point x="41.79666666666667" y="-150.36" type="line" smooth="yes"/>
      <point x="41.79666666666667" y="-318.27"/>
      <point x="209.58333333333334" y="-382.5733333333333"/>
    </contour>
    <contour>
      <point x="526.54" y="511.75666666666666" type="curve" smooth="yes"/>
      <point x="406.55333333333334" y="511.75666666666666"/>
      <point x="349.75666666666666" y="559.16"/>
      <point x="349.75666666666666" y="646.9666666666667" type="curve" smooth="yes"/>
      <point x="349.75666666666666" y="655.3933333333333" type="line" smooth="yes"/>
      <point x="349.75666666666666" y="740.1666666666666"/>
      <point x="403.52" y="790.3"/>
      <point x="525.9333333333333" y="790.3" type="curve" smooth="yes"/>
      <point x="527.45" y="790.3" type="line" smooth="yes"/>
      <point x="645.6166666666667" y="790.3"/>
      <point x="702.11" y="741.5933333333334"/>
      <point x="702.11" y="655.6966666666667" type="curve" smooth="yes"/>
      <point x="702.11" y="646.9666666666667" type="line" smooth="yes"/>
      <point x="702.11" y="559.16"/>
      <point x="645.01" y="511.75666666666666"/>
    </contour>
  </outline>
</glyph>
<glyph name="h" format="2">
  <advance width="1132.9466666666667"/>
  <unicode hex="0068"/>
  <anchor x="567.4733333333334" y="0.0" name="bottom"/>
  <anchor x="567.4733333333334" y="657.0" name="center"/>
  <anchor x="254.04666666666668" y="1320.5166666666667" name="top"/>
  <outline>
    <contour>
      <point x="733.6833333333334" y="0.0" type="line"/>
      <point x="1039.7566666666667" y="0.0" type="line"/>
      <point x="1039.7566666666667" y="626.6966666666667" type="line" smooth="yes"/>
      <point x="1039.7566666666667" y="878.8433333333334"/>
      <point x="941.97" y="1006.27"/>
      <point x="722.7233333333334" y="1006.27" type="curve" smooth="yes"/>
      <point x="529.8466666666667" y="1006.27"/>
      <point x="442.99333333333334" y="902.7866666666666"/>
      <point x="412.78" y="770.0333333333333" type="curve"/>
      <point x="342.18333333333334" y="770.0333333333333" type="line"/>
      <point x="404.17333333333335" y="627.0666666666667" type="line"/>
      <point x="429.0833333333333" y="697.66"/>
      <point x="487.7" y="753.4"/>
      <point x="583.0233333333333" y="753.4" type="curve" smooth="yes"/>
      <point x="697.01" y="753.4"/>
      <point x="733.6833333333334" y="685.7833333333333"/>
      <point x="733.6833333333334" y="577.5266666666666" type="curve" smooth="yes"/>
    </contour>
    <contour>
      <point x="101.70666666666666" y="0.0" type="line"/>
      <point x="407.78" y="0.0" type="line"/>
      <point x="407.78" y="679.0766666666667" type="line"/>
      <point x="401.0833333333333" y="702.83" type="line"/>
      <point x="406.0833333333333" y="1026.63" type="line"/>
      <point x="406.0833333333333" y="1320.5166666666667" type="line"/>
      <point x="101.70666666666666" y="1320.5166666666667" type="line"/>
    </contour>
  </outline>
</glyph>
<glyph name="i" format="2">
  <advance width="510.61"/>
  <unicode hex="0069"/>
  <anchor x="255.65333333333334" y="0.0" name="bottom"/>
  <anchor x="443.9033333333333" y="0.0" name="ogonek"/>
  <outline>
    <contour>
      <point x="102.61666666666667" y="0.0" type="line"/>
      <point x="408.69" y="0.0" type="line"/>
      <point x="408.69" y="982.8766666666667" type="line"/>
      <point x="102.61666666666667" y="982.8766666666667" type="line"/>
    </contour>
    <contour>
      <point x="255.65333333333334" y="1076.02" type="curve" smooth="yes"/>
      <point x="368.18333333333334" y="1076.02"/>
      <point x="419.42" y="1130.65"/>
      <point x="419.42" y="1221.8533333333332" type="curve" smooth="yes"/>
      <point x="419.42" y="1228.64" type="line" smooth="yes"/>
      <point x="419.42" y="1317.8433333333332"/>
      <point x="368.18333333333334" y="1374.4733333333334"/>
      <point x="255.65333333333334" y="1374.4733333333334" type="curve" smooth="yes"/>
      <point x="141.42666666666668" y="1374.4733333333334"/>
      <point x="91.88666666666667" y="1317.8433333333332"/>
      <point x="91.88666666666667" y="1228.64" type="curve" smooth="yes"/>
      <point x="91.88666666666667" y="1221.8533333333332" type="line" smooth="yes"/>
      <point x="91.88666666666667" y="1131.65"/>
      <point x="141.42666666666668" y="1076.02"/>
    </contour>
  </outline>
</glyph>
<glyph name="j" format="2">
  <advance width="527.25"/>
  <unicode hex="006A"/>
  <outline>
    <contour>
      <point x="119.25666666666666" y="164.42666666666668" type="line"/>
      <point x="425.33" y="164.42666666666668" type="line"/>
      <point x="425.33" y="982.8766666666667" type="line"/>
      <point x="119.25666666666666" y="982.8766666666667" type="line"/>
    </contour>
    <contour>
      <point x="272.29333333333335" y="1076.02" type="curve" smooth="yes"/>
      <point x="384.8233333333333" y="1076.02"/>
      <point x="436.06" y="1130.65"/>
      <point x="436.06" y="1221.8533333333332" type="curve" smooth="yes"/>
      <point x="436.06" y="1228.64" type="line" smooth="yes"/>
      <point x="436.06" y="1317.8433333333332"/>
      <point x="384.8233333333333" y="1374.4733333333334"/>
      <point x="272.29333333333335" y="1374.4733333333334" type="curve" smooth="yes"/>
      <point x="158.06666666666666" y="1374.4733333333334"/>
      <point x="108.52666666666667" y="1317.8433333333332"/>
      <point x="108.52666666666667" y="1228.64" type="curve" smooth="yes"/>
      <point x="108.52666666666667" y="1221.8533333333332" type="line" smooth="yes"/>
      <point x="108.52666666666667" y="1131.65"/>
      <point x="158.06666666666666" y="1076.02"/>
    </contour>
    <component base="jbottom"/>
  </outline>
</glyph>
<glyph name="k" format="2">
  <advance width="1086.5433333333333"/>
  <unicode hex="006B"/>
  <anchor x="547.35" y="0.0" name="bottom"/>
  <anchor x="545.8333333333334" y="1320.5166666666667" name="top"/>
  <outline>
    <contour>
      <point x="728.0433333333333" y="0.0" type="line"/>
      <point x="1084.7466666666667" y="0.0" type="line"/>
      <point x="696.8733333333333" y="552.9666666666667" type="line"/>
      <point x="696.8733333333333" y="494.64" type="line"/>
      <point x="1070.5333333333333" y="982.8766666666667" type="line"/>
      <point x="720.3133333333333" y="982.8766666666667" type="line"/>
      <point x="438.31666666666666" y="604.1466666666666" type="line"/>
      <point x="358.43" y="604.1466666666666" type="line"/>
      <point x="358.43" y="424.28" type="line"/>
      <point x="438.0133333333333" y="424.28" type="line"/>
    </contour>
    <contour>
      <point x="101.70666666666666" y="0.0" type="line"/>
      <point x="406.0833333333333" y="0.0" type="line"/>
      <point x="406.0833333333333" y="1320.5166666666667" type="line"/>
      <point x="101.70666666666666" y="1320.5166666666667" type="line"/>
    </contour>
  </outline>
</glyph>
<glyph name="l" format="2">
  <advance width="511.91333333333336"/>
  <unicode hex="006C"/>
  <anchor x="256.95666666666665" y="0.0" name="bottom"/>
  <anchor x="256.95666666666665" y="657.0" name="center"/>
  <anchor x="256.95666666666665" y="1320.5166666666667" name="top"/>
  <anchor x="511.2833333333333" y="1320.5166666666667" name="topright"/>
  <outline>
    <contour>
      <point x="102.92" y="0.0" type="line"/>
      <point x="408.99333333333334" y="0.0" type="line"/>
      <point x="408.99333333333334" y="1320.5166666666667" type="line"/>
      <point x="102.92" y="1320.5166666666667" type="line"/>
    </contour>
  </outline>
</glyph>
<glyph name="m" format="2">
  <advance width="1705.52"/>
  <unicode hex="006D"/>
  <anchor x="850.8666666666667" y="0.0" name="bottom"/>
  <anchor x="850.8666666666667" y="982.8766666666667" name="top"/>
  <outline>
    <contour>
      <point x="1306.2566666666667" y="0.0" type="line"/>
      <point x="1612.33" y="0.0" type="line"/>
      <point x="1612.33" y="635.18" type="line" smooth="yes"/>
      <point x="1612.33" y="881.54"/>
      <point x="1519.15" y="1006.27"/>
      <point x="1309.7233333333334" y="1006.27" type="curve" smooth="yes"/>
      <point x="1116.33" y="1006.27"/>
      <point x="1034.51" y="901.27"/>
      <point x="1003.3866666666667" y="770.0333333333333" type="curve"/>
      <point x="975.51" y="770.0333333333333" type="line"/>
      <point x="1004.9933333333333" y="627.0666666666667" type="line"/>
      <point x="1026.51" y="697.66"/>
      <point x="1081.2166666666667" y="753.4"/>
      <point x="1170.0233333333333" y="753.4" type="curve" smooth="yes"/>
      <point x="1272.4933333333333" y="753.4"/>
      <point x="1306.2566666666667" y="689.1766666666666"/>
      <point x="1306.2566666666667" y="586.01" type="curve" smooth="yes"/>
    </contour>
    <contour>
      <point x="101.70666666666666" y="0.0" type="line"/>
      <point x="407.78" y="0.0" type="line"/>
      <point x="407.78" y="708.4366666666667" type="line"/>
      <point x="396.2966666666667" y="718.3466666666667" type="line"/>
      <point x="406.38666666666666" y="982.8766666666667" type="line"/>
      <point x="101.70666666666666" y="982.8766666666667" type="line"/>
    </contour>
    <contour>
      <point x="704.1333333333333" y="0.0" type="line"/>
      <point x="1009.9033333333333" y="0.0" type="line"/>
      <point x="1009.9033333333333" y="630.4266666666666" type="line" smooth="yes"/>
      <point x="1009.9033333333333" y="661.1233333333333"/>
      <point x="1003.8133333333333" y="704.4833333333333"/>
      <point x="1000.6" y="730.8766666666667" type="curve"/>
      <point x="977.2966666666666" y="909.18"/>
      <point x="889.69" y="1006.27"/>
      <point x="707.2966666666666" y="1006.27" type="curve" smooth="yes"/>
      <point x="519.9366666666667" y="1006.27"/>
      <point x="437.9033333333333" y="902.7866666666666"/>
      <point x="407.99333333333334" y="770.0333333333333" type="curve"/>
      <point x="355.54333333333335" y="770.0333333333333" type="line"/>
      <point x="402.87" y="627.0666666666667" type="line"/>
      <point x="424.38666666666666" y="697.66"/>
      <point x="479.09333333333336" y="753.4"/>
      <point x="567.9" y="753.4" type="curve" smooth="yes"/>
      <point x="670.37" y="753.4"/>
      <point x="704.1333333333333" y="689.1766666666666"/>
      <point x="704.1333333333333" y="586.01" type="curve" smooth="yes"/>
    </contour>
  </outline>
</glyph>
<glyph name="n" format="2">
  <advance width="1132.9466666666667"/>
  <unicode hex="006E"/>
  <anchor x="567.4733333333334" y="0.0" name="bottom"/>
  <anchor x="567.4733333333334" y="982.8766666666667" name="top"/>
  <outline>
    <contour>
      <point x="733.6833333333334" y="0.0" type="line"/>
      <point x="1039.7566666666667" y="0.0" type="line"/>
      <point x="1039.7566666666667" y="626.6966666666667" type="line" smooth="yes"/>
      <point x="1039.7566666666667" y="878.8433333333334"/>
      <point x="941.97" y="1006.27"/>
      <point x="722.7233333333334" y="1006.27" type="curve" smooth="yes"/>
      <point x="525.8466666666667" y="1006.27"/>
      <point x="439.20666666666665" y="902.7866666666666"/>
      <point x="407.99333333333334" y="770.0333333333333" type="curve"/>
      <point x="355.54333333333335" y="770.0333333333333" type="line"/>
      <point x="402.87" y="627.0666666666667" type="line"/>
      <point x="427.78" y="697.66"/>
      <point x="487.39666666666665" y="753.4"/>
      <point x="583.0233333333333" y="753.4" type="curve" smooth="yes"/>
      <point x="696.3133333333333" y="753.4"/>
      <point x="733.6833333333334" y="685.7833333333333"/>
      <point x="733.6833333333334" y="577.5266666666666" type="curve" smooth="yes"/>
    </contour>
    <contour>
      <point x="101.70666666666666" y="0.0" type="line"/>
      <point x="407.78" y="0.0" type="line"/>
      <point x="407.78" y="708.4366666666667" type="line"/>
      <point x="396.2966666666667" y="737.1566666666666" type="line"/>
      <point x="406.38666666666666" y="982.8766666666667" type="line"/>
      <point x="101.70666666666666" y="982.8766666666667" type="line"/>
    </contour>
  </outline>
</glyph>
<glyph name="o" format="2">
  <advance width="1093.4966666666667"/>
  <unicode hex="006F"/>
  <anchor x="547.5966666666667" y="0.0" name="bottom"/>
  <anchor x="549.1133333333333" y="464.78999999999996" name="center"/>
  <anchor x="831.2166666666667" y="8.483333333333334" name="ogonek"/>
  <anchor x="547.5966666666667" y="982.8766666666667" name="top"/>
  <anchor x="1056.1066666666666" y="982.8766666666667" name="topright"/>
  <outline>
    <contour>
      <point x="546.9" y="-28.483333333333334" type="curve" smooth="yes"/>
      <point x="864.8566666666667" y="-28.483333333333334"/>
      <point x="1027.0033333333333" y="137.18"/>
      <point x="1027.0033333333333" y="423.7866666666667" type="curve"/>
      <point x="1027.0033333333333" y="553.0333333333333" type="line"/>
      <point x="1027.0033333333333" y="843.5166666666667"/>
      <point x="863.4633333333334" y="1011.6633333333333"/>
      <point x="546.9" y="1011.6633333333333" type="curve" smooth="yes"/>
      <point x="231.03333333333333" y="1011.6633333333333"/>
      <point x="66.49333333333334" y="843.5166666666667"/>
      <point x="66.49333333333334" y="553.0333333333333" type="curve"/>
      <point x="66.49333333333334" y="423.7866666666667" type="line"/>
      <point x="66.49333333333334" y="137.18"/>
      <point x="229.64" y="-28.483333333333334"/>
    </contour>
    <contour>
      <point x="546.9" y="213.42000000000002" type="curve" smooth="yes"/>
      <point x="433.18333333333334" y="213.42000000000002"/>
      <point x="372.87" y="283.94666666666666"/>
      <point x="372.87" y="411.09" type="curve" smooth="yes"/>
      <point x="372.87" y="566.4266666666666" type="line" smooth="yes"/>
      <point x="372.87" y="698.5366666666666"/>
      <point x="433.18333333333334" y="769.76"/>
      <point x="546.9" y="769.76" type="curve" smooth="yes"/>
      <point x="661.3133333333333" y="769.76"/>
      <point x="720.93" y="698.5366666666666"/>
      <point x="720.93" y="566.4266666666666" type="curve" smooth="yes"/>
      <point x="720.93" y="411.09" type="line" smooth="yes"/>
      <point x="720.93" y="283.94666666666666"/>
      <point x="661.3133333333333" y="213.42000000000002"/>
    </contour>
  </outline>
</glyph>
<glyph name="p" format="2">
  <advance width="1131.98"/>
  <unicode hex="0070"/>
  <anchor x="577.08" y="0.0" name="bottom"/>
  <anchor x="577.08" y="982.8766666666667" name="top"/>
  <outline>
    <contour>
      <point x="703.3633333333333" y="-23.393333333333334" type="curve" smooth="yes"/>
      <point x="944.6666666666666" y="-23.393333333333334"/>
      <point x="1062.3966666666668" y="133.48333333333332"/>
      <point x="1062.3966666666668" y="436.29333333333335" type="curve" smooth="yes"/>
      <point x="1062.3966666666668" y="556.46" type="line" smooth="yes"/>
      <point x="1062.3966666666668" y="854.8766666666667"/>
      <point x="942.2733333333333" y="1006.27"/>
      <point x="713.4533333333334" y="1006.27" type="curve" smooth="yes"/>
      <point x="519.9366666666667" y="1006.27"/>
      <point x="437.51" y="902.09"/>
      <point x="407.99333333333334" y="770.0333333333333" type="curve"/>
      <point x="326.61" y="770.0333333333333" type="line"/>
      <point x="396.99333333333334" y="629.0666666666667" type="line"/>
      <point x="420.51" y="703.75"/>
      <point x="490.52" y="761.58"/>
      <point x="585.72" y="761.58" type="curve" smooth="yes"/>
      <point x="698.01" y="761.58"/>
      <point x="754.6266666666667" y="696.57"/>
      <point x="754.6266666666667" y="566.4933333333333" type="curve" smooth="yes"/>
      <point x="754.6266666666667" y="426.17" type="line" smooth="yes"/>
      <point x="754.6266666666667" y="295.88"/>
      <point x="695.6166666666667" y="229.47666666666666"/>
      <point x="584.3266666666667" y="229.47666666666666" type="curve" smooth="yes"/>
      <point x="471.55333333333334" y="229.47666666666666"/>
      <point x="405.2966666666667" y="297.24"/>
      <point x="402.0833333333333" y="418.74333333333334" type="curve"/>
      <point x="329.6666666666667" y="212.84333333333333" type="line"/>
      <point x="408.6" y="212.84333333333333" type="line"/>
      <point x="438.72333333333336" y="69.48333333333333"/>
      <point x="526.5766666666667" y="-23.393333333333334"/>
    </contour>
    <contour>
      <point x="101.70666666666666" y="-344.0" type="line"/>
      <point x="406.0833333333333" y="-344.0" type="line"/>
      <point x="406.0833333333333" y="-10.313333333333333" type="line"/>
      <point x="397.6" y="252.75333333333333" type="line"/>
      <point x="402.0833333333333" y="305.3833333333333" type="line"/>
      <point x="402.0833333333333" y="683.3366666666667" type="line"/>
      <point x="395.6" y="717.65" type="line"/>
      <point x="406.38666666666666" y="982.8766666666667" type="line"/>
      <point x="101.70666666666666" y="982.8766666666667" type="line"/>
    </contour>
  </outline>
</glyph>
<glyph name="q" format="2">
  <advance width="1131.98"/>
  <unicode hex="0071"/>
  <anchor x="555.2033333333334" y="0.0" name="bottom"/>
  <anchor x="555.2033333333334" y="982.8766666666667" name="top"/>
  <outline>
    <contour>
      <point x="418.52666666666664" y="-23.393333333333334" type="curve" smooth="yes"/>
      <point x="611.74" y="-23.393333333333334"/>
      <point x="693.8633333333333" y="80.78666666666666"/>
      <point x="723.38" y="212.84333333333333" type="curve"/>
      <point x="808.64" y="212.84333333333333" type="line"/>
      <point x="734.9866666666667" y="360.5966666666667" type="line"/>
      <point x="710.0766666666667" y="283.8233333333333"/>
      <point x="645.64" y="229.47666666666666"/>
      <point x="552.2266666666667" y="229.47666666666666" type="curve" smooth="yes"/>
      <point x="436.75666666666666" y="229.47666666666666"/>
      <point x="377.35333333333335" y="295.18333333333334"/>
      <point x="377.35333333333335" y="425.56333333333333" type="curve" smooth="yes"/>
      <point x="377.35333333333335" y="565.37" type="line" smooth="yes"/>
      <point x="377.35333333333335" y="695.8733333333333"/>
      <point x="436.75666666666666" y="761.58"/>
      <point x="548.1366666666667" y="761.58" type="curve" smooth="yes"/>
      <point x="658.91" y="761.58"/>
      <point x="726.38" y="693.8166666666666"/>
      <point x="729.8966666666666" y="572.3133333333333" type="curve"/>
      <point x="807.1" y="770.0333333333333" type="line"/>
      <point x="723.9866666666667" y="770.0333333333333" type="line"/>
      <point x="693.8633333333333" y="913.3933333333333"/>
      <point x="605.7066666666667" y="1006.27"/>
      <point x="427.92" y="1006.27" type="curve" smooth="yes"/>
      <point x="187.92000000000002" y="1006.27"/>
      <point x="69.58333333333333" y="849.3933333333333"/>
      <point x="69.58333333333333" y="546.5833333333334" type="curve" smooth="yes"/>
      <point x="69.58333333333333" y="426.4166666666667" type="line" smooth="yes"/>
      <point x="69.58333333333333" y="128.0"/>
      <point x="189.70666666666668" y="-23.393333333333334"/>
    </contour>
    <contour>
      <point x="725.8966666666666" y="-344.0" type="line"/>
      <point x="1030.2733333333333" y="-344.0" type="line"/>
      <point x="1030.2733333333333" y="982.8766666666667" type="line"/>
      <point x="725.5933333333334" y="982.8766666666667" type="line"/>
      <point x="734.9866666666667" y="746.2133333333334" type="line"/>
      <point x="729.8966666666666" y="697.27" type="line"/>
      <point x="729.8966666666666" y="299.63" type="line"/>
      <point x="734.38" y="253.96666666666667" type="line"/>
      <point x="725.8966666666666" y="-10.313333333333333" type="line"/>
    </contour>
  </outline>
</glyph>
<glyph name="r" format="2">
  <advance width="793.0133333333333"/>
  <unicode hex="0072"/>
  <anchor x="254.74333333333334" y="0.0" name="bottom"/>
  <anchor x="415.75333333333333" y="982.8766666666667" name="top"/>
  <outline>
    <contour>
      <point x="401.87" y="551.9866666666667" type="line"/>
      <point x="443.69" y="639.5233333333333"/>
      <point x="534.5766666666667" y="691.14"/>
      <point x="665.0366666666666" y="691.14" type="curve" smooth="yes"/>
      <point x="703.6766666666666" y="691.14"/>
      <point x="742.98" y="686.9266666666666"/>
      <point x="771.4966666666667" y="680.41" type="curve"/>
      <point x="756.0133333333333" y="989.1466666666666" type="line"/>
      <point x="733.4966666666667" y="994.36"/>
      <point x="709.07" y="998.5733333333334"/>
      <point x="679.52" y="998.5733333333334" type="curve" smooth="yes"/>
      <point x="510.12666666666667" y="998.5733333333334"/>
      <point x="421.00333333333333" y="900.09"/>
      <point x="390.4533333333333" y="737.73" type="curve"/>
      <point x="318.07" y="737.73" type="line"/>
    </contour>
    <contour>
      <point x="101.70666666666666" y="0.0" type="line"/>
      <point x="407.78" y="0.0" type="line"/>
      <point x="407.78" y="665.0666666666667" type="line"/>
      <point x="377.06" y="669.3133333333333" type="line"/>
      <point x="389.54333333333335" y="982.8766666666667" type="line"/>
      <point x="101.70666666666666" y="982.8766666666667" type="line"/>
    </contour>
  </outline>
</glyph>
<glyph name="s" format="2">
  <advance width="932.4066666666666"/>
  <unicode hex="0073"/>
  <anchor x="463.81" y="0.0" name="bottom"/>
  <anchor x="462.11333333333334" y="982.8766666666667" name="top"/>
  <outline>
    <contour>
      <point x="451.84333333333336" y="-24.393333333333334" type="curve" smooth="yes"/>
      <point x="746.2833333333333" y="-24.393333333333334"/>
      <point x="887.0366666666666" y="77.87666666666667"/>
      <point x="887.0366666666666" y="289.77666666666664" type="curve" smooth="yes"/>
      <point x="887.0366666666666" y="298.50666666666666" type="line" smooth="yes"/>
      <point x="887.0366666666666" y="479.56333333333333"/>
      <point x="786.98" y="538.5966666666667"/>
      <point x="541.3733333333333" y="594.3833333333333" type="curve" smooth="yes"/>
      <point x="380.75666666666666" y="630.9"/>
      <point x="343.99333333333334" y="653.09"/>
      <point x="343.99333333333334" y="700.6166666666667" type="curve" smooth="yes"/>
      <point x="343.99333333333334" y="704.1333333333333" type="line" smooth="yes"/>
      <point x="343.99333333333334" y="747.0533333333333"/>
      <point x="377.88" y="771.6366666666667"/>
      <point x="497.1933333333333" y="771.6366666666667" type="curve" smooth="yes"/>
      <point x="626.44" y="771.6366666666667"/>
      <point x="747.1033333333334" y="739.5133333333333"/>
      <point x="842.6766666666666" y="698.48" type="curve"/>
      <point x="817.0133333333333" y="936.72" type="line"/>
      <point x="734.35" y="975.54"/>
      <point x="610.99" y="1008.27"/>
      <point x="459.08" y="1008.27" type="curve" smooth="yes"/>
      <point x="189.69666666666666" y="1008.27"/>
      <point x="48.58333333333333" y="912.09"/>
      <point x="48.58333333333333" y="717.28" type="curve" smooth="yes"/>
      <point x="48.58333333333333" y="708.9766666666667" type="line" smooth="yes"/>
      <point x="48.58333333333333" y="549.19"/>
      <point x="130.67333333333335" y="464.01"/>
      <point x="376.67333333333335" y="406.92" type="curve" smooth="yes"/>
      <point x="540.3233333333334" y="369.19"/>
      <point x="586.75" y="352.6066666666667"/>
      <point x="586.75" y="297.99" type="curve" smooth="yes"/>
      <point x="586.75" y="294.17" type="line" smooth="yes"/>
      <point x="586.75" y="241.82333333333332"/>
      <point x="543.1333333333333" y="217.93666666666667"/>
      <point x="426.91" y="217.93666666666667" type="curve" smooth="yes"/>
      <point x="281.69666666666666" y="217.93666666666667"/>
      <point x="156.33666666666667" y="257.8466666666667"/>
      <point x="54.156666666666666" y="300.88" type="curve"/>
      <point x="79.82" y="43.85333333333333" type="line"/>
      <point x="168.87666666666667" y="7.640000000000001"/>
      <point x="295.2366666666667" y="-24.393333333333334"/>
    </contour>
  </outline>
</glyph>
<glyph name="t" format="2">
  <advance width="810.5066666666667"/>
  <unicode hex="0074"/>
  <anchor x="445.12333333333333" y="0.0" name="bottom"/>
  <anchor x="406.96666666666664" y="492.09" name="center"/>
  <anchor x="299.74333333333334" y="1212.4833333333333" name="top"/>
  <anchor x="579.45" y="1428.45" name="topright"/>
  <outline>
    <contour>
      <point x="494.96666666666664" y="-22.09" type="curve" smooth="yes"/>
      <point x="599.2033333333334" y="-22.09"/>
      <point x="688.99" y="-3.3933333333333335"/>
      <point x="757.17" y="27.213333333333335" type="curve"/>
      <point x="783.2266666666667" y="279.6" type="line"/>
      <point x="730.1933333333334" y="257.56666666666666"/>
      <point x="664.4633333333334" y="241.26333333333332"/>
      <point x="598.61" y="241.26333333333332" type="curve" smooth="yes"/>
      <point x="480.4533333333333" y="241.26333333333332"/>
      <point x="444.69" y="284.1166666666667"/>
      <point x="444.69" y="379.73333333333335" type="curve" smooth="yes"/>
      <point x="444.69" y="880.19" type="line"/>
      <point x="141.31333333333333" y="880.19" type="line"/>
      <point x="141.31333333333333" y="330.95666666666665" type="line" smooth="yes"/>
      <point x="141.31333333333333" y="98.14666666666666"/>
      <point x="233.1" y="-22.09"/>
    </contour>
    <contour>
      <point x="9.213333333333333" y="738.94" type="line"/>
      <point x="747.4733333333334" y="738.94" type="line"/>
      <point x="773.53" y="979.2366666666667" type="line"/>
      <point x="9.213333333333333" y="979.2366666666667" type="line"/>
    </contour>
    <contour>
      <point x="145.40333333333334" y="957.36" type="line"/>
      <point x="436.20666666666665" y="957.36" type="line"/>
      <point x="446.99333333333334" y="1239.6066666666666" type="line"/>
      <point x="144.40333333333334" y="1211.0333333333333" type="line"/>
    </contour>
  </outline>
</glyph>
<glyph name="u" format="2">
  <advance width="1132.9466666666667"/>
  <unicode hex="0075"/>
  <anchor x="567.4733333333334" y="0.0" name="bottom"/>
  <anchor x="1066.4533333333334" y="0.0" name="ogonek"/>
  <anchor x="567.4733333333334" y="982.8766666666667" name="top"/>
  <anchor x="1119.0366666666666" y="982.8766666666667" name="topright"/>
  <outline>
    <contour>
      <point x="399.2633333333333" y="982.8766666666667" type="line"/>
      <point x="93.19" y="982.8766666666667" type="line"/>
      <point x="93.19" y="356.18" type="line" smooth="yes"/>
      <point x="93.19" y="104.03333333333333"/>
      <point x="190.97666666666666" y="-23.393333333333334"/>
      <point x="410.22333333333336" y="-23.393333333333334" type="curve" smooth="yes"/>
      <point x="607.1" y="-23.393333333333334"/>
      <point x="693.74" y="80.09"/>
      <point x="724.9533333333334" y="212.84333333333333" type="curve"/>
      <point x="777.4033333333333" y="212.84333333333333" type="line"/>
      <point x="730.0766666666667" y="355.81" type="line"/>
      <point x="705.1666666666666" y="285.2166666666667"/>
      <point x="645.55" y="229.47666666666666"/>
      <point x="549.9233333333333" y="229.47666666666666" type="curve" smooth="yes"/>
      <point x="436.6333333333333" y="229.47666666666666"/>
      <point x="399.2633333333333" y="297.09333333333336"/>
      <point x="399.2633333333333" y="405.35" type="curve" smooth="yes"/>
    </contour>
    <contour>
      <point x="1031.24" y="982.8766666666667" type="line"/>
      <point x="725.1666666666666" y="982.8766666666667" type="line"/>
      <point x="725.1666666666666" y="274.44" type="line"/>
      <point x="736.65" y="245.72" type="line"/>
      <point x="726.56" y="0.0" type="line"/>
      <point x="1031.24" y="0.0" type="line"/>
    </contour>
  </outline>
</glyph>
<glyph name="v" format="2">
  <advance width="1051.8566666666666"/>
  <unicode hex="0076"/>
  <anchor x="526.08" y="0.0" name="bottom"/>
  <anchor x="526.08" y="982.8766666666667" name="top"/>
  <outline>
    <contour>
      <point x="539.8666666666667" y="200.2733333333333" type="line"/>
      <point x="516.17" y="200.2733333333333" type="line"/>
      <point x="335.4433333333333" y="982.8766666666667" type="line"/>
      <point x="18.886666666666667" y="982.8766666666667" type="line"/>
      <point x="281.7833333333333" y="0.0" type="line"/>
      <point x="772.1633333333333" y="0.0" type="line"/>
      <point x="1032.97" y="982.8766666666667" type="line"/>
      <point x="719.2" y="982.8766666666667" type="line"/>
    </contour>
  </outline>
</glyph>
<glyph name="w" format="2">
  <advance width="1565.34"/>
  <unicode hex="0077"/>
  <anchor x="783.17" y="0.0" name="bottom"/>
  <anchor x="783.17" y="982.8766666666667" name="top"/>
  <outline>
    <contour>
      <point x="222.96333333333334" y="0.0" type="line"/>
      <point x="659.69" y="0.0" type="line"/>
      <point x="759.3166666666666" y="626.1433333333333" type="line"/>
      <point x="776.5633333333333" y="736.4566666666667" type="line"/>
      <point x="791.17" y="736.4566666666667" type="line"/>
      <point x="808.0233333333333" y="626.1433333333333" type="line"/>
      <point x="906.9533333333334" y="0.0" type="line"/>
      <point x="1342.3766666666666" y="0.0" type="line"/>
      <point x="1538.9366666666667" y="982.8766666666667" type="line"/>
      <point x="1232.3466666666666" y="982.8766666666667" type="line"/>
      <point x="1108.9" y="216.24" type="line"/>
      <point x="1092.2033333333334" y="216.24" type="line"/>
      <point x="970.33" y="958.9666666666667" type="line"/>
      <point x="596.01" y="958.9666666666667" type="line"/>
      <point x="476.2266666666667" y="216.24" type="line"/>
      <point x="457.8333333333333" y="216.24" type="line"/>
      <point x="336.38666666666666" y="982.8766666666667" type="line"/>
      <point x="26.403333333333332" y="982.8766666666667" type="line"/>
    </contour>
  </outline>
</glyph>
<glyph name="x" format="2">
  <advance width="1061.2733333333333"/>
  <unicode hex="0078"/>
  <anchor x="531.1366666666667" y="0.0" name="bottom"/>
  <anchor x="531.1366666666667" y="982.8766666666667" name="top"/>
  <outline>
    <contour>
      <point x="19.706666666666667" y="0.0" type="line"/>
      <point x="348.65666666666664" y="0.0" type="line"/>
      <point x="522.0466666666666" y="361.23333333333335" type="line"/>
      <point x="540.53" y="361.23333333333335" type="line"/>
      <point x="712.6166666666667" y="0.0" type="line"/>
      <point x="1041.5666666666666" y="0.0" type="line"/>
      <point x="757.8266666666667" y="553.0233333333333" type="line"/>
      <point x="757.8266666666667" y="470.15666666666664" type="line"/>
      <point x="1033.87" y="982.8766666666667" type="line"/>
      <point x="705.6166666666667" y="982.8766666666667" type="line"/>
      <point x="540.53" y="639.2833333333333" type="line"/>
      <point x="522.0466666666666" y="639.2833333333333" type="line"/>
      <point x="356.35333333333335" y="982.8766666666667" type="line"/>
      <point x="27.403333333333332" y="982.8766666666667" type="line"/>
      <point x="304.1433333333333" y="470.15666666666664" type="line"/>
      <point x="304.1433333333333" y="553.0233333333333" type="line"/>
    </contour>
  </outline>
</glyph>
<glyph name="y" format="2">
  <advance width="1052.8566666666666"/>
  <unicode hex="0079"/>
  <anchor x="860.4133333333333" y="-56.650000000000006" name="bottom"/>
  <anchor x="527.08" y="982.8766666666667" name="top"/>
  <outline>
    <contour>
      <point x="664.06" y="244.75666666666666" type="line"/>
      <point x="504.2033333333333" y="244.75666666666666" type="line"/>
      <point x="334.05" y="982.8766666666667" type="line"/>
      <point x="18.886666666666667" y="982.8766666666667" type="line"/>
      <point x="285.48" y="42.39333333333333" type="line"/>
      <point x="624.2166666666667" y="42.39333333333333" type="line"/>
      <point x="480.48333333333335" y="156.10333333333332" type="line"/>
      <point x="326.87666666666667" y="-344.0" type="line"/>
      <point x="632.86" y="-344.0" type="line"/>
      <point x="1033.97" y="982.8766666666667" type="line"/>
      <point x="720.8066666666666" y="982.8766666666667" type="line"/>
      <point x="500.14666666666665" y="173.98" type="line"/>
    </contour>
  </outline>
</glyph>
<glyph name="z" format="2">
  <advance width="949.62"/>
  <unicode hex="007A"/>
  <anchor x="474.81" y="0.0" name="bottom"/>
  <anchor x="475.11333333333334" y="492.09" name="center"/>
  <anchor x="474.81" y="982.8766666666667" name="top"/>
  <outline>
    <contour>
      <point x="884.07" y="251.17333333333335" type="line"/>
      <point x="432.9166666666667" y="251.17333333333335" type="line"/>
      <point x="878.3733333333333" y="756.0633333333333" type="line"/>
      <point x="878.3733333333333" y="982.8766666666667" type="line"/>
      <point x="69.24666666666667" y="982.8766666666667" type="line"/>
      <point x="69.24666666666667" y="732.7033333333334" type="line"/>
      <point x="509.61333333333334" y="732.7033333333334" type="line"/>
      <point x="65.55" y="227.81333333333333" type="line"/>
      <point x="65.55" y="0.0" type="line"/>
      <point x="884.07" y="0.0" type="line"/>
    </contour>
  </outline>
</glyph>
<glyph name="braceleft" format="2">
  <advance width="695.4166666666666"/>
  <unicode hex="007B"/>
  <outline>
    <contour>
      <point x="647.2933333333333" y="1333.4833333333333" type="line"/>
      <point x="598.1133333333333" y="1346.09"/>
      <point x="538.9333333333333" y="1356.09"/>
      <point x="479.54" y="1356.09" type="curve" smooth="yes"/>
      <point x="270.06666666666666" y="1356.09"/>
      <point x="169.74" y="1266.4266666666667"/>
      <point x="169.74" y="1047.2566666666667" type="curve" smooth="yes"/>
      <point x="169.74" y="983.5833333333334"/>
      <point x="183.04333333333332" y="851.46"/>
      <point x="183.04333333333332" y="795.18" type="curve" smooth="yes"/>
      <point x="183.04333333333332" y="717.2933333333333"/>
      <point x="149.74" y="678.44"/>
      <point x="53.64" y="673.53" type="curve"/>
      <point x="53.64" y="429.11" type="line"/>
      <point x="149.74" y="423.89666666666665"/>
      <point x="183.04333333333332" y="385.74"/>
      <point x="183.04333333333332" y="307.55" type="curve" smooth="yes"/>
      <point x="183.04333333333332" y="251.57333333333332"/>
      <point x="169.74" y="119.14666666666666"/>
      <point x="169.74" y="53.86666666666667" type="curve" smooth="yes"/>
      <point x="169.74" y="-166.69666666666666"/>
      <point x="270.06666666666666" y="-256.66333333333336"/>
      <point x="479.54" y="-256.66333333333336" type="curve" smooth="yes"/>
      <point x="538.9333333333333" y="-256.66333333333336"/>
      <point x="597.4166666666666" y="-247.36"/>
      <point x="647.2933333333333" y="-234.05666666666667" type="curve"/>
      <point x="647.2933333333333" y="-17.99666666666667" type="line"/>
      <point x="625.9566666666667" y="-23.816666666666663"/>
      <point x="599.0133333333333" y="-29.03"/>
      <point x="569.16" y="-29.03" type="curve" smooth="yes"/>
      <point x="487.09333333333336" y="-29.03"/>
      <point x="455.36333333333334" y="5.306666666666665"/>
      <point x="455.36333333333334" y="87.10333333333332" type="curve" smooth="yes"/>
      <point x="455.36333333333334" y="139.38333333333333"/>
      <point x="468.6666666666667" y="264.32666666666665"/>
      <point x="468.6666666666667" y="323.82" type="curve" smooth="yes"/>
      <point x="468.6666666666667" y="448.51666666666665"/>
      <point x="426.78999999999996" y="529.4266666666666"/>
      <point x="281.52" y="547.82" type="curve"/>
      <point x="293.7" y="539.91" type="line"/>
      <point x="293.7" y="557.5166666666667" type="line"/>
      <point x="427.4866666666667" y="578.91"/>
      <point x="468.6666666666667" y="655.2133333333334"/>
      <point x="468.6666666666667" y="778.2133333333334" type="curve" smooth="yes"/>
      <point x="468.6666666666667" y="837.4033333333333"/>
      <point x="455.36333333333334" y="962.0433333333333"/>
      <point x="455.36333333333334" y="1014.3233333333334" type="curve" smooth="yes"/>
      <point x="455.36333333333334" y="1095.8166666666666"/>
      <point x="486.39666666666665" y="1130.1533333333334"/>
      <point x="565.7666666666667" y="1130.1533333333334" type="curve" smooth="yes"/>
      <point x="597.3166666666666" y="1130.1533333333334"/>
      <point x="625.26" y="1124.94"/>
      <point x="647.2933333333333" y="1119.4233333333334" type="curve"/>
    </contour>
  </outline>
</glyph>
<glyph name="bar" format="2">
  <advance width="523.9566666666667"/>
  <unicode hex="007C"/>
  <outline>
    <contour>
      <point x="389.2166666666667" y="-418.7633333333333" type="line"/>
      <point x="389.2166666666667" y="1421.0" type="line"/>
      <point x="134.74" y="1421.0" type="line"/>
      <point x="134.74" y="-418.7633333333333" type="line"/>
    </contour>
  </outline>
</glyph>
<glyph name="braceright" format="2">
  <advance width="695.4166666666666"/>
  <unicode hex="007D"/>
  <outline>
    <contour>
      <point x="48.123333333333335" y="1333.4833333333333" type="curve"/>
      <point x="48.123333333333335" y="1119.4233333333334" type="line"/>
      <point x="70.15666666666667" y="1124.94"/>
      <point x="98.1" y="1130.1533333333334"/>
      <point x="129.65" y="1130.1533333333334" type="curve" smooth="yes"/>
      <point x="209.02" y="1130.1533333333334"/>
      <point x="240.05333333333334" y="1095.8166666666666"/>
      <point x="240.05333333333334" y="1014.3233333333334" type="curve" smooth="yes"/>
      <point x="240.05333333333334" y="962.0433333333333"/>
      <point x="226.75" y="837.4033333333333"/>
      <point x="226.75" y="778.2133333333334" type="curve" smooth="yes"/>
      <point x="226.75" y="655.2133333333334"/>
      <point x="267.93" y="578.91"/>
      <point x="401.7166666666667" y="557.5166666666667" type="curve"/>
      <point x="401.7166666666667" y="539.91" type="line"/>
      <point x="413.89666666666665" y="547.82" type="line"/>
      <point x="268.62666666666667" y="529.4266666666666"/>
      <point x="226.75" y="448.51666666666665"/>
      <point x="226.75" y="323.82" type="curve" smooth="yes"/>
      <point x="226.75" y="264.32666666666665"/>
      <point x="240.05333333333334" y="139.38333333333333"/>
      <point x="240.05333333333334" y="87.10333333333332" type="curve" smooth="yes"/>
      <point x="240.05333333333334" y="5.306666666666665"/>
      <point x="208.32333333333332" y="-29.03"/>
      <point x="126.25666666666666" y="-29.03" type="curve" smooth="yes"/>
      <point x="96.40333333333334" y="-29.03"/>
      <point x="69.46000000000001" y="-23.816666666666663"/>
      <point x="48.123333333333335" y="-17.99666666666667" type="curve"/>
      <point x="48.123333333333335" y="-234.05666666666667" type="line"/>
      <point x="98.0" y="-247.36"/>
      <point x="156.48333333333332" y="-256.66333333333336"/>
      <point x="215.87666666666667" y="-256.66333333333336" type="curve" smooth="yes"/>
      <point x="425.35" y="-256.66333333333336"/>
      <point x="525.6766666666666" y="-166.69666666666666"/>
      <point x="525.6766666666666" y="53.86666666666667" type="curve" smooth="yes"/>
      <point x="525.6766666666666" y="119.14666666666666"/>
      <point x="512.3733333333333" y="251.57333333333332"/>
      <point x="512.3733333333333" y="307.55" type="curve" smooth="yes"/>
      <point x="512.3733333333333" y="385.74"/>
      <point x="545.6766666666666" y="423.89666666666665"/>
      <point x="641.7766666666666" y="429.11" type="curve"/>
      <point x="641.7766666666666" y="673.53" type="line"/>
      <point x="545.6766666666666" y="678.44"/>
      <point x="512.3733333333333" y="717.2933333333333"/>
      <point x="512.3733333333333" y="795.18" type="curve" smooth="yes"/>
      <point x="512.3733333333333" y="851.46"/>
      <point x="525.6766666666666" y="983.5833333333334"/>
      <point x="525.6766666666666" y="1047.2566666666667" type="curve" smooth="yes"/>
      <point x="525.6766666666666" y="1266.4266666666667"/>
      <point x="425.35" y="1356.09"/>
      <point x="215.87666666666667" y="1356.09" type="curve" smooth="yes"/>
      <point x="156.48333333333332" y="1356.09"/>
      <point x="97.30333333333333" y="1346.09"/>
    </contour>
  </outline>
</glyph>
<glyph name="asciitilde" format="2">
  <advance width="1104.9"/>
  <unicode hex="007E"/>
  <outline>
    <contour>
      <point x="751.18" y="464.85333333333335" type="curve" smooth="yes"/>
      <point x="938.35" y="464.85333333333335"/>
      <point x="1010.89" y="576.27"/>
      <point x="1010.89" y="765.2266666666667" type="curve" smooth="yes"/>
      <point x="1010.89" y="823.7333333333333" type="line"/>
      <point x="794.1333333333333" y="823.7333333333333" type="line"/>
      <point x="794.1333333333333" y="815.79" type="line" smooth="yes"/>
      <point x="792.0433333333333" y="748.6666666666666"/>
      <point x="774.92" y="714.24"/>
      <point x="713.7966666666666" y="714.24" type="curve" smooth="yes"/>
      <point x="619.82" y="714.24"/>
      <point x="500.84333333333336" y="796.7666666666667"/>
      <point x="353.0233333333333" y="796.7666666666667" type="curve" smooth="yes"/>
      <point x="166.24666666666667" y="796.7666666666667"/>
      <point x="94.01" y="686.53"/>
      <point x="94.01" y="496.09" type="curve" smooth="yes"/>
      <point x="94.01" y="437.19" type="line"/>
      <point x="310.4633333333333" y="437.19" type="line"/>
      <point x="310.4633333333333" y="448.31333333333333" type="line" smooth="yes"/>
      <point x="312.55333333333334" y="513.4366666666667"/>
      <point x="330.2833333333333" y="546.38"/>
      <point x="390.8" y="546.38" type="curve" smooth="yes"/>
      <point x="485.3833333333333" y="546.38"/>
      <point x="607.1466666666666" y="464.85333333333335"/>
    </contour>
  </outline>
</glyph>
<glyph name="exclamdown" format="2">
  <advance width="517.1933333333334"/>
  <unicode hex="00A1"/>
  <outline>
    <contour>
      <point x="387.2733333333333" y="559.9766666666667" type="line"/>
      <point x="130.61666666666667" y="559.9766666666667" type="line"/>
      <point x="94.38" y="-295.12333333333333" type="line"/>
      <point x="422.81333333333333" y="-295.12333333333333" type="line"/>
    </contour>
    <contour>
      <point x="259.99" y="1010.1466666666666" type="curve" smooth="yes"/>
      <point x="147.24666666666667" y="1010.1466666666666"/>
      <point x="95.61666666666667" y="948.4266666666666"/>
      <point x="95.61666666666667" y="844.65" type="curve" smooth="yes"/>
      <point x="95.61666666666667" y="833.9533333333334" type="line" smooth="yes"/>
      <point x="95.61666666666667" y="731.1766666666666"/>
      <point x="147.24666666666667" y="668.76"/>
      <point x="259.99" y="668.76" type="curve" smooth="yes"/>
      <point x="371.73333333333335" y="668.76"/>
      <point x="425.06" y="731.1766666666666"/>
      <point x="425.06" y="833.9533333333334" type="curve" smooth="yes"/>
      <point x="425.06" y="844.65" type="line" smooth="yes"/>
      <point x="425.06" y="948.4266666666666"/>
      <point x="371.73333333333335" y="1010.1466666666666"/>
    </contour>
  </outline>
</glyph>
<glyph name="cent" format="2">
  <advance width="893.9"/>
  <unicode hex="00A2"/>
  <anchor x="491.87666666666667" y="0.0" name="bottom"/>
  <anchor x="491.87666666666667" y="982.8766666666667" name="top"/>
  <outline>
    <contour>
      <point x="656.4866666666667" y="859.12" type="line"/>
      <point x="656.4866666666667" y="1183.1233333333332" type="line"/>
      <point x="399.31333333333333" y="1183.1233333333332" type="line"/>
      <point x="399.31333333333333" y="859.12" type="line"/>
    </contour>
    <contour>
      <point x="656.4866666666667" y="-204.24666666666667" type="line"/>
      <point x="656.4866666666667" y="136.51999999999998" type="line"/>
      <point x="399.31333333333333" y="136.51999999999998" type="line"/>
      <point x="399.31333333333333" y="-204.24666666666667" type="line"/>
    </contour>
    <component base="c"/>
  </outline>
</glyph>
<glyph name="sterling" format="2">
  <advance width="1094.4166666666667"/>
  <unicode hex="00A3"/>
  <outline>
    <contour>
      <point x="68.94333333333333" y="555.6166666666667" type="line"/>
      <point x="935.26" y="555.6166666666667" type="line"/>
      <point x="949.7433333333333" y="761.26" type="line"/>
      <point x="83.42666666666666" y="761.26" type="line"/>
    </contour>
    <contour>
      <point x="369.34" y="263.35333333333335" type="line"/>
      <point x="369.34" y="274.05" type="line"/>
      <point x="506.78" y="308.51"/>
      <point x="562.78" y="371.18333333333334"/>
      <point x="562.78" y="509.71" type="curve" smooth="yes"/>
      <point x="562.78" y="620.45"/>
      <point x="505.5333333333333" y="752.5833333333334"/>
      <point x="505.5333333333333" y="870.5933333333334" type="curve" smooth="yes"/>
      <point x="505.5333333333333" y="981.3666666666667"/>
      <point x="553.5766666666667" y="1041.13"/>
      <point x="732.0366666666666" y="1041.13" type="curve" smooth="yes"/>
      <point x="820.07" y="1041.13"/>
      <point x="901.3166666666666" y="1028.0066666666667"/>
      <point x="986.7433333333333" y="1003.5466666666666" type="curve"/>
      <point x="963.7766666666666" y="1262.4166666666667" type="line"/>
      <point x="874.9" y="1289.45"/>
      <point x="759.4166666666666" y="1305.4833333333333"/>
      <point x="648.0233333333333" y="1305.4833333333333" type="curve" smooth="yes"/>
      <point x="321.37" y="1305.4833333333333"/>
      <point x="179.1" y="1178.6066666666666"/>
      <point x="179.1" y="927.64" type="curve" smooth="yes"/>
      <point x="179.1" y="779.5733333333334"/>
      <point x="241.74" y="609.3933333333333"/>
      <point x="241.43666666666667" y="476.29333333333335" type="curve" smooth="yes"/>
      <point x="241.43666666666667" y="364.09333333333336"/>
      <point x="208.49333333333334" y="297.65666666666664"/>
      <point x="124.45" y="269.74666666666667" type="curve" smooth="yes"/>
      <point x="75.64" y="251.99333333333334" type="line"/>
      <point x="75.64" y="0.0" type="line"/>
      <point x="1040.4733333333334" y="0.0" type="line"/>
      <point x="1040.4733333333334" y="263.35333333333335" type="line"/>
    </contour>
  </outline>
</glyph>
<glyph name="currency" format="2">
  <advance width="1112.33"/>
  <unicode hex="00A4"/>
  <outline>
    <contour>
      <point x="555.3166666666666" y="214.70666666666668" type="curve" smooth="yes"/>
      <point x="821.4866666666667" y="214.70666666666668"/>
      <point x="962.6333333333333" y="352.46"/>
      <point x="962.6333333333333" y="598.09" type="curve" smooth="yes"/>
      <point x="962.6333333333333" y="627.8533333333334" type="line" smooth="yes"/>
      <point x="962.6333333333333" y="872.4833333333333"/>
      <point x="821.79" y="1010.2366666666667"/>
      <point x="555.62" y="1010.2366666666667" type="curve" smooth="yes"/>
      <point x="289.45" y="1010.2366666666667"/>
      <point x="148.30333333333334" y="872.4833333333333"/>
      <point x="148.30333333333334" y="627.8533333333334" type="curve" smooth="yes"/>
      <point x="148.30333333333334" y="598.09" type="line" smooth="yes"/>
      <point x="148.30333333333334" y="352.46"/>
      <point x="289.14666666666665" y="214.70666666666668"/>
    </contour>
    <contour>
      <point x="555.62" y="441.43" type="curve" smooth="yes"/>
      <point x="465.8466666666667" y="441.43"/>
      <point x="420.14" y="493.2266666666667"/>
      <point x="420.14" y="592.3033333333333" type="curve" smooth="yes"/>
      <point x="420.14" y="632.9433333333334" type="line" smooth="yes"/>
      <point x="420.14" y="732.7166666666667"/>
      <point x="465.8466666666667" y="783.5133333333333"/>
      <point x="555.62" y="783.5133333333333" type="curve" smooth="yes"/>
      <point x="645.09" y="783.5133333333333"/>
      <point x="689.1" y="732.02"/>
      <point x="689.7966666666666" y="632.9433333333334" type="curve" smooth="yes"/>
      <point x="690.7966666666666" y="592.3033333333333" type="line" smooth="yes"/>
      <point x="691.4933333333333" y="493.2266666666667"/>
      <point x="645.09" y="441.43"/>
    </contour>
    <contour>
      <point x="846.5766666666667" y="466.49666666666667" type="line"/>
      <point x="680.45" y="315.55" type="line"/>
      <point x="885.26" y="94.31333333333333" type="line"/>
      <point x="1054.78" y="239.86666666666667" type="line"/>
    </contour>
    <contour>
      <point x="431.88" y="315.55" type="line"/>
      <point x="270.45" y="468.49666666666667" type="line"/>
      <point x="58.55" y="239.86666666666667" type="line"/>
      <point x="227.37333333333333" y="94.31333333333333" type="line"/>
    </contour>
    <contour>
      <point x="254.57333333333332" y="766.2333333333333" type="line"/>
      <point x="427.4866666666667" y="909.3933333333333" type="line"/>
      <point x="227.07" y="1125.54" type="line"/>
      <point x="58.55" y="979.6833333333334" type="line"/>
    </contour>
    <contour>
      <point x="680.45" y="903.0" type="line"/>
      <point x="843.4866666666667" y="749.66" type="line"/>
      <point x="1053.78" y="979.6833333333334" type="line"/>
      <point x="885.26" y="1125.54" type="line"/>
    </contour>
  </outline>
</glyph>
<glyph name="yen" format="2">
  <advance width="1176.89"/>
  <unicode hex="00A5"/>
  <anchor x="587.99" y="0.0" name="bottom"/>
  <anchor x="587.99" y="1278.0" name="top"/>
  <anchor x="22.73" y="1278.0" name="topleft"/>
  <outline>
    <contour>
      <point x="655.0566666666666" y="512.3133333333333" type="line"/>
      <point x="1063.25" y="512.3133333333333" type="line"/>
      <point x="1077.9466666666667" y="688.9666666666667" type="line"/>
      <point x="701.9" y="688.9666666666667" type="line"/>
    </contour>
    <contour>
      <point x="118.03333333333333" y="397.54" type="line"/>
      <point x="102.64" y="221.19" type="line"/>
      <point x="1063.25" y="221.19" type="line"/>
      <point x="1077.9466666666667" y="397.54" type="line"/>
    </contour>
    <contour>
      <point x="470.29333333333335" y="688.9666666666667" type="line"/>
      <point x="118.03333333333333" y="688.9666666666667" type="line"/>
      <point x="102.64" y="512.3133333333333" type="line"/>
      <point x="518.8333333333334" y="512.3133333333333" type="line"/>
    </contour>
    <component base="Y" xOffset="2.7300000000000004"/>
  </outline>
</glyph>
<glyph name="brokenbar" format="2">
  <advance width="526.7433333333333"/>
  <unicode hex="00A6"/>
  <outline>
    <contour>
      <point x="392.00333333333333" y="581.4266666666666" type="line"/>
      <point x="392.00333333333333" y="1421.0" type="line"/>
      <point x="134.74" y="1421.0" type="line"/>
      <point x="134.74" y="581.4266666666666" type="line"/>
    </contour>
    <contour>
      <point x="392.00333333333333" y="-418.7633333333333" type="line"/>
      <point x="392.00333333333333" y="430.99" type="line"/>
      <point x="134.74" y="430.99" type="line"/>
      <point x="134.74" y="-418.7633333333333" type="line"/>
    </contour>
  </outline>
</glyph>
<glyph name="section" format="2">
  <advance width="981.5633333333333"/>
  <unicode hex="00A7"/>
  <outline>
    <contour>
      <point x="546.4266666666666" y="466.58666666666664" type="curve"/>
      <point x="720.8" y="377.84333333333336" type="line"/>
      <point x="719.8" y="438.0133333333333" type="line"/>
      <point x="832.89" y="454.31666666666666"/>
      <point x="903.7666666666667" y="528.7433333333333"/>
      <point x="903.7666666666667" y="634.9566666666667" type="curve" smooth="yes"/>
      <point x="903.7666666666667" y="643.7433333333333" type="line" smooth="yes"/>
      <point x="903.7666666666667" y="796.3833333333333"/>
      <point x="804.71" y="847.1133333333333"/>
      <point x="588.2733333333333" y="898.1466666666666" type="curve" smooth="yes"/>
      <point x="399.7" y="942.54"/>
      <point x="370.20666666666665" y="961.6966666666667"/>
      <point x="370.20666666666665" y="1004.3133333333333" type="curve" smooth="yes"/>
      <point x="370.20666666666665" y="1008.0433333333333" type="line" smooth="yes"/>
      <point x="370.20666666666665" y="1047.2666666666667"/>
      <point x="401.7" y="1069.94"/>
      <point x="519.0133333333333" y="1069.94" type="curve" smooth="yes"/>
      <point x="646.5633333333333" y="1069.94"/>
      <point x="765.53" y="1038.5133333333333"/>
      <point x="859.4066666666666" y="996.7833333333333" type="curve"/>
      <point x="833.7433333333333" y="1232.2366666666667" type="line"/>
      <point x="751.3833333333333" y="1271.7533333333333"/>
      <point x="630.4166666666666" y="1305.18"/>
      <point x="480.9" y="1305.18" type="curve" smooth="yes"/>
      <point x="213.51666666666668" y="1305.18"/>
      <point x="74.79666666666667" y="1212.0"/>
      <point x="74.79666666666667" y="1020.4033333333333" type="curve" smooth="yes"/>
      <point x="74.79666666666667" y="1011.4933333333333" type="line" smooth="yes"/>
      <point x="74.79666666666667" y="851.6833333333334"/>
      <point x="159.37" y="768.47"/>
      <point x="406.15666666666664" y="712.9866666666667" type="curve" smooth="yes"/>
      <point x="575.29" y="675.1666666666666"/>
      <point x="627.5933333333334" y="652.5266666666666"/>
      <point x="627.5933333333334" y="574.3033333333333" type="curve" smooth="yes"/>
      <point x="627.5933333333334" y="569.3933333333333" type="line" smooth="yes"/>
      <point x="627.5933333333334" y="521.4166666666666"/>
      <point x="601.83" y="486.40666666666664"/>
    </contour>
    <contour>
      <point x="429.53" y="728.5033333333333" type="curve"/>
      <point x="249.40333333333334" y="798.19" type="line"/>
      <point x="250.40333333333334" y="751.1666666666666" type="line"/>
      <point x="145.15666666666667" y="730.4366666666667"/>
      <point x="75.49333333333334" y="662.3466666666667"/>
      <point x="75.49333333333334" y="557.6166666666667" type="curve" smooth="yes"/>
      <point x="75.49333333333334" y="547.83" type="line" smooth="yes"/>
      <point x="75.49333333333334" y="407.04333333333335"/>
      <point x="166.37" y="346.19"/>
      <point x="391.52666666666664" y="287.9766666666667" type="curve" smooth="yes"/>
      <point x="562.6266666666667" y="243.85333333333332"/>
      <point x="603.48" y="229.39333333333335"/>
      <point x="603.48" y="179.77666666666667" type="curve" smooth="yes"/>
      <point x="603.48" y="175.35" type="line" smooth="yes"/>
      <point x="603.48" y="129.12666666666667"/>
      <point x="559.47" y="107.54333333333334"/>
      <point x="445.9433333333333" y="107.54333333333334" type="curve" smooth="yes"/>
      <point x="304.51666666666665" y="107.54333333333334"/>
      <point x="180.15666666666667" y="148.15"/>
      <point x="79.67333333333333" y="191.88" type="curve"/>
      <point x="105.33666666666667" y="-63.056666666666665" type="line"/>
      <point x="192.0" y="-101.36"/>
      <point x="314.5733333333333" y="-134.78666666666666"/>
      <point x="468.7866666666667" y="-134.78666666666666" type="curve" smooth="yes"/>
      <point x="763.3166666666666" y="-134.78666666666666"/>
      <point x="903.7666666666667" y="-29.246666666666666"/>
      <point x="903.7666666666667" y="170.35" type="curve" smooth="yes"/>
      <point x="903.7666666666667" y="179.38333333333333" type="line" smooth="yes"/>
      <point x="903.7666666666667" y="358.2833333333333"/>
      <point x="806.1033333333334" y="418.40666666666664"/>
      <point x="565.98" y="473.13666666666666" type="curve" smooth="yes"/>
      <point x="390.52" y="513.17"/>
      <point x="346.78999999999996" y="548.08"/>
      <point x="346.78999999999996" y="621.0" type="curve" smooth="yes"/>
      <point x="346.78999999999996" y="626.5166666666667" type="line"/>
      <point x="346.78999999999996" y="673.2233333333334"/>
      <point x="373.15999999999997" y="708.6833333333334"/>
    </contour>
  </outline>
</glyph>
<glyph name="copyright" format="2">
  <advance width="1423.7766666666666"/>
  <unicode hex="00A9"/>
  <outline>
    <contour>
      <point x="711.54" y="-30.876666666666665" type="curve" smooth="yes"/>
      <point x="1121.4066666666668" y="-30.876666666666665"/>
      <point x="1346.6766666666667" y="190.39333333333335"/>
      <point x="1346.6766666666667" y="575.1466666666666" type="curve" smooth="yes"/>
      <point x="1346.6766666666667" y="709.55" type="line" smooth="yes"/>
      <point x="1346.6766666666667" y="1088.5166666666667"/>
      <point x="1121.4066666666668" y="1306.09"/>
      <point x="711.54" y="1306.09" type="curve" smooth="yes"/>
      <point x="301.37" y="1306.09"/>
      <point x="77.1" y="1088.5166666666667"/>
      <point x="77.1" y="709.55" type="curve" smooth="yes"/>
      <point x="77.1" y="575.1466666666666" type="line" smooth="yes"/>
      <point x="77.1" y="190.39333333333335"/>
      <point x="301.37" y="-30.876666666666665"/>
    </contour>
    <contour>
      <point x="753.63" y="306.82" type="curve" smooth="yes"/>
      <point x="831.9666666666667" y="306.82"/>
      <point x="898.0566666666666" y="325.85333333333335"/>
      <point x="942.2366666666667" y="350.37" type="curve"/>
      <point x="957.1133333333333" y="519.3166666666666" type="line"/>
      <point x="913.81" y="494.58666666666664"/>
      <point x="866.08" y="477.55333333333334"/>
      <point x="804.0133333333333" y="477.55333333333334" type="curve" smooth="yes"/>
      <point x="705.34" y="477.55333333333334"/>
      <point x="658.7" y="528.4066666666666"/>
      <point x="658.7" y="618.81" type="curve" smooth="yes"/>
      <point x="658.7" y="664.7066666666667" type="line" smooth="yes"/>
      <point x="658.7" y="753.4133333333333"/>
      <point x="700.25" y="803.2666666666667"/>
      <point x="798.62" y="803.2666666666667" type="curve" smooth="yes"/>
      <point x="861.3833333333333" y="803.2666666666667"/>
      <point x="909.5066666666667" y="784.84"/>
      <point x="951.4166666666666" y="760.8066666666666" type="curve"/>
      <point x="935.54" y="927.36" type="line"/>
      <point x="893.36" y="951.5733333333334"/>
      <point x="829.6633333333333" y="969.6066666666667"/>
      <point x="752.9333333333333" y="969.6066666666667" type="curve" smooth="yes"/>
      <point x="552.0" y="969.6066666666667"/>
      <point x="456.4266666666667" y="858.2466666666667"/>
      <point x="456.4266666666667" y="665.8866666666667" type="curve" smooth="yes"/>
      <point x="456.4266666666667" y="613.9333333333333" type="line" smooth="yes"/>
      <point x="456.4266666666667" y="419.18"/>
      <point x="551.0" y="306.82"/>
    </contour>
    <contour>
      <point x="711.54" y="135.16" type="curve" smooth="yes"/>
      <point x="432.68666666666667" y="135.16"/>
      <point x="274.58666666666664" y="293.0133333333333"/>
      <point x="274.58666666666664" y="567.9333333333333" type="curve" smooth="yes"/>
      <point x="274.58666666666664" y="717.46" type="line" smooth="yes"/>
      <point x="274.58666666666664" y="986.5933333333334"/>
      <point x="432.68666666666667" y="1140.0533333333333"/>
      <point x="711.54" y="1140.0533333333333" type="curve" smooth="yes"/>
      <point x="990.09" y="1140.0533333333333"/>
      <point x="1149.19" y="986.5933333333334"/>
      <point x="1149.19" y="717.46" type="curve" smooth="yes"/>
      <point x="1149.19" y="567.9333333333333" type="line" smooth="yes"/>
      <point x="1149.19" y="293.0133333333333"/>
      <point x="990.09" y="135.16"/>
    </contour>
  </outline>
</glyph>
<glyph name="ordfeminine" format="2">
  <advance width="674.0566666666666"/>
  <unicode hex="00AA"/>
  <outline>
    <contour>
      <point x="405.86333333333334" y="639.91" type="line"/>
      <point x="611.0466666666666" y="639.91" type="line"/>
      <point x="611.0466666666666" y="1025.1333333333334" type="line" smooth="yes"/>
      <point x="611.0466666666666" y="1180.9433333333334"/>
      <point x="543.7766666666666" y="1291.3033333333333"/>
      <point x="328.09" y="1291.3033333333333" type="curve" smooth="yes"/>
      <point x="229.0" y="1291.3033333333333"/>
      <point x="146.42666666666668" y="1265.7866666666666"/>
      <point x="88.24666666666667" y="1236.8766666666668" type="curve"/>
      <point x="70.67333333333333" y="1075.7733333333333" type="line"/>
      <point x="135.55" y="1103.8966666666668"/>
      <point x="209.94333333333333" y="1129.3233333333333"/>
      <point x="290.46" y="1129.3233333333333" type="curve" smooth="yes"/>
      <point x="379.92" y="1129.3233333333333"/>
      <point x="408.47" y="1098.1666666666667"/>
      <point x="408.47" y="1037.19" type="curve"/>
      <point x="408.47" y="1003.7866666666666" type="line"/>
      <point x="408.47" y="798.2133333333334" type="line"/>
      <point x="412.56" y="790.6966666666667" type="line"/>
    </contour>
    <contour>
      <point x="225.61666666666667" y="625.5166666666667" type="curve" smooth="yes"/>
      <point x="339.43666666666667" y="625.5166666666667"/>
      <point x="386.43666666666667" y="682.6066666666667"/>
      <point x="404.86333333333334" y="761.09" type="curve"/>
      <point x="437.22333333333336" y="761.09" type="line"/>
      <point x="410.07666666666665" y="844.2466666666667" type="line"/>
      <point x="397.9533333333333" y="806.63"/>
      <point x="363.24666666666667" y="776.6533333333333"/>
      <point x="311.93333333333334" y="776.6533333333333" type="curve" smooth="yes"/>
      <point x="263.44" y="776.6533333333333"/>
      <point x="244.28333333333333" y="800.6866666666667"/>
      <point x="244.28333333333333" y="838.0566666666666" type="curve" smooth="yes"/>
      <point x="244.28333333333333" y="843.4833333333333" type="line" smooth="yes"/>
      <point x="244.28333333333333" y="882.55"/>
      <point x="264.8333333333333" y="900.28"/>
      <point x="320.63" y="909.4933333333333" type="curve" smooth="yes"/>
      <point x="436.56" y="928.2233333333334" type="line"/>
      <point x="424.07666666666665" y="1051.91" type="line"/>
      <point x="271.51666666666665" y="1029.4833333333333" type="line" smooth="yes"/>
      <point x="111.06666666666666" y="1005.7866666666666"/>
      <point x="40.19" y="952.8766666666667"/>
      <point x="40.19" y="828.91" type="curve" smooth="yes"/>
      <point x="40.19" y="812.5166666666667" type="line" smooth="yes"/>
      <point x="40.19" y="692.5166666666667"/>
      <point x="104.40333333333334" y="625.5166666666667"/>
    </contour>
  </outline>
</glyph>
<glyph name="logicalnot" format="2">
  <advance width="1021.4833333333333"/>
  <unicode hex="00AC"/>
  <outline>
    <contour>
      <point x="932.17" y="188.24666666666667" type="line"/>
      <point x="932.17" y="651.1466666666666" type="line"/>
      <point x="674.9066666666666" y="651.1466666666666" type="line"/>
      <point x="674.9066666666666" y="188.24666666666667" type="line"/>
    </contour>
    <contour>
      <point x="88.55" y="497.7166666666667" type="line"/>
      <point x="932.17" y="497.7166666666667" type="line"/>
      <point x="932.17" y="740.4066666666666" type="line"/>
      <point x="88.55" y="740.4066666666666" type="line"/>
    </contour>
  </outline>
</glyph>
<glyph name="registered" format="2">
  <advance width="843.45"/>
  <unicode hex="00AE"/>
  <outline>
    <contour>
      <point x="421.87666666666667" y="511.31333333333333" type="curve" smooth="yes"/>
      <point x="663.9" y="511.31333333333333"/>
      <point x="800.9566666666667" y="644.28"/>
      <point x="800.9566666666667" y="868.3366666666667" type="curve" smooth="yes"/>
      <point x="800.9566666666667" y="940.6733333333333" type="line" smooth="yes"/>
      <point x="800.9566666666667" y="1164.73"/>
      <point x="663.9" y="1298.3933333333334"/>
      <point x="421.87666666666667" y="1298.3933333333334" type="curve" smooth="yes"/>
      <point x="178.85333333333332" y="1298.3933333333334"/>
      <point x="42.49333333333333" y="1164.73"/>
      <point x="42.49333333333333" y="940.6733333333333" type="curve" smooth="yes"/>
      <point x="42.49333333333333" y="868.3366666666667" type="line" smooth="yes"/>
      <point x="42.49333333333333" y="644.28"/>
      <point x="178.85333333333332" y="511.31333333333333"/>
    </contour>
    <contour>
      <point x="421.87666666666667" y="613.4833333333333" type="curve" smooth="yes"/>
      <point x="249.05666666666667" y="613.4833333333333"/>
      <point x="162.63" y="701.0"/>
      <point x="162.63" y="863.9433333333334" type="curve" smooth="yes"/>
      <point x="162.63" y="946.7633333333333" type="line" smooth="yes"/>
      <point x="162.63" y="1108.7066666666667"/>
      <point x="249.05666666666667" y="1195.5266666666666"/>
      <point x="421.87666666666667" y="1195.5266666666666" type="curve" smooth="yes"/>
      <point x="594.3933333333333" y="1195.5266666666666"/>
      <point x="680.5166666666667" y="1108.7066666666667"/>
      <point x="680.5166666666667" y="946.7633333333333" type="curve" smooth="yes"/>
      <point x="680.5166666666667" y="863.9433333333334" type="line" smooth="yes"/>
      <point x="680.5166666666667" y="701.0"/>
      <point x="594.3933333333333" y="613.4833333333333"/>
    </contour>
    <contour>
      <point x="483.06666666666666" y="725.73" type="line"/>
      <point x="595.3266666666667" y="725.73" type="line"/>
      <point x="583.72" y="802.4266666666666" type="line" smooth="yes"/>
      <point x="573.4166666666666" y="868.82"/>
      <point x="553.3266666666667" y="896.73"/>
      <point x="483.75333333333333" y="903.4266666666666" type="curve"/>
      <point x="500.14666666666665" y="890.2466666666667" type="line"/>
      <point x="500.14666666666665" y="905.1233333333333" type="line"/>
      <point x="559.2366666666667" y="909.0333333333333"/>
      <point x="587.3266666666667" y="939.3366666666667"/>
      <point x="587.3266666666667" y="992.4266666666666" type="curve" smooth="yes"/>
      <point x="587.3266666666667" y="998.0333333333333" type="line" smooth="yes"/>
      <point x="587.3266666666667" y="1068.2466666666667"/>
      <point x="543.8433333333334" y="1106.64"/>
      <point x="447.18" y="1106.64" type="curve" smooth="yes"/>
      <point x="347.54" y="1106.64" type="line"/>
      <point x="347.54" y="1021.4366666666667" type="line"/>
      <point x="430.6066666666667" y="1021.4366666666667" type="line" smooth="yes"/>
      <point x="464.24666666666667" y="1021.4366666666667"/>
      <point x="478.46" y="1006.01"/>
      <point x="478.46" y="977.28" type="curve" smooth="yes"/>
      <point x="478.46" y="969.6733333333333" type="line" smooth="yes"/>
      <point x="478.46" y="940.3366666666667"/>
      <point x="463.9433333333333" y="925.2133333333334"/>
      <point x="430.30333333333334" y="925.2133333333334" type="curve" smooth="yes"/>
      <point x="347.84333333333336" y="925.2133333333334" type="line"/>
      <point x="347.84333333333336" y="843.1" type="line"/>
      <point x="418.3933333333333" y="842.4033333333333" type="line" smooth="yes"/>
      <point x="456.82" y="841.7066666666667"/>
      <point x="470.64" y="828.19"/>
      <point x="475.85333333333335" y="785.1566666666666" type="curve" smooth="yes"/>
    </contour>
    <contour>
      <point x="274.33666666666664" y="725.73" type="line"/>
      <point x="382.2033333333333" y="725.73" type="line"/>
      <point x="382.2033333333333" y="861.5833333333334" type="line"/>
      <point x="381.50666666666666" y="896.2466666666667" type="line"/>
      <point x="381.50666666666666" y="1106.64" type="line"/>
      <point x="274.33666666666664" y="1106.64" type="line"/>
    </contour>
  </outline>
</glyph>
<glyph name="degree" format="2">
  <advance width="678.2033333333334"/>
  <unicode hex="00B0"/>
  <outline>
    <contour>
      <point x="339.45" y="740.47" type="curve" smooth="yes"/>
      <point x="522.6533333333333" y="740.47"/>
      <point x="623.4066666666666" y="844.4366666666667"/>
      <point x="623.4066666666666" y="1017.9766666666667" type="curve" smooth="yes"/>
      <point x="623.4066666666666" y="1032.37" type="line" smooth="yes"/>
      <point x="623.4066666666666" y="1205.6066666666666"/>
      <point x="522.6533333333333" y="1309.5733333333333"/>
      <point x="339.45" y="1309.5733333333333" type="curve" smooth="yes"/>
      <point x="156.24666666666667" y="1309.5733333333333"/>
      <point x="54.79666666666667" y="1205.6066666666666"/>
      <point x="54.79666666666667" y="1032.37" type="curve" smooth="yes"/>
      <point x="54.79666666666667" y="1017.9766666666667" type="line" smooth="yes"/>
      <point x="54.79666666666667" y="844.4366666666667"/>
      <point x="156.24666666666667" y="740.47"/>
    </contour>
    <contour>
      <point x="339.45" y="901.91" type="curve" smooth="yes"/>
      <point x="278.2033333333333" y="901.91"/>
      <point x="245.38333333333333" y="942.9433333333334"/>
      <point x="245.38333333333333" y="1016.28" type="curve" smooth="yes"/>
      <point x="245.38333333333333" y="1034.46" type="line" smooth="yes"/>
      <point x="245.38333333333333" y="1106.4033333333334"/>
      <point x="278.2033333333333" y="1148.1333333333334"/>
      <point x="339.45" y="1148.1333333333334" type="curve" smooth="yes"/>
      <point x="401.0" y="1148.1333333333334"/>
      <point x="433.51666666666665" y="1106.4033333333334"/>
      <point x="433.51666666666665" y="1034.46" type="curve" smooth="yes"/>
      <point x="433.51666666666665" y="1016.28" type="line" smooth="yes"/>
      <point x="433.51666666666665" y="942.9433333333334"/>
      <point x="401.0" y="901.91"/>
    </contour>
  </outline>
</glyph>
<glyph name="plusminus" format="2">
  <advance width="1036.5733333333333"/>
  <unicode hex="00B1"/>
  <outline>
    <contour>
      <point x="96.97666666666666" y="76.35666666666667" type="line"/>
      <point x="939.5966666666667" y="76.35666666666667" type="line"/>
      <point x="939.5966666666667" y="317.35" type="line"/>
      <point x="96.97666666666666" y="317.35" type="line"/>
    </contour>
    <contour>
      <point x="647.07" y="412.27" type="line"/>
      <point x="647.07" y="1115.4166666666667" type="line"/>
      <point x="389.50333333333333" y="1115.4166666666667" type="line"/>
      <point x="389.50333333333333" y="412.27" type="line"/>
    </contour>
    <contour>
      <point x="96.97666666666666" y="642.65" type="line"/>
      <point x="939.5966666666667" y="642.65" type="line"/>
      <point x="939.5966666666667" y="885.0366666666666" type="line"/>
      <point x="96.97666666666666" y="885.0366666666666" type="line"/>
    </contour>
  </outline>
</glyph>
<glyph name="twosuperior" format="2">
  <advance width="602.7533333333333"/>
  <unicode hex="00B2"/>
  <outline>
    <contour>
      <point x="30.03333333333333" y="726.0" type="line"/>
      <point x="570.5066666666667" y="726.0" type="line"/>
      <point x="570.5066666666667" y="893.98" type="line"/>
      <point x="203.65333333333334" y="893.98" type="line"/>
      <point x="300.7" y="867.4966666666667" type="line"/>
      <point x="300.7" y="900.2833333333333" type="line"/>
      <point x="401.49666666666667" y="968.99" type="line" smooth="yes"/>
      <point x="511.62" y="1044.0566666666666"/>
      <point x="563.5966666666667" y="1106.3933333333334"/>
      <point x="563.5966666666667" y="1206.73" type="curve" smooth="yes"/>
      <point x="563.5966666666667" y="1214.9433333333334" type="line" smooth="yes"/>
      <point x="563.5966666666667" y="1342.5166666666667"/>
      <point x="468.72" y="1422.4833333333333"/>
      <point x="287.18" y="1422.4833333333333" type="curve" smooth="yes"/>
      <point x="193.51666666666668" y="1422.4833333333333"/>
      <point x="106.51666666666667" y="1400.18"/>
      <point x="53.516666666666666" y="1373.5733333333333" type="curve"/>
      <point x="35.24666666666667" y="1204.9866666666667" type="line"/>
      <point x="89.97666666666666" y="1227.11"/>
      <point x="165.94333333333333" y="1250.02"/>
      <point x="240.49333333333334" y="1250.02" type="curve" smooth="yes"/>
      <point x="324.04333333333335" y="1250.02"/>
      <point x="350.89666666666665" y="1224.9866666666667"/>
      <point x="350.89666666666665" y="1183.6166666666666" type="curve" smooth="yes"/>
      <point x="350.89666666666665" y="1180.1" type="line" smooth="yes"/>
      <point x="350.89666666666665" y="1129.0333333333333"/>
      <point x="297.1666666666667" y="1093.54"/>
      <point x="219.1" y="1036.17" type="curve" smooth="yes"/>
      <point x="30.03333333333333" y="898.07" type="line"/>
    </contour>
  </outline>
</glyph>
<glyph name="threesuperior" format="2">
  <advance width="623.9666666666667"/>
  <unicode hex="00B3"/>
  <outline>
    <contour>
      <point x="275.82" y="707.2133333333334" type="curve" smooth="yes"/>
      <point x="489.14666666666665" y="707.2133333333334"/>
      <point x="589.6866666666667" y="785.64"/>
      <point x="589.6866666666667" y="908.2133333333334" type="curve" smooth="yes"/>
      <point x="589.6866666666667" y="917.91" type="line" smooth="yes"/>
      <point x="589.6866666666667" y="1008.5166666666667"/>
      <point x="544.6866666666667" y="1063.3933333333334"/>
      <point x="429.87666666666667" y="1078.6066666666666" type="curve"/>
      <point x="443.2366666666667" y="1059.2466666666667" type="line"/>
      <point x="443.2366666666667" y="1083.6066666666666" type="line"/>
      <point x="541.2933333333333" y="1097.2133333333334"/>
      <point x="585.3833333333333" y="1151.0"/>
      <point x="585.3833333333333" y="1231.3933333333334" type="curve" smooth="yes"/>
      <point x="585.3833333333333" y="1239.7866666666666" type="line" smooth="yes"/>
      <point x="585.3833333333333" y="1358.18"/>
      <point x="487.0233333333333" y="1422.18"/>
      <point x="289.3933333333333" y="1422.18" type="curve" smooth="yes"/>
      <point x="192.18" y="1422.18"/>
      <point x="110.39333333333333" y="1403.36"/>
      <point x="52.82" y="1379.8433333333332" type="curve"/>
      <point x="34.943333333333335" y="1220.65" type="line"/>
      <point x="86.85333333333334" y="1236.6833333333334"/>
      <point x="165.55" y="1256.8066666666666"/>
      <point x="254.06666666666666" y="1256.8066666666666" type="curve" smooth="yes"/>
      <point x="338.59333333333336" y="1256.8066666666666"/>
      <point x="367.41333333333336" y="1238.65"/>
      <point x="367.41333333333336" y="1203.37" type="curve" smooth="yes"/>
      <point x="367.41333333333336" y="1200.1566666666668" type="line" smooth="yes"/>
      <point x="367.41333333333336" y="1163.5733333333333"/>
      <point x="337.86333333333334" y="1146.72"/>
      <point x="261.9433333333333" y="1144.72" type="curve" smooth="yes"/>
      <point x="124.37" y="1141.0233333333333" type="line"/>
      <point x="124.37" y="996.01" type="line"/>
      <point x="268.2133333333333" y="992.3133333333333" type="line" smooth="yes"/>
      <point x="345.1666666666667" y="990.3133333333333"/>
      <point x="368.3233333333333" y="971.1566666666666"/>
      <point x="368.3233333333333" y="936.6633333333333" type="curve" smooth="yes"/>
      <point x="368.3233333333333" y="933.0566666666666" type="line" smooth="yes"/>
      <point x="368.3233333333333" y="897.17"/>
      <point x="341.59333333333336" y="873.4966666666667"/>
      <point x="242.28" y="873.4966666666667" type="curve" smooth="yes"/>
      <point x="163.15666666666667" y="873.4966666666667"/>
      <point x="88.33666666666667" y="890.9233333333333"/>
      <point x="30.246666666666666" y="910.0466666666666" type="curve"/>
      <point x="48.123333333333335" y="742.55" type="line"/>
      <point x="96.91" y="724.64"/>
      <point x="182.21333333333334" y="707.2133333333334"/>
    </contour>
  </outline>
</glyph>
<glyph name="micro" format="2">
  <advance width="1141.7666666666667"/>
  <unicode hex="00B5"/>
  <outline>
    <contour>
      <point x="1040.06" y="982.8766666666667" type="line"/>
      <point x="733.9866666666667" y="982.8766666666667" type="line"/>
      <point x="733.9866666666667" y="274.44" type="line"/>
      <point x="758.01" y="251.99" type="line"/>
      <point x="747.92" y="0.0" type="line"/>
      <point x="1040.06" y="0.0" type="line"/>
    </contour>
    <contour>
      <point x="407.78" y="410.08" type="curve" smooth="yes"/>
      <point x="407.78" y="982.8766666666667" type="line"/>
      <point x="101.70666666666666" y="982.8766666666667" type="line"/>
      <point x="101.70666666666666" y="-344.0" type="line"/>
      <point x="400.2966666666667" y="-344.0" type="line"/>
      <point x="400.2966666666667" y="-264.2833333333333" type="line"/>
      <point x="381.33" y="78.50333333333333" type="line"/>
      <point x="387.93666666666667" y="78.50333333333333" type="line"/>
      <point x="415.6666666666667" y="15.763333333333334"/>
      <point x="462.8566666666667" y="-21.0"/>
      <point x="549.2033333333334" y="-21.0" type="curve" smooth="yes"/>
      <point x="668.3033333333333" y="-21.0"/>
      <point x="720.1" y="59.516666666666666"/>
      <point x="744.2233333333334" y="207.14666666666668" type="curve"/>
      <point x="794.28" y="207.14666666666668" type="line"/>
      <point x="738.5933333333334" y="356.4166666666667" type="line"/>
      <point x="714.9866666666667" y="285.8233333333333"/>
      <point x="656.37" y="230.08333333333331"/>
      <point x="566.17" y="230.08333333333331" type="curve" smooth="yes"/>
      <point x="451.09333333333336" y="230.08333333333331"/>
      <point x="407.78" y="297.4866666666667"/>
    </contour>
  </outline>
</glyph>
<glyph name="paragraph" format="2">
  <advance width="830.9033333333333"/>
  <unicode hex="00B6"/>
  <outline>
    <contour>
      <point x="386.4166666666667" y="640.37" type="curve"/>
      <point x="484.68666666666667" y="640.37" type="line"/>
      <point x="484.3833333333333" y="1278.0" type="line"/>
      <point x="387.11333333333334" y="1278.0" type="line" smooth="yes"/>
      <point x="160.33666666666667" y="1278.0"/>
      <point x="62.06666666666666" y="1169.91"/>
      <point x="62.06666666666666" y="973.5833333333334" type="curve" smooth="yes"/>
      <point x="62.06666666666666" y="945.09" type="line" smooth="yes"/>
      <point x="62.06666666666666" y="748.46"/>
      <point x="160.33666666666667" y="640.37"/>
    </contour>
    <contour>
      <point x="715.3766666666667" y="0.0" type="line"/>
      <point x="715.3766666666667" y="1278.0" type="line"/>
      <point x="411.69666666666666" y="1278.0" type="line"/>
      <point x="411.69666666666666" y="0.0" type="line"/>
    </contour>
  </outline>
</glyph>
<glyph name="onesuperior" format="2">
  <advance width="445.72"/>
  <unicode hex="00B9"/>
  <outline>
    <contour>
      <point x="182.92000000000002" y="726.0" type="line"/>
      <point x="384.8333333333333" y="726.0" type="line"/>
      <point x="384.8333333333333" y="1404.6966666666667" type="line"/>
      <point x="207.33666666666667" y="1404.6966666666667" type="line"/>
      <point x="27.82" y="1320.9" type="line"/>
      <point x="20.73" y="1130.65" type="line"/>
      <point x="173.52666666666667" y="1201.9633333333334" type="line"/>
      <point x="182.92000000000002" y="1201.9633333333334" type="line"/>
    </contour>
  </outline>
</glyph>
<glyph name="ordmasculine" format="2">
  <advance width="706.54"/>
  <unicode hex="00BA"/>
  <outline>
    <contour>
      <point x="352.5733333333333" y="624.1233333333333" type="curve" smooth="yes"/>
      <point x="554.99" y="624.1233333333333"/>
      <point x="662.6533333333333" y="731.3033333333333"/>
      <point x="662.6533333333333" y="927.8766666666667" type="curve" smooth="yes"/>
      <point x="662.6533333333333" y="990.2466666666667" type="line" smooth="yes"/>
      <point x="662.6533333333333" y="1185.1233333333332"/>
      <point x="555.99" y="1293.6966666666667"/>
      <point x="352.5733333333333" y="1293.6966666666667" type="curve" smooth="yes"/>
      <point x="151.55" y="1293.6966666666667"/>
      <point x="43.88666666666667" y="1185.82"/>
      <point x="43.88666666666667" y="990.2466666666667" type="curve" smooth="yes"/>
      <point x="43.88666666666667" y="927.8766666666667" type="line" smooth="yes"/>
      <point x="43.88666666666667" y="731.3033333333333"/>
      <point x="151.55" y="624.1233333333333"/>
    </contour>
    <contour>
      <point x="353.27" y="793.6766666666666" type="curve" smooth="yes"/>
      <point x="288.44" y="793.6766666666666"/>
      <point x="256.76666666666665" y="836.6533333333333"/>
      <point x="256.76666666666665" y="914.6066666666667" type="curve" smooth="yes"/>
      <point x="256.76666666666665" y="1004.5166666666667" type="line" smooth="yes"/>
      <point x="256.76666666666665" y="1081.47"/>
      <point x="288.44" y="1124.1433333333334"/>
      <point x="353.27" y="1124.1433333333334" type="curve" smooth="yes"/>
      <point x="418.1" y="1124.1433333333334"/>
      <point x="449.7733333333333" y="1081.47"/>
      <point x="449.7733333333333" y="1004.5166666666667" type="curve" smooth="yes"/>
      <point x="449.7733333333333" y="914.6066666666667" type="line" smooth="yes"/>
      <point x="449.7733333333333" y="836.35"/>
      <point x="417.7966666666667" y="793.6766666666666"/>
    </contour>
  </outline>
</glyph>
<glyph name="guillemetright" format="2">
  <advance width="1042.1933333333334"/>
  <unicode hex="00BB"/>
  <outline>
    <contour>
      <point x="279.41333333333336" y="489.30333333333334" type="line"/>
      <point x="15.920000000000002" y="78.24666666666667" type="line"/>
      <point x="300.57666666666665" y="78.24666666666667" type="line"/>
      <point x="553.07" y="469.3933333333333" type="line"/>
      <point x="553.07" y="518.27" type="line"/>
      <point x="300.57666666666665" y="899.2366666666667" type="line"/>
      <point x="15.920000000000002" y="899.2366666666667" type="line"/>
    </contour>
    <contour>
      <point x="729.3133333333333" y="489.30333333333334" type="line"/>
      <point x="465.82" y="78.24666666666667" type="line"/>
      <point x="750.4766666666667" y="78.24666666666667" type="line"/>
      <point x="1002.97" y="469.3933333333333" type="line"/>
      <point x="1002.97" y="518.27" type="line"/>
      <point x="750.4766666666667" y="899.2366666666667" type="line"/>
      <point x="465.82" y="899.2366666666667" type="line"/>
    </contour>
  </outline>
</glyph>
